<?xml version="1.0" encoding="utf-8" standalone="no"?>
<!DOCTYPE svg PUBLIC "-//W3C//DTD SVG 1.1//EN"
  "http://www.w3.org/Graphics/SVG/1.1/DTD/svg11.dtd">
<svg xmlns:xlink="http://www.w3.org/1999/xlink" width="721.362727pt" height="394.09125pt" viewBox="0 0 721.362727 394.09125" xmlns="http://www.w3.org/2000/svg" version="1.1">
 <metadata>
  <rdf:RDF xmlns:dc="http://purl.org/dc/elements/1.1/" xmlns:cc="http://creativecommons.org/ns#" xmlns:rdf="http://www.w3.org/1999/02/22-rdf-syntax-ns#">
   <cc:Work>
    <dc:type rdf:resource="http://purl.org/dc/dcmitype/StillImage"/>
    <dc:date>2026-09-19T11:24:43.874451</dc:date>
    <dc:format>image/svg+xml</dc:format>
    <dc:creator>
     <cc:Agent>
      <dc:title>Matplotlib v3.10.8, https://matplotlib.org/</dc:title>
     </cc:Agent>
    </dc:creator>
   </cc:Work>
  </rdf:RDF>
 </metadata>
 <defs>
  <style type="text/css">*{stroke-linejoin: round; stroke-linecap: butt}</style>
 </defs>
 <g id="figure_1">
  <g id="patch_1">
   <path d="M 0 394.09125 
L 721.362727 394.09125 
L 721.362727 0 
L 0 0 
z
" style="fill: #ffffff"/>
  </g>
  <g id="axes_1">
   <g id="patch_2">
    <path d="M 39.55 355.39125 
L 709.15 355.39125 
L 709.15 22.75125 
L 39.55 22.75125 
z
" style="fill: #ffffff"/>
   </g>
   <g id="matplotlib.axis_1">
    <g id="xtick_1">
     <g id="line2d_1">
      <path d="M 94.335455 355.39125 
L 94.335455 22.75125 
" clip-path="url(#p07d8f069fa)" style="fill: none; stroke: #b0b0b0; stroke-width: 0.8; stroke-linecap: square"/>
     </g>
     <g id="line2d_2">
      <defs>
       <path id="m95ede57926" d="M 0 0 
L 0 3.5 
" style="stroke: #000000; stroke-width: 0.8"/>
      </defs>
      <g>
       <use xlink:href="#m95ede57926" x="94.335455" y="355.39125" style="stroke: #000000; stroke-width: 0.8"/>
      </g>
     </g>
     <g id="text_1">
      <!-- 1990 -->
      <g transform="translate(83.235455 370.350625) scale(0.1 -0.1)">
       <defs>
        <path id="NotoSansCJKsc-Regular-31" d="M 563 0 
L 3136 0 
L 3136 486 
L 2195 486 
L 2195 4691 
L 1747 4691 
C 1491 4544 1190 4435 774 4358 
L 774 3987 
L 1613 3987 
L 1613 486 
L 563 486 
L 563 0 
z
" transform="scale(0.015625)"/>
        <path id="NotoSansCJKsc-Regular-39" d="M 1504 -83 
C 2381 -83 3206 646 3206 2547 
C 3206 4038 2528 4774 1626 4774 
C 896 4774 282 4166 282 3251 
C 282 2285 794 1779 1574 1779 
C 1965 1779 2368 2003 2656 2349 
C 2611 896 2086 403 1485 403 
C 1178 403 896 538 691 762 
L 371 397 
C 634 122 992 -83 1504 -83 
z
M 2650 2842 
C 2336 2394 1984 2214 1670 2214 
C 1114 2214 832 2624 832 3251 
C 832 3898 1178 4320 1632 4320 
C 2227 4320 2586 3808 2650 2842 
z
" transform="scale(0.015625)"/>
        <path id="NotoSansCJKsc-Regular-30" d="M 1779 -83 
C 2669 -83 3238 723 3238 2362 
C 3238 3987 2669 4774 1779 4774 
C 883 4774 320 3987 320 2362 
C 320 723 883 -83 1779 -83 
z
M 1779 390 
C 1248 390 883 986 883 2362 
C 883 3731 1248 4314 1779 4314 
C 2310 4314 2675 3731 2675 2362 
C 2675 986 2310 390 1779 390 
z
" transform="scale(0.015625)"/>
       </defs>
       <use xlink:href="#NotoSansCJKsc-Regular-31"/>
       <use xlink:href="#NotoSansCJKsc-Regular-39" transform="translate(55.499985 0)"/>
       <use xlink:href="#NotoSansCJKsc-Regular-39" transform="translate(110.999969 0)"/>
       <use xlink:href="#NotoSansCJKsc-Regular-30" transform="translate(166.499954 0)"/>
      </g>
     </g>
    </g>
    <g id="xtick_2">
     <g id="line2d_3">
      <path d="M 216.080909 355.39125 
L 216.080909 22.75125 
" clip-path="url(#p07d8f069fa)" style="fill: none; stroke: #b0b0b0; stroke-width: 0.8; stroke-linecap: square"/>
     </g>
     <g id="line2d_4">
      <g>
       <use xlink:href="#m95ede57926" x="216.080909" y="355.39125" style="stroke: #000000; stroke-width: 0.8"/>
      </g>
     </g>
     <g id="text_2">
      <!-- 1995 -->
      <g transform="translate(204.980909 370.350625) scale(0.1 -0.1)">
       <defs>
        <path id="NotoSansCJKsc-Regular-35" d="M 1677 -83 
C 2464 -83 3213 499 3213 1523 
C 3213 2560 2573 3021 1798 3021 
C 1517 3021 1306 2950 1094 2835 
L 1216 4192 
L 2982 4192 
L 2982 4691 
L 704 4691 
L 550 2502 
L 864 2304 
C 1133 2483 1331 2579 1645 2579 
C 2234 2579 2618 2182 2618 1510 
C 2618 826 2176 403 1619 403 
C 1075 403 730 653 467 922 
L 173 538 
C 493 224 941 -83 1677 -83 
z
" transform="scale(0.015625)"/>
       </defs>
       <use xlink:href="#NotoSansCJKsc-Regular-31"/>
       <use xlink:href="#NotoSansCJKsc-Regular-39" transform="translate(55.499985 0)"/>
       <use xlink:href="#NotoSansCJKsc-Regular-39" transform="translate(110.999969 0)"/>
       <use xlink:href="#NotoSansCJKsc-Regular-35" transform="translate(166.499954 0)"/>
      </g>
     </g>
    </g>
    <g id="xtick_3">
     <g id="line2d_5">
      <path d="M 337.826364 355.39125 
L 337.826364 22.75125 
" clip-path="url(#p07d8f069fa)" style="fill: none; stroke: #b0b0b0; stroke-width: 0.8; stroke-linecap: square"/>
     </g>
     <g id="line2d_6">
      <g>
       <use xlink:href="#m95ede57926" x="337.826364" y="355.39125" style="stroke: #000000; stroke-width: 0.8"/>
      </g>
     </g>
     <g id="text_3">
      <!-- 2000 -->
      <g transform="translate(326.726364 370.350625) scale(0.1 -0.1)">
       <defs>
        <path id="NotoSansCJKsc-Regular-32" d="M 282 0 
L 3232 0 
L 3232 506 
L 1933 506 
C 1696 506 1408 480 1165 461 
C 2266 1504 3008 2458 3008 3398 
C 3008 4230 2477 4774 1638 4774 
C 1043 4774 634 4506 256 4090 
L 595 3757 
C 858 4070 1184 4301 1568 4301 
C 2150 4301 2432 3910 2432 3373 
C 2432 2566 1754 1632 282 346 
L 282 0 
z
" transform="scale(0.015625)"/>
       </defs>
       <use xlink:href="#NotoSansCJKsc-Regular-32"/>
       <use xlink:href="#NotoSansCJKsc-Regular-30" transform="translate(55.499985 0)"/>
       <use xlink:href="#NotoSansCJKsc-Regular-30" transform="translate(110.999969 0)"/>
       <use xlink:href="#NotoSansCJKsc-Regular-30" transform="translate(166.499954 0)"/>
      </g>
     </g>
    </g>
    <g id="xtick_4">
     <g id="line2d_7">
      <path d="M 459.571818 355.39125 
L 459.571818 22.75125 
" clip-path="url(#p07d8f069fa)" style="fill: none; stroke: #b0b0b0; stroke-width: 0.8; stroke-linecap: square"/>
     </g>
     <g id="line2d_8">
      <g>
       <use xlink:href="#m95ede57926" x="459.571818" y="355.39125" style="stroke: #000000; stroke-width: 0.8"/>
      </g>
     </g>
     <g id="text_4">
      <!-- 2005 -->
      <g transform="translate(448.471818 370.350625) scale(0.1 -0.1)">
       <use xlink:href="#NotoSansCJKsc-Regular-32"/>
       <use xlink:href="#NotoSansCJKsc-Regular-30" transform="translate(55.499985 0)"/>
       <use xlink:href="#NotoSansCJKsc-Regular-30" transform="translate(110.999969 0)"/>
       <use xlink:href="#NotoSansCJKsc-Regular-35" transform="translate(166.499954 0)"/>
      </g>
     </g>
    </g>
    <g id="xtick_5">
     <g id="line2d_9">
      <path d="M 581.317273 355.39125 
L 581.317273 22.75125 
" clip-path="url(#p07d8f069fa)" style="fill: none; stroke: #b0b0b0; stroke-width: 0.8; stroke-linecap: square"/>
     </g>
     <g id="line2d_10">
      <g>
       <use xlink:href="#m95ede57926" x="581.317273" y="355.39125" style="stroke: #000000; stroke-width: 0.8"/>
      </g>
     </g>
     <g id="text_5">
      <!-- 2010 -->
      <g transform="translate(570.217273 370.350625) scale(0.1 -0.1)">
       <use xlink:href="#NotoSansCJKsc-Regular-32"/>
       <use xlink:href="#NotoSansCJKsc-Regular-30" transform="translate(55.499985 0)"/>
       <use xlink:href="#NotoSansCJKsc-Regular-31" transform="translate(110.999969 0)"/>
       <use xlink:href="#NotoSansCJKsc-Regular-30" transform="translate(166.499954 0)"/>
      </g>
     </g>
    </g>
    <g id="xtick_6">
     <g id="line2d_11">
      <path d="M 703.062727 355.39125 
L 703.062727 22.75125 
" clip-path="url(#p07d8f069fa)" style="fill: none; stroke: #b0b0b0; stroke-width: 0.8; stroke-linecap: square"/>
     </g>
     <g id="line2d_12">
      <g>
       <use xlink:href="#m95ede57926" x="703.062727" y="355.39125" style="stroke: #000000; stroke-width: 0.8"/>
      </g>
     </g>
     <g id="text_6">
      <!-- 2015 -->
      <g transform="translate(691.962727 370.350625) scale(0.1 -0.1)">
       <use xlink:href="#NotoSansCJKsc-Regular-32"/>
       <use xlink:href="#NotoSansCJKsc-Regular-30" transform="translate(55.499985 0)"/>
       <use xlink:href="#NotoSansCJKsc-Regular-31" transform="translate(110.999969 0)"/>
       <use xlink:href="#NotoSansCJKsc-Regular-35" transform="translate(166.499954 0)"/>
      </g>
     </g>
    </g>
    <g id="text_7">
     <!-- Year -->
     <g transform="translate(364.170313 384.600625) scale(0.1 -0.1)">
      <defs>
       <path id="NotoSansCJKsc-Regular-59" d="M 1402 0 
L 1990 0 
L 1990 1818 
L 3405 4691 
L 2790 4691 
L 2189 3366 
C 2042 3021 1882 2688 1715 2336 
L 1690 2336 
C 1523 2688 1382 3021 1229 3366 
L 621 4691 
L -6 4691 
L 1402 1818 
L 1402 0 
z
" transform="scale(0.015625)"/>
       <path id="NotoSansCJKsc-Regular-65" d="M 1997 -83 
C 2464 -83 2835 70 3136 269 
L 2931 659 
C 2669 486 2400 384 2061 384 
C 1402 384 947 858 909 1600 
L 3251 1600 
C 3264 1690 3277 1805 3277 1933 
C 3277 2925 2778 3565 1888 3565 
C 1094 3565 333 2867 333 1734 
C 333 589 1069 -83 1997 -83 
z
M 902 2016 
C 973 2707 1408 3098 1901 3098 
C 2445 3098 2765 2720 2765 2016 
L 902 2016 
z
" transform="scale(0.015625)"/>
       <path id="NotoSansCJKsc-Regular-61" d="M 1389 -83 
C 1818 -83 2208 141 2541 416 
L 2560 416 
L 2611 0 
L 3091 0 
L 3091 2138 
C 3091 3002 2739 3565 1888 3565 
C 1325 3565 838 3315 525 3110 
L 749 2707 
C 1024 2893 1389 3078 1792 3078 
C 2362 3078 2509 2650 2509 2202 
C 1030 2035 378 1658 378 902 
C 378 275 806 -83 1389 -83 
z
M 1555 390 
C 1210 390 941 544 941 941 
C 941 1389 1338 1677 2509 1811 
L 2509 845 
C 2170 544 1888 390 1555 390 
z
" transform="scale(0.015625)"/>
       <path id="NotoSansCJKsc-Regular-72" d="M 589 0 
L 1178 0 
L 1178 2234 
C 1408 2822 1760 3040 2048 3040 
C 2195 3040 2272 3021 2387 2982 
L 2496 3488 
C 2387 3546 2278 3565 2125 3565 
C 1741 3565 1382 3283 1139 2842 
L 1126 2842 
L 1069 3475 
L 589 3475 
L 589 0 
z
" transform="scale(0.015625)"/>
      </defs>
      <use xlink:href="#NotoSansCJKsc-Regular-59"/>
      <use xlink:href="#NotoSansCJKsc-Regular-65" transform="translate(53.099991 0)"/>
      <use xlink:href="#NotoSansCJKsc-Regular-61" transform="translate(108.499985 0)"/>
      <use xlink:href="#NotoSansCJKsc-Regular-72" transform="translate(164.799973 0)"/>
     </g>
    </g>
   </g>
   <g id="matplotlib.axis_2">
    <g id="ytick_1">
     <g id="line2d_13">
      <path d="M 39.55 343.669003 
L 709.15 343.669003 
" clip-path="url(#p07d8f069fa)" style="fill: none; stroke: #b0b0b0; stroke-width: 0.8; stroke-linecap: square"/>
     </g>
     <g id="line2d_14">
      <defs>
       <path id="m83b13b6f4a" d="M 0 0 
L -3.5 0 
" style="stroke: #000000; stroke-width: 0.8"/>
      </defs>
      <g>
       <use xlink:href="#m83b13b6f4a" x="39.55" y="343.669003" style="stroke: #000000; stroke-width: 0.8"/>
      </g>
     </g>
     <g id="text_8">
      <!-- 0 -->
      <g transform="translate(27 347.64869) scale(0.1 -0.1)">
       <use xlink:href="#NotoSansCJKsc-Regular-30"/>
      </g>
     </g>
    </g>
    <g id="ytick_2">
     <g id="line2d_15">
      <path d="M 39.55 275.713947 
L 709.15 275.713947 
" clip-path="url(#p07d8f069fa)" style="fill: none; stroke: #b0b0b0; stroke-width: 0.8; stroke-linecap: square"/>
     </g>
     <g id="line2d_16">
      <g>
       <use xlink:href="#m83b13b6f4a" x="39.55" y="275.713947" style="stroke: #000000; stroke-width: 0.8"/>
      </g>
     </g>
     <g id="text_9">
      <!-- 20 -->
      <g transform="translate(21.45 279.693634) scale(0.1 -0.1)">
       <use xlink:href="#NotoSansCJKsc-Regular-32"/>
       <use xlink:href="#NotoSansCJKsc-Regular-30" transform="translate(55.499985 0)"/>
      </g>
     </g>
    </g>
    <g id="ytick_3">
     <g id="line2d_17">
      <path d="M 39.55 207.75889 
L 709.15 207.75889 
" clip-path="url(#p07d8f069fa)" style="fill: none; stroke: #b0b0b0; stroke-width: 0.8; stroke-linecap: square"/>
     </g>
     <g id="line2d_18">
      <g>
       <use xlink:href="#m83b13b6f4a" x="39.55" y="207.75889" style="stroke: #000000; stroke-width: 0.8"/>
      </g>
     </g>
     <g id="text_10">
      <!-- 40 -->
      <g transform="translate(21.45 211.738578) scale(0.1 -0.1)">
       <defs>
        <path id="NotoSansCJKsc-Regular-34" d="M 2176 0 
L 2726 0 
L 2726 1293 
L 3354 1293 
L 3354 1760 
L 2726 1760 
L 2726 4691 
L 2080 4691 
L 128 1677 
L 128 1293 
L 2176 1293 
L 2176 0 
z
M 2176 1760 
L 736 1760 
L 1805 3360 
C 1939 3590 2067 3827 2182 4051 
L 2208 4051 
C 2195 3814 2176 3430 2176 3200 
L 2176 1760 
z
" transform="scale(0.015625)"/>
       </defs>
       <use xlink:href="#NotoSansCJKsc-Regular-34"/>
       <use xlink:href="#NotoSansCJKsc-Regular-30" transform="translate(55.499985 0)"/>
      </g>
     </g>
    </g>
    <g id="ytick_4">
     <g id="line2d_19">
      <path d="M 39.55 139.803834 
L 709.15 139.803834 
" clip-path="url(#p07d8f069fa)" style="fill: none; stroke: #b0b0b0; stroke-width: 0.8; stroke-linecap: square"/>
     </g>
     <g id="line2d_20">
      <g>
       <use xlink:href="#m83b13b6f4a" x="39.55" y="139.803834" style="stroke: #000000; stroke-width: 0.8"/>
      </g>
     </g>
     <g id="text_11">
      <!-- 60 -->
      <g transform="translate(21.45 143.783522) scale(0.1 -0.1)">
       <defs>
        <path id="NotoSansCJKsc-Regular-36" d="M 1926 -83 
C 2656 -83 3277 531 3277 1440 
C 3277 2426 2765 2912 1971 2912 
C 1606 2912 1197 2701 909 2349 
C 934 3802 1466 4294 2118 4294 
C 2400 4294 2682 4154 2861 3936 
L 3194 4294 
C 2931 4576 2579 4774 2093 4774 
C 1184 4774 358 4077 358 2240 
C 358 691 1030 -83 1926 -83 
z
M 922 1882 
C 1229 2317 1587 2477 1875 2477 
C 2445 2477 2720 2074 2720 1440 
C 2720 800 2374 378 1926 378 
C 1338 378 986 909 922 1882 
z
" transform="scale(0.015625)"/>
       </defs>
       <use xlink:href="#NotoSansCJKsc-Regular-36"/>
       <use xlink:href="#NotoSansCJKsc-Regular-30" transform="translate(55.499985 0)"/>
      </g>
     </g>
    </g>
    <g id="ytick_5">
     <g id="line2d_21">
      <path d="M 39.55 71.848778 
L 709.15 71.848778 
" clip-path="url(#p07d8f069fa)" style="fill: none; stroke: #b0b0b0; stroke-width: 0.8; stroke-linecap: square"/>
     </g>
     <g id="line2d_22">
      <g>
       <use xlink:href="#m83b13b6f4a" x="39.55" y="71.848778" style="stroke: #000000; stroke-width: 0.8"/>
      </g>
     </g>
     <g id="text_12">
      <!-- 80 -->
      <g transform="translate(21.45 75.828466) scale(0.1 -0.1)">
       <defs>
        <path id="NotoSansCJKsc-Regular-38" d="M 1792 -83 
C 2669 -83 3258 448 3258 1126 
C 3258 1773 2880 2125 2470 2362 
L 2470 2394 
C 2746 2611 3091 3034 3091 3526 
C 3091 4250 2605 4762 1805 4762 
C 1075 4762 518 4282 518 3571 
C 518 3078 813 2726 1152 2490 
L 1152 2464 
C 723 2234 294 1792 294 1165 
C 294 442 922 -83 1792 -83 
z
M 2112 2547 
C 1555 2765 1050 3014 1050 3571 
C 1050 4026 1363 4326 1798 4326 
C 2298 4326 2592 3962 2592 3494 
C 2592 3149 2426 2829 2112 2547 
z
M 1798 352 
C 1235 352 813 717 813 1216 
C 813 1664 1082 2035 1459 2278 
C 2125 2010 2701 1779 2701 1146 
C 2701 678 2342 352 1798 352 
z
" transform="scale(0.015625)"/>
       </defs>
       <use xlink:href="#NotoSansCJKsc-Regular-38"/>
       <use xlink:href="#NotoSansCJKsc-Regular-30" transform="translate(55.499985 0)"/>
      </g>
     </g>
    </g>
    <g id="text_13">
     <!-- Number of Discoveries -->
     <g transform="translate(15.159375 241.580625) rotate(-90) scale(0.1 -0.1)">
      <defs>
       <path id="NotoSansCJKsc-Regular-4e" d="M 646 0 
L 1203 0 
L 1203 2464 
C 1203 2957 1158 3456 1133 3930 
L 1158 3930 
L 1664 2963 
L 3373 0 
L 3981 0 
L 3981 4691 
L 3418 4691 
L 3418 2253 
C 3418 1766 3462 1235 3501 768 
L 3469 768 
L 2963 1734 
L 1248 4691 
L 646 4691 
L 646 0 
z
" transform="scale(0.015625)"/>
       <path id="NotoSansCJKsc-Regular-75" d="M 1606 -83 
C 2080 -83 2426 166 2752 544 
L 2771 544 
L 2816 0 
L 3302 0 
L 3302 3475 
L 2720 3475 
L 2720 1011 
C 2387 602 2138 422 1779 422 
C 1318 422 1126 698 1126 1344 
L 1126 3475 
L 538 3475 
L 538 1274 
C 538 384 870 -83 1606 -83 
z
" transform="scale(0.015625)"/>
       <path id="NotoSansCJKsc-Regular-6d" d="M 589 0 
L 1178 0 
L 1178 2522 
C 1491 2880 1786 3053 2048 3053 
C 2490 3053 2694 2778 2694 2125 
L 2694 0 
L 3277 0 
L 3277 2522 
C 3603 2880 3885 3053 4154 3053 
C 4595 3053 4800 2778 4800 2125 
L 4800 0 
L 5382 0 
L 5382 2202 
C 5382 3085 5043 3565 4333 3565 
C 3904 3565 3546 3290 3181 2899 
C 3040 3309 2758 3565 2221 3565 
C 1805 3565 1446 3302 1139 2970 
L 1126 2970 
L 1069 3475 
L 589 3475 
L 589 0 
z
" transform="scale(0.015625)"/>
       <path id="NotoSansCJKsc-Regular-62" d="M 2118 -83 
C 2912 -83 3629 602 3629 1792 
C 3629 2867 3142 3565 2246 3565 
C 1856 3565 1472 3347 1152 3078 
L 1178 3699 
L 1178 5094 
L 589 5094 
L 589 0 
L 1056 0 
L 1107 358 
L 1133 358 
C 1434 83 1798 -83 2118 -83 
z
M 2022 410 
C 1792 410 1478 499 1178 768 
L 1178 2598 
C 1504 2906 1811 3072 2099 3072 
C 2765 3072 3021 2560 3021 1786 
C 3021 928 2598 410 2022 410 
z
" transform="scale(0.015625)"/>
       <path id="NotoSansCJKsc-Regular-20" transform="scale(0.015625)"/>
       <path id="NotoSansCJKsc-Regular-6f" d="M 1939 -83 
C 2790 -83 3546 582 3546 1734 
C 3546 2893 2790 3565 1939 3565 
C 1088 3565 333 2893 333 1734 
C 333 582 1088 -83 1939 -83 
z
M 1939 403 
C 1338 403 934 934 934 1734 
C 934 2534 1338 3072 1939 3072 
C 2541 3072 2950 2534 2950 1734 
C 2950 934 2541 403 1939 403 
z
" transform="scale(0.015625)"/>
       <path id="NotoSansCJKsc-Regular-66" d="M 211 3002 
L 685 3002 
L 685 0 
L 1267 0 
L 1267 3002 
L 2003 3002 
L 2003 3475 
L 1267 3475 
L 1267 4026 
C 1267 4474 1427 4710 1760 4710 
C 1882 4710 2022 4678 2150 4614 
L 2278 5069 
C 2118 5133 1914 5178 1696 5178 
C 1005 5178 685 4736 685 4032 
L 685 3475 
L 211 3443 
L 211 3002 
z
" transform="scale(0.015625)"/>
       <path id="NotoSansCJKsc-Regular-44" d="M 646 0 
L 1843 0 
C 3258 0 4026 877 4026 2362 
C 4026 3859 3258 4691 1818 4691 
L 646 4691 
L 646 0 
z
M 1235 486 
L 1235 4211 
L 1766 4211 
C 2874 4211 3418 3552 3418 2362 
C 3418 1178 2874 486 1766 486 
L 1235 486 
z
" transform="scale(0.015625)"/>
       <path id="NotoSansCJKsc-Regular-69" d="M 589 0 
L 1178 0 
L 1178 3475 
L 589 3475 
L 589 0 
z
M 883 4192 
C 1114 4192 1274 4346 1274 4582 
C 1274 4806 1114 4960 883 4960 
C 653 4960 499 4806 499 4582 
C 499 4346 653 4192 883 4192 
z
" transform="scale(0.015625)"/>
       <path id="NotoSansCJKsc-Regular-73" d="M 1498 -83 
C 2317 -83 2758 384 2758 947 
C 2758 1606 2208 1811 1702 2003 
C 1312 2150 954 2278 954 2605 
C 954 2880 1158 3110 1600 3110 
C 1907 3110 2150 2976 2387 2803 
L 2669 3168 
C 2406 3386 2022 3565 1594 3565 
C 832 3565 397 3130 397 2579 
C 397 1984 922 1754 1408 1574 
C 1792 1434 2202 1267 2202 915 
C 2202 614 1978 371 1517 371 
C 1101 371 794 538 486 787 
L 205 397 
C 531 122 1005 -83 1498 -83 
z
" transform="scale(0.015625)"/>
       <path id="NotoSansCJKsc-Regular-63" d="M 1958 -83 
C 2374 -83 2771 83 3085 352 
L 2829 749 
C 2611 557 2330 403 2010 403 
C 1370 403 934 934 934 1734 
C 934 2534 1395 3072 2029 3072 
C 2298 3072 2522 2950 2720 2771 
L 3014 3155 
C 2771 3373 2458 3565 2003 3565 
C 1107 3565 333 2893 333 1734 
C 333 582 1037 -83 1958 -83 
z
" transform="scale(0.015625)"/>
       <path id="NotoSansCJKsc-Regular-76" d="M 1338 0 
L 2022 0 
L 3251 3475 
L 2675 3475 
L 2016 1498 
C 1914 1158 1798 806 1696 474 
L 1664 474 
C 1562 806 1453 1158 1344 1498 
L 691 3475 
L 83 3475 
L 1338 0 
z
" transform="scale(0.015625)"/>
      </defs>
      <use xlink:href="#NotoSansCJKsc-Regular-4e"/>
      <use xlink:href="#NotoSansCJKsc-Regular-75" transform="translate(72.299988 0)"/>
      <use xlink:href="#NotoSansCJKsc-Regular-6d" transform="translate(132.999985 0)"/>
      <use xlink:href="#NotoSansCJKsc-Regular-62" transform="translate(225.599976 0)"/>
      <use xlink:href="#NotoSansCJKsc-Regular-65" transform="translate(287.399963 0)"/>
      <use xlink:href="#NotoSansCJKsc-Regular-72" transform="translate(342.799957 0)"/>
      <use xlink:href="#NotoSansCJKsc-Regular-20" transform="translate(381.599945 0)"/>
      <use xlink:href="#NotoSansCJKsc-Regular-6f" transform="translate(403.999939 0)"/>
      <use xlink:href="#NotoSansCJKsc-Regular-66" transform="translate(464.59993 0)"/>
      <use xlink:href="#NotoSansCJKsc-Regular-20" transform="translate(497.099915 0)"/>
      <use xlink:href="#NotoSansCJKsc-Regular-44" transform="translate(519.499908 0)"/>
      <use xlink:href="#NotoSansCJKsc-Regular-69" transform="translate(588.299896 0)"/>
      <use xlink:href="#NotoSansCJKsc-Regular-73" transform="translate(615.799881 0)"/>
      <use xlink:href="#NotoSansCJKsc-Regular-63" transform="translate(662.599869 0)"/>
      <use xlink:href="#NotoSansCJKsc-Regular-6f" transform="translate(713.599854 0)"/>
      <use xlink:href="#NotoSansCJKsc-Regular-76" transform="translate(774.199844 0)"/>
      <use xlink:href="#NotoSansCJKsc-Regular-65" transform="translate(826.299835 0)"/>
      <use xlink:href="#NotoSansCJKsc-Regular-72" transform="translate(881.699829 0)"/>
      <use xlink:href="#NotoSansCJKsc-Regular-69" transform="translate(920.499817 0)"/>
      <use xlink:href="#NotoSansCJKsc-Regular-65" transform="translate(947.999802 0)"/>
      <use xlink:href="#NotoSansCJKsc-Regular-73" transform="translate(1003.399796 0)"/>
     </g>
    </g>
   </g>
   <g id="line2d_23">
    <path d="M 69.986364 340.27125 
L 216.080909 340.27125 
L 240.43 330.077992 
L 264.779091 340.27125 
L 289.128182 326.680239 
L 313.477273 296.100463 
L 337.826364 296.100463 
L 362.175455 306.293722 
L 386.524545 238.338666 
L 410.873636 268.918441 
L 435.222727 292.702711 
L 459.571818 228.145407 
L 483.920909 275.713947 
L 508.27 251.929677 
L 532.619091 197.565632 
L 556.968182 105.826306 
L 581.317273 204.361138 
L 605.666364 37.87125 
L 630.015455 265.520688 
L 654.364545 245.134171 
L 678.713636 336.873497 
" clip-path="url(#p07d8f069fa)" style="fill: none; stroke: #1f77b4; stroke-width: 1.5; stroke-linecap: square"/>
    <defs>
     <path id="mba86288591" d="M 0 3 
C 0.795609 3 1.55874 2.683901 2.12132 2.12132 
C 2.683901 1.55874 3 0.795609 3 0 
C 3 -0.795609 2.683901 -1.55874 2.12132 -2.12132 
C 1.55874 -2.683901 0.795609 -3 0 -3 
C -0.795609 -3 -1.55874 -2.683901 -2.12132 -2.12132 
C -2.683901 -1.55874 -3 -0.795609 -3 0 
C -3 0.795609 -2.683901 1.55874 -2.12132 2.12132 
C -1.55874 2.683901 -0.795609 3 0 3 
z
" style="stroke: #1f77b4"/>
    </defs>
    <g clip-path="url(#p07d8f069fa)">
     <use xlink:href="#mba86288591" x="69.986364" y="340.27125" style="fill: #1f77b4; stroke: #1f77b4"/>
     <use xlink:href="#mba86288591" x="216.080909" y="340.27125" style="fill: #1f77b4; stroke: #1f77b4"/>
     <use xlink:href="#mba86288591" x="240.43" y="330.077992" style="fill: #1f77b4; stroke: #1f77b4"/>
     <use xlink:href="#mba86288591" x="264.779091" y="340.27125" style="fill: #1f77b4; stroke: #1f77b4"/>
     <use xlink:href="#mba86288591" x="289.128182" y="326.680239" style="fill: #1f77b4; stroke: #1f77b4"/>
     <use xlink:href="#mba86288591" x="313.477273" y="296.100463" style="fill: #1f77b4; stroke: #1f77b4"/>
     <use xlink:href="#mba86288591" x="337.826364" y="296.100463" style="fill: #1f77b4; stroke: #1f77b4"/>
     <use xlink:href="#mba86288591" x="362.175455" y="306.293722" style="fill: #1f77b4; stroke: #1f77b4"/>
     <use xlink:href="#mba86288591" x="386.524545" y="238.338666" style="fill: #1f77b4; stroke: #1f77b4"/>
     <use xlink:href="#mba86288591" x="410.873636" y="268.918441" style="fill: #1f77b4; stroke: #1f77b4"/>
     <use xlink:href="#mba86288591" x="435.222727" y="292.702711" style="fill: #1f77b4; stroke: #1f77b4"/>
     <use xlink:href="#mba86288591" x="459.571818" y="228.145407" style="fill: #1f77b4; stroke: #1f77b4"/>
     <use xlink:href="#mba86288591" x="483.920909" y="275.713947" style="fill: #1f77b4; stroke: #1f77b4"/>
     <use xlink:href="#mba86288591" x="508.27" y="251.929677" style="fill: #1f77b4; stroke: #1f77b4"/>
     <use xlink:href="#mba86288591" x="532.619091" y="197.565632" style="fill: #1f77b4; stroke: #1f77b4"/>
     <use xlink:href="#mba86288591" x="556.968182" y="105.826306" style="fill: #1f77b4; stroke: #1f77b4"/>
     <use xlink:href="#mba86288591" x="581.317273" y="204.361138" style="fill: #1f77b4; stroke: #1f77b4"/>
     <use xlink:href="#mba86288591" x="605.666364" y="37.87125" style="fill: #1f77b4; stroke: #1f77b4"/>
     <use xlink:href="#mba86288591" x="630.015455" y="265.520688" style="fill: #1f77b4; stroke: #1f77b4"/>
     <use xlink:href="#mba86288591" x="654.364545" y="245.134171" style="fill: #1f77b4; stroke: #1f77b4"/>
     <use xlink:href="#mba86288591" x="678.713636" y="336.873497" style="fill: #1f77b4; stroke: #1f77b4"/>
    </g>
   </g>
   <g id="patch_3">
    <path d="M 39.55 355.39125 
L 39.55 22.75125 
" style="fill: none; stroke: #000000; stroke-width: 0.8; stroke-linejoin: miter; stroke-linecap: square"/>
   </g>
   <g id="patch_4">
    <path d="M 709.15 355.39125 
L 709.15 22.75125 
" style="fill: none; stroke: #000000; stroke-width: 0.8; stroke-linejoin: miter; stroke-linecap: square"/>
   </g>
   <g id="patch_5">
    <path d="M 39.55 355.39125 
L 709.15 355.39125 
" style="fill: none; stroke: #000000; stroke-width: 0.8; stroke-linejoin: miter; stroke-linecap: square"/>
   </g>
   <g id="patch_6">
    <path d="M 39.55 22.75125 
L 709.15 22.75125 
" style="fill: none; stroke: #000000; stroke-width: 0.8; stroke-linejoin: miter; stroke-linecap: square"/>
   </g>
   <g id="text_14">
    <!-- Trend of Planet Discoveries Over Years -->
    <g transform="translate(267.194688 16.75125) scale(0.12 -0.12)">
     <defs>
      <path id="NotoSansCJKsc-Regular-54" d="M 1619 0 
L 2214 0 
L 2214 4192 
L 3635 4192 
L 3635 4691 
L 198 4691 
L 198 4192 
L 1619 4192 
L 1619 0 
z
" transform="scale(0.015625)"/>
      <path id="NotoSansCJKsc-Regular-6e" d="M 589 0 
L 1178 0 
L 1178 2522 
C 1523 2874 1766 3053 2125 3053 
C 2586 3053 2784 2778 2784 2125 
L 2784 0 
L 3366 0 
L 3366 2202 
C 3366 3085 3034 3565 2304 3565 
C 1830 3565 1466 3302 1139 2970 
L 1126 2970 
L 1069 3475 
L 589 3475 
L 589 0 
z
" transform="scale(0.015625)"/>
      <path id="NotoSansCJKsc-Regular-64" d="M 1773 -83 
C 2189 -83 2560 141 2829 410 
L 2848 410 
L 2899 0 
L 3379 0 
L 3379 5094 
L 2790 5094 
L 2790 3757 
L 2822 3162 
C 2515 3411 2253 3565 1843 3565 
C 1050 3565 339 2861 339 1734 
C 339 576 902 -83 1773 -83 
z
M 1901 410 
C 1293 410 941 902 941 1741 
C 941 2534 1389 3072 1946 3072 
C 2234 3072 2502 2970 2790 2707 
L 2790 883 
C 2502 563 2221 410 1901 410 
z
" transform="scale(0.015625)"/>
      <path id="NotoSansCJKsc-Regular-50" d="M 646 0 
L 1235 0 
L 1235 1869 
L 2010 1869 
C 3040 1869 3738 2323 3738 3315 
C 3738 4339 3034 4691 1984 4691 
L 646 4691 
L 646 0 
z
M 1235 2349 
L 1235 4211 
L 1907 4211 
C 2733 4211 3149 4000 3149 3315 
C 3149 2643 2758 2349 1933 2349 
L 1235 2349 
z
" transform="scale(0.015625)"/>
      <path id="NotoSansCJKsc-Regular-6c" d="M 1203 -83 
C 1363 -83 1459 -58 1542 -32 
L 1459 416 
C 1395 403 1370 403 1338 403 
C 1248 403 1178 474 1178 653 
L 1178 5094 
L 589 5094 
L 589 691 
C 589 198 768 -83 1203 -83 
z
" transform="scale(0.015625)"/>
      <path id="NotoSansCJKsc-Regular-74" d="M 1677 -83 
C 1894 -83 2125 -19 2323 45 
L 2208 486 
C 2093 435 1939 390 1811 390 
C 1408 390 1274 634 1274 1056 
L 1274 3002 
L 2221 3002 
L 2221 3475 
L 1274 3475 
L 1274 4454 
L 787 4454 
L 723 3475 
L 173 3443 
L 173 3002 
L 691 3002 
L 691 1075 
C 691 378 941 -83 1677 -83 
z
" transform="scale(0.015625)"/>
      <path id="NotoSansCJKsc-Regular-4f" d="M 2374 -83 
C 3552 -83 4378 858 4378 2362 
C 4378 3866 3552 4774 2374 4774 
C 1197 4774 371 3866 371 2362 
C 371 858 1197 -83 2374 -83 
z
M 2374 435 
C 1530 435 979 1190 979 2362 
C 979 3533 1530 4256 2374 4256 
C 3219 4256 3770 3533 3770 2362 
C 3770 1190 3219 435 2374 435 
z
" transform="scale(0.015625)"/>
     </defs>
     <use xlink:href="#NotoSansCJKsc-Regular-54"/>
     <use xlink:href="#NotoSansCJKsc-Regular-72" transform="translate(59.899994 0)"/>
     <use xlink:href="#NotoSansCJKsc-Regular-65" transform="translate(98.699982 0)"/>
     <use xlink:href="#NotoSansCJKsc-Regular-6e" transform="translate(154.099976 0)"/>
     <use xlink:href="#NotoSansCJKsc-Regular-64" transform="translate(215.09996 0)"/>
     <use xlink:href="#NotoSansCJKsc-Regular-20" transform="translate(277.099945 0)"/>
     <use xlink:href="#NotoSansCJKsc-Regular-6f" transform="translate(299.499939 0)"/>
     <use xlink:href="#NotoSansCJKsc-Regular-66" transform="translate(360.09993 0)"/>
     <use xlink:href="#NotoSansCJKsc-Regular-20" transform="translate(392.599915 0)"/>
     <use xlink:href="#NotoSansCJKsc-Regular-50" transform="translate(414.999908 0)"/>
     <use xlink:href="#NotoSansCJKsc-Regular-6c" transform="translate(478.299896 0)"/>
     <use xlink:href="#NotoSansCJKsc-Regular-61" transform="translate(506.69989 0)"/>
     <use xlink:href="#NotoSansCJKsc-Regular-6e" transform="translate(562.999878 0)"/>
     <use xlink:href="#NotoSansCJKsc-Regular-65" transform="translate(623.999863 0)"/>
     <use xlink:href="#NotoSansCJKsc-Regular-74" transform="translate(679.399857 0)"/>
     <use xlink:href="#NotoSansCJKsc-Regular-20" transform="translate(717.099854 0)"/>
     <use xlink:href="#NotoSansCJKsc-Regular-44" transform="translate(739.499847 0)"/>
     <use xlink:href="#NotoSansCJKsc-Regular-69" transform="translate(808.299835 0)"/>
     <use xlink:href="#NotoSansCJKsc-Regular-73" transform="translate(835.79982 0)"/>
     <use xlink:href="#NotoSansCJKsc-Regular-63" transform="translate(882.599808 0)"/>
     <use xlink:href="#NotoSansCJKsc-Regular-6f" transform="translate(933.599792 0)"/>
     <use xlink:href="#NotoSansCJKsc-Regular-76" transform="translate(994.199783 0)"/>
     <use xlink:href="#NotoSansCJKsc-Regular-65" transform="translate(1046.299774 0)"/>
     <use xlink:href="#NotoSansCJKsc-Regular-72" transform="translate(1101.699768 0)"/>
     <use xlink:href="#NotoSansCJKsc-Regular-69" transform="translate(1140.499756 0)"/>
     <use xlink:href="#NotoSansCJKsc-Regular-65" transform="translate(1167.999741 0)"/>
     <use xlink:href="#NotoSansCJKsc-Regular-73" transform="translate(1223.399734 0)"/>
     <use xlink:href="#NotoSansCJKsc-Regular-20" transform="translate(1270.199722 0)"/>
     <use xlink:href="#NotoSansCJKsc-Regular-4f" transform="translate(1292.599716 0)"/>
     <use xlink:href="#NotoSansCJKsc-Regular-76" transform="translate(1366.799698 0)"/>
     <use xlink:href="#NotoSansCJKsc-Regular-65" transform="translate(1418.899689 0)"/>
     <use xlink:href="#NotoSansCJKsc-Regular-72" transform="translate(1474.299683 0)"/>
     <use xlink:href="#NotoSansCJKsc-Regular-20" transform="translate(1513.09967 0)"/>
     <use xlink:href="#NotoSansCJKsc-Regular-59" transform="translate(1535.499664 0)"/>
     <use xlink:href="#NotoSansCJKsc-Regular-65" transform="translate(1588.599655 0)"/>
     <use xlink:href="#NotoSansCJKsc-Regular-61" transform="translate(1643.999649 0)"/>
     <use xlink:href="#NotoSansCJKsc-Regular-72" transform="translate(1700.299637 0)"/>
     <use xlink:href="#NotoSansCJKsc-Regular-73" transform="translate(1739.099625 0)"/>
    </g>
   </g>
  </g>
 </g>
 <defs>
  <clipPath id="p07d8f069fa">
   <rect x="39.55" y="22.75125" width="669.6" height="332.64"/>
  </clipPath>
 </defs>
</svg>
