<?xml version="1.0" encoding="utf-8" standalone="no"?>
<!DOCTYPE svg PUBLIC "-//W3C//DTD SVG 1.1//EN"
  "http://www.w3.org/Graphics/SVG/1.1/DTD/svg11.dtd">
<svg xmlns:xlink="http://www.w3.org/1999/xlink" width="627.308462pt" height="490.554218pt" viewBox="0 0 627.308462 490.554218" xmlns="http://www.w3.org/2000/svg" version="1.1">
 <metadata>
  <rdf:RDF xmlns:dc="http://purl.org/dc/elements/1.1/" xmlns:cc="http://creativecommons.org/ns#" xmlns:rdf="http://www.w3.org/1999/02/22-rdf-syntax-ns#">
   <cc:Work>
    <dc:type rdf:resource="http://purl.org/dc/dcmitype/StillImage"/>
    <dc:date>2026-09-19T11:24:43.242700</dc:date>
    <dc:format>image/svg+xml</dc:format>
    <dc:creator>
     <cc:Agent>
      <dc:title>Matplotlib v3.10.8, https://matplotlib.org/</dc:title>
     </cc:Agent>
    </dc:creator>
   </cc:Work>
  </rdf:RDF>
 </metadata>
 <defs>
  <style type="text/css">*{stroke-linejoin: round; stroke-linecap: butt}</style>
 </defs>
 <g id="figure_1">
  <g id="patch_1">
   <path d="M 0 490.554218 
L 627.308462 490.554218 
L 627.308462 0 
L 0 0 
z
" style="fill: #ffffff"/>
  </g>
  <g id="axes_1">
   <g id="patch_2">
    <path d="M 45.1 355.54875 
L 603.1 355.54875 
L 603.1 22.90875 
L 45.1 22.90875 
z
" style="fill: #ffffff"/>
   </g>
   <g id="patch_3">
    <path d="M 50.68 355.54875 
L 95.32 355.54875 
L 95.32 354.403 
L 50.68 354.403 
z
" clip-path="url(#p8e56057d71)" style="fill: #492c68"/>
   </g>
   <g id="patch_4">
    <path d="M 106.48 355.54875 
L 151.12 355.54875 
L 151.12 350.392873 
L 106.48 350.392873 
z
" clip-path="url(#p8e56057d71)" style="fill: #4a477c"/>
   </g>
   <g id="patch_5">
    <path d="M 162.28 355.54875 
L 206.92 355.54875 
L 206.92 333.779491 
L 162.28 333.779491 
z
" clip-path="url(#p8e56057d71)" style="fill: #435a82"/>
   </g>
   <g id="patch_6">
    <path d="M 218.08 355.54875 
L 262.72 355.54875 
L 262.72 342.37262 
L 218.08 342.37262 
z
" clip-path="url(#p8e56057d71)" style="fill: #396b82"/>
   </g>
   <g id="patch_7">
    <path d="M 273.88 355.54875 
L 318.52 355.54875 
L 318.52 353.830124 
L 273.88 353.830124 
z
" clip-path="url(#p8e56057d71)" style="fill: #327a81"/>
   </g>
   <g id="patch_8">
    <path d="M 329.68 355.54875 
L 374.32 355.54875 
L 374.32 352.684374 
L 329.68 352.684374 
z
" clip-path="url(#p8e56057d71)" style="fill: #2e8b7e"/>
   </g>
   <g id="patch_9">
    <path d="M 385.48 355.54875 
L 430.12 355.54875 
L 430.12 354.975875 
L 385.48 354.975875 
z
" clip-path="url(#p8e56057d71)" style="fill: #3b9f7a"/>
   </g>
   <g id="patch_10">
    <path d="M 441.28 355.54875 
L 485.92 355.54875 
L 485.92 38.74875 
L 441.28 38.74875 
z
" clip-path="url(#p8e56057d71)" style="fill: #60b671"/>
   </g>
   <g id="patch_11">
    <path d="M 497.08 355.54875 
L 541.72 355.54875 
L 541.72 128.117285 
L 497.08 128.117285 
z
" clip-path="url(#p8e56057d71)" style="fill: #88c35b"/>
   </g>
   <g id="patch_12">
    <path d="M 552.88 355.54875 
L 597.52 355.54875 
L 597.52 353.257249 
L 552.88 353.257249 
z
" clip-path="url(#p8e56057d71)" style="fill: #b2c83b"/>
   </g>
   <g id="matplotlib.axis_1">
    <g id="xtick_1">
     <g id="line2d_1">
      <defs>
       <path id="me94ff29481" d="M 0 0 
L 0 3.5 
" style="stroke: #000000; stroke-width: 0.8"/>
      </defs>
      <g>
       <use xlink:href="#me94ff29481" x="73" y="355.54875" style="stroke: #000000; stroke-width: 0.8"/>
      </g>
     </g>
     <g id="text_1">
      <!-- Astrometry -->
      <g transform="translate(56.538775 405.001673) rotate(-45) scale(0.1 -0.1)">
       <defs>
        <path id="NotoSansCJKsc-Regular-41" d="M 26 0 
L 621 0 
L 1075 1434 
L 2790 1434 
L 3238 0 
L 3866 0 
L 2272 4691 
L 1613 4691 
L 26 0 
z
M 1222 1901 
L 1453 2624 
C 1619 3155 1773 3661 1920 4211 
L 1946 4211 
C 2099 3667 2246 3155 2419 2624 
L 2643 1901 
L 1222 1901 
z
" transform="scale(0.015625)"/>
        <path id="NotoSansCJKsc-Regular-73" d="M 1498 -83 
C 2317 -83 2758 384 2758 947 
C 2758 1606 2208 1811 1702 2003 
C 1312 2150 954 2278 954 2605 
C 954 2880 1158 3110 1600 3110 
C 1907 3110 2150 2976 2387 2803 
L 2669 3168 
C 2406 3386 2022 3565 1594 3565 
C 832 3565 397 3130 397 2579 
C 397 1984 922 1754 1408 1574 
C 1792 1434 2202 1267 2202 915 
C 2202 614 1978 371 1517 371 
C 1101 371 794 538 486 787 
L 205 397 
C 531 122 1005 -83 1498 -83 
z
" transform="scale(0.015625)"/>
        <path id="NotoSansCJKsc-Regular-74" d="M 1677 -83 
C 1894 -83 2125 -19 2323 45 
L 2208 486 
C 2093 435 1939 390 1811 390 
C 1408 390 1274 634 1274 1056 
L 1274 3002 
L 2221 3002 
L 2221 3475 
L 1274 3475 
L 1274 4454 
L 787 4454 
L 723 3475 
L 173 3443 
L 173 3002 
L 691 3002 
L 691 1075 
C 691 378 941 -83 1677 -83 
z
" transform="scale(0.015625)"/>
        <path id="NotoSansCJKsc-Regular-72" d="M 589 0 
L 1178 0 
L 1178 2234 
C 1408 2822 1760 3040 2048 3040 
C 2195 3040 2272 3021 2387 2982 
L 2496 3488 
C 2387 3546 2278 3565 2125 3565 
C 1741 3565 1382 3283 1139 2842 
L 1126 2842 
L 1069 3475 
L 589 3475 
L 589 0 
z
" transform="scale(0.015625)"/>
        <path id="NotoSansCJKsc-Regular-6f" d="M 1939 -83 
C 2790 -83 3546 582 3546 1734 
C 3546 2893 2790 3565 1939 3565 
C 1088 3565 333 2893 333 1734 
C 333 582 1088 -83 1939 -83 
z
M 1939 403 
C 1338 403 934 934 934 1734 
C 934 2534 1338 3072 1939 3072 
C 2541 3072 2950 2534 2950 1734 
C 2950 934 2541 403 1939 403 
z
" transform="scale(0.015625)"/>
        <path id="NotoSansCJKsc-Regular-6d" d="M 589 0 
L 1178 0 
L 1178 2522 
C 1491 2880 1786 3053 2048 3053 
C 2490 3053 2694 2778 2694 2125 
L 2694 0 
L 3277 0 
L 3277 2522 
C 3603 2880 3885 3053 4154 3053 
C 4595 3053 4800 2778 4800 2125 
L 4800 0 
L 5382 0 
L 5382 2202 
C 5382 3085 5043 3565 4333 3565 
C 3904 3565 3546 3290 3181 2899 
C 3040 3309 2758 3565 2221 3565 
C 1805 3565 1446 3302 1139 2970 
L 1126 2970 
L 1069 3475 
L 589 3475 
L 589 0 
z
" transform="scale(0.015625)"/>
        <path id="NotoSansCJKsc-Regular-65" d="M 1997 -83 
C 2464 -83 2835 70 3136 269 
L 2931 659 
C 2669 486 2400 384 2061 384 
C 1402 384 947 858 909 1600 
L 3251 1600 
C 3264 1690 3277 1805 3277 1933 
C 3277 2925 2778 3565 1888 3565 
C 1094 3565 333 2867 333 1734 
C 333 589 1069 -83 1997 -83 
z
M 902 2016 
C 973 2707 1408 3098 1901 3098 
C 2445 3098 2765 2720 2765 2016 
L 902 2016 
z
" transform="scale(0.015625)"/>
        <path id="NotoSansCJKsc-Regular-79" d="M 646 -1498 
C 1338 -1498 1702 -973 1946 -294 
L 3251 3475 
L 2682 3475 
L 2054 1549 
C 1965 1235 1862 883 1773 563 
L 1741 563 
C 1619 890 1504 1242 1395 1549 
L 691 3475 
L 83 3475 
L 1478 -6 
L 1402 -269 
C 1254 -698 1011 -1018 621 -1018 
C 525 -1018 422 -986 352 -960 
L 237 -1427 
C 346 -1472 486 -1498 646 -1498 
z
" transform="scale(0.015625)"/>
       </defs>
       <use xlink:href="#NotoSansCJKsc-Regular-41"/>
       <use xlink:href="#NotoSansCJKsc-Regular-73" transform="translate(60.799988 0)"/>
       <use xlink:href="#NotoSansCJKsc-Regular-74" transform="translate(107.599976 0)"/>
       <use xlink:href="#NotoSansCJKsc-Regular-72" transform="translate(145.299973 0)"/>
       <use xlink:href="#NotoSansCJKsc-Regular-6f" transform="translate(184.09996 0)"/>
       <use xlink:href="#NotoSansCJKsc-Regular-6d" transform="translate(244.699951 0)"/>
       <use xlink:href="#NotoSansCJKsc-Regular-65" transform="translate(337.299942 0)"/>
       <use xlink:href="#NotoSansCJKsc-Regular-74" transform="translate(392.699936 0)"/>
       <use xlink:href="#NotoSansCJKsc-Regular-72" transform="translate(430.399933 0)"/>
       <use xlink:href="#NotoSansCJKsc-Regular-79" transform="translate(469.199921 0)"/>
      </g>
     </g>
    </g>
    <g id="xtick_2">
     <g id="line2d_2">
      <g>
       <use xlink:href="#me94ff29481" x="128.8" y="355.54875" style="stroke: #000000; stroke-width: 0.8"/>
      </g>
     </g>
     <g id="text_2">
      <!-- Eclipse Timing Variations -->
      <g transform="translate(89.374378 450.888484) rotate(-45) scale(0.1 -0.1)">
       <defs>
        <path id="NotoSansCJKsc-Regular-45" d="M 646 0 
L 3418 0 
L 3418 506 
L 1235 506 
L 1235 2214 
L 3014 2214 
L 3014 2720 
L 1235 2720 
L 1235 4192 
L 3347 4192 
L 3347 4691 
L 646 4691 
L 646 0 
z
" transform="scale(0.015625)"/>
        <path id="NotoSansCJKsc-Regular-63" d="M 1958 -83 
C 2374 -83 2771 83 3085 352 
L 2829 749 
C 2611 557 2330 403 2010 403 
C 1370 403 934 934 934 1734 
C 934 2534 1395 3072 2029 3072 
C 2298 3072 2522 2950 2720 2771 
L 3014 3155 
C 2771 3373 2458 3565 2003 3565 
C 1107 3565 333 2893 333 1734 
C 333 582 1037 -83 1958 -83 
z
" transform="scale(0.015625)"/>
        <path id="NotoSansCJKsc-Regular-6c" d="M 1203 -83 
C 1363 -83 1459 -58 1542 -32 
L 1459 416 
C 1395 403 1370 403 1338 403 
C 1248 403 1178 474 1178 653 
L 1178 5094 
L 589 5094 
L 589 691 
C 589 198 768 -83 1203 -83 
z
" transform="scale(0.015625)"/>
        <path id="NotoSansCJKsc-Regular-69" d="M 589 0 
L 1178 0 
L 1178 3475 
L 589 3475 
L 589 0 
z
M 883 4192 
C 1114 4192 1274 4346 1274 4582 
C 1274 4806 1114 4960 883 4960 
C 653 4960 499 4806 499 4582 
C 499 4346 653 4192 883 4192 
z
" transform="scale(0.015625)"/>
        <path id="NotoSansCJKsc-Regular-70" d="M 589 -1466 
L 1178 -1466 
L 1178 -288 
L 1158 320 
C 1472 58 1805 -83 2118 -83 
C 2912 -83 3629 602 3629 1792 
C 3629 2867 3142 3565 2246 3565 
C 1843 3565 1453 3334 1139 3072 
L 1126 3072 
L 1069 3475 
L 589 3475 
L 589 -1466 
z
M 2022 410 
C 1792 410 1485 499 1178 768 
L 1178 2598 
C 1510 2906 1811 3072 2099 3072 
C 2765 3072 3021 2560 3021 1786 
C 3021 928 2598 410 2022 410 
z
" transform="scale(0.015625)"/>
        <path id="NotoSansCJKsc-Regular-20" transform="scale(0.015625)"/>
        <path id="NotoSansCJKsc-Regular-54" d="M 1619 0 
L 2214 0 
L 2214 4192 
L 3635 4192 
L 3635 4691 
L 198 4691 
L 198 4192 
L 1619 4192 
L 1619 0 
z
" transform="scale(0.015625)"/>
        <path id="NotoSansCJKsc-Regular-6e" d="M 589 0 
L 1178 0 
L 1178 2522 
C 1523 2874 1766 3053 2125 3053 
C 2586 3053 2784 2778 2784 2125 
L 2784 0 
L 3366 0 
L 3366 2202 
C 3366 3085 3034 3565 2304 3565 
C 1830 3565 1466 3302 1139 2970 
L 1126 2970 
L 1069 3475 
L 589 3475 
L 589 0 
z
" transform="scale(0.015625)"/>
        <path id="NotoSansCJKsc-Regular-67" d="M 1760 -1600 
C 2835 -1600 3520 -1043 3520 -397 
C 3520 179 3110 429 2310 429 
L 1626 429 
C 1158 429 1018 589 1018 806 
C 1018 998 1114 1114 1242 1222 
C 1395 1146 1587 1101 1754 1101 
C 2470 1101 3027 1568 3027 2310 
C 3027 2611 2912 2867 2746 3027 
L 3456 3027 
L 3456 3475 
L 2246 3475 
C 2125 3526 1952 3565 1754 3565 
C 1056 3565 454 3085 454 2323 
C 454 1907 678 1568 909 1389 
L 909 1363 
C 723 1235 525 1005 525 717 
C 525 442 659 256 838 147 
L 838 115 
C 512 -83 326 -371 326 -672 
C 326 -1267 915 -1600 1760 -1600 
z
M 1754 1498 
C 1357 1498 1018 1818 1018 2323 
C 1018 2835 1350 3136 1754 3136 
C 2170 3136 2496 2835 2496 2323 
C 2496 1818 2157 1498 1754 1498 
z
M 1843 -1197 
C 1210 -1197 838 -960 838 -589 
C 838 -390 941 -179 1190 0 
C 1344 -38 1510 -51 1638 -51 
L 2240 -51 
C 2701 -51 2944 -166 2944 -493 
C 2944 -851 2515 -1197 1843 -1197 
z
" transform="scale(0.015625)"/>
        <path id="NotoSansCJKsc-Regular-56" d="M 1504 0 
L 2189 0 
L 3680 4691 
L 3078 4691 
L 2323 2150 
C 2163 1600 2048 1152 1869 602 
L 1843 602 
C 1670 1152 1549 1600 1389 2150 
L 627 4691 
L 6 4691 
L 1504 0 
z
" transform="scale(0.015625)"/>
        <path id="NotoSansCJKsc-Regular-61" d="M 1389 -83 
C 1818 -83 2208 141 2541 416 
L 2560 416 
L 2611 0 
L 3091 0 
L 3091 2138 
C 3091 3002 2739 3565 1888 3565 
C 1325 3565 838 3315 525 3110 
L 749 2707 
C 1024 2893 1389 3078 1792 3078 
C 2362 3078 2509 2650 2509 2202 
C 1030 2035 378 1658 378 902 
C 378 275 806 -83 1389 -83 
z
M 1555 390 
C 1210 390 941 544 941 941 
C 941 1389 1338 1677 2509 1811 
L 2509 845 
C 2170 544 1888 390 1555 390 
z
" transform="scale(0.015625)"/>
       </defs>
       <use xlink:href="#NotoSansCJKsc-Regular-45"/>
       <use xlink:href="#NotoSansCJKsc-Regular-63" transform="translate(58.899994 0)"/>
       <use xlink:href="#NotoSansCJKsc-Regular-6c" transform="translate(109.899979 0)"/>
       <use xlink:href="#NotoSansCJKsc-Regular-69" transform="translate(138.299973 0)"/>
       <use xlink:href="#NotoSansCJKsc-Regular-70" transform="translate(165.799957 0)"/>
       <use xlink:href="#NotoSansCJKsc-Regular-73" transform="translate(227.799942 0)"/>
       <use xlink:href="#NotoSansCJKsc-Regular-65" transform="translate(274.59993 0)"/>
       <use xlink:href="#NotoSansCJKsc-Regular-20" transform="translate(329.999924 0)"/>
       <use xlink:href="#NotoSansCJKsc-Regular-54" transform="translate(352.399918 0)"/>
       <use xlink:href="#NotoSansCJKsc-Regular-69" transform="translate(412.299911 0)"/>
       <use xlink:href="#NotoSansCJKsc-Regular-6d" transform="translate(439.799896 0)"/>
       <use xlink:href="#NotoSansCJKsc-Regular-69" transform="translate(532.399887 0)"/>
       <use xlink:href="#NotoSansCJKsc-Regular-6e" transform="translate(559.899872 0)"/>
       <use xlink:href="#NotoSansCJKsc-Regular-67" transform="translate(620.899857 0)"/>
       <use xlink:href="#NotoSansCJKsc-Regular-20" transform="translate(677.29985 0)"/>
       <use xlink:href="#NotoSansCJKsc-Regular-56" transform="translate(699.699844 0)"/>
       <use xlink:href="#NotoSansCJKsc-Regular-61" transform="translate(757.199829 0)"/>
       <use xlink:href="#NotoSansCJKsc-Regular-72" transform="translate(813.499817 0)"/>
       <use xlink:href="#NotoSansCJKsc-Regular-69" transform="translate(852.299805 0)"/>
       <use xlink:href="#NotoSansCJKsc-Regular-61" transform="translate(879.799789 0)"/>
       <use xlink:href="#NotoSansCJKsc-Regular-74" transform="translate(936.099777 0)"/>
       <use xlink:href="#NotoSansCJKsc-Regular-69" transform="translate(973.799774 0)"/>
       <use xlink:href="#NotoSansCJKsc-Regular-6f" transform="translate(1001.299759 0)"/>
       <use xlink:href="#NotoSansCJKsc-Regular-6e" transform="translate(1061.89975 0)"/>
       <use xlink:href="#NotoSansCJKsc-Regular-73" transform="translate(1122.899734 0)"/>
      </g>
     </g>
    </g>
    <g id="xtick_3">
     <g id="line2d_3">
      <g>
       <use xlink:href="#me94ff29481" x="184.6" y="355.54875" style="stroke: #000000; stroke-width: 0.8"/>
      </g>
     </g>
     <g id="text_3">
      <!-- Imaging -->
      <g transform="translate(173.038804 394.86353) rotate(-45) scale(0.1 -0.1)">
       <defs>
        <path id="NotoSansCJKsc-Regular-49" d="M 646 0 
L 1235 0 
L 1235 4691 
L 646 4691 
L 646 0 
z
" transform="scale(0.015625)"/>
       </defs>
       <use xlink:href="#NotoSansCJKsc-Regular-49"/>
       <use xlink:href="#NotoSansCJKsc-Regular-6d" transform="translate(29.299988 0)"/>
       <use xlink:href="#NotoSansCJKsc-Regular-61" transform="translate(121.899979 0)"/>
       <use xlink:href="#NotoSansCJKsc-Regular-67" transform="translate(178.199966 0)"/>
       <use xlink:href="#NotoSansCJKsc-Regular-69" transform="translate(234.59996 0)"/>
       <use xlink:href="#NotoSansCJKsc-Regular-6e" transform="translate(262.099945 0)"/>
       <use xlink:href="#NotoSansCJKsc-Regular-67" transform="translate(323.09993 0)"/>
      </g>
     </g>
    </g>
    <g id="xtick_4">
     <g id="line2d_4">
      <g>
       <use xlink:href="#me94ff29481" x="240.4" y="355.54875" style="stroke: #000000; stroke-width: 0.8"/>
      </g>
     </g>
     <g id="text_4">
      <!-- Microlensing -->
      <g transform="translate(221.272209 410.292821) rotate(-45) scale(0.1 -0.1)">
       <defs>
        <path id="NotoSansCJKsc-Regular-4d" d="M 646 0 
L 1178 0 
L 1178 2598 
C 1178 3002 1139 3571 1101 3981 
L 1126 3981 
L 1504 2912 
L 2394 474 
L 2790 474 
L 3674 2912 
L 4051 3981 
L 4077 3981 
C 4045 3571 4000 3002 4000 2598 
L 4000 0 
L 4550 0 
L 4550 4691 
L 3840 4691 
L 2944 2182 
C 2835 1862 2739 1530 2618 1203 
L 2592 1203 
C 2477 1530 2374 1862 2253 2182 
L 1357 4691 
L 646 4691 
L 646 0 
z
" transform="scale(0.015625)"/>
       </defs>
       <use xlink:href="#NotoSansCJKsc-Regular-4d"/>
       <use xlink:href="#NotoSansCJKsc-Regular-69" transform="translate(81.199982 0)"/>
       <use xlink:href="#NotoSansCJKsc-Regular-63" transform="translate(108.699966 0)"/>
       <use xlink:href="#NotoSansCJKsc-Regular-72" transform="translate(159.699951 0)"/>
       <use xlink:href="#NotoSansCJKsc-Regular-6f" transform="translate(198.499939 0)"/>
       <use xlink:href="#NotoSansCJKsc-Regular-6c" transform="translate(259.09993 0)"/>
       <use xlink:href="#NotoSansCJKsc-Regular-65" transform="translate(287.499924 0)"/>
       <use xlink:href="#NotoSansCJKsc-Regular-6e" transform="translate(342.899918 0)"/>
       <use xlink:href="#NotoSansCJKsc-Regular-73" transform="translate(403.899902 0)"/>
       <use xlink:href="#NotoSansCJKsc-Regular-69" transform="translate(450.69989 0)"/>
       <use xlink:href="#NotoSansCJKsc-Regular-6e" transform="translate(478.199875 0)"/>
       <use xlink:href="#NotoSansCJKsc-Regular-67" transform="translate(539.19986 0)"/>
      </g>
     </g>
    </g>
    <g id="xtick_5">
     <g id="line2d_5">
      <g>
       <use xlink:href="#me94ff29481" x="296.2" y="355.54875" style="stroke: #000000; stroke-width: 0.8"/>
      </g>
     </g>
     <g id="text_5">
      <!-- Orbital Brightness Modulation -->
      <g transform="translate(248.550394 467.336451) rotate(-45) scale(0.1 -0.1)">
       <defs>
        <path id="NotoSansCJKsc-Regular-4f" d="M 2374 -83 
C 3552 -83 4378 858 4378 2362 
C 4378 3866 3552 4774 2374 4774 
C 1197 4774 371 3866 371 2362 
C 371 858 1197 -83 2374 -83 
z
M 2374 435 
C 1530 435 979 1190 979 2362 
C 979 3533 1530 4256 2374 4256 
C 3219 4256 3770 3533 3770 2362 
C 3770 1190 3219 435 2374 435 
z
" transform="scale(0.015625)"/>
        <path id="NotoSansCJKsc-Regular-62" d="M 2118 -83 
C 2912 -83 3629 602 3629 1792 
C 3629 2867 3142 3565 2246 3565 
C 1856 3565 1472 3347 1152 3078 
L 1178 3699 
L 1178 5094 
L 589 5094 
L 589 0 
L 1056 0 
L 1107 358 
L 1133 358 
C 1434 83 1798 -83 2118 -83 
z
M 2022 410 
C 1792 410 1478 499 1178 768 
L 1178 2598 
C 1504 2906 1811 3072 2099 3072 
C 2765 3072 3021 2560 3021 1786 
C 3021 928 2598 410 2022 410 
z
" transform="scale(0.015625)"/>
        <path id="NotoSansCJKsc-Regular-42" d="M 646 0 
L 2138 0 
C 3187 0 3917 454 3917 1376 
C 3917 2016 3520 2387 2963 2496 
L 2963 2528 
C 3405 2669 3648 3078 3648 3546 
C 3648 4371 2982 4691 2035 4691 
L 646 4691 
L 646 0 
z
M 1235 2701 
L 1235 4224 
L 1958 4224 
C 2694 4224 3066 4019 3066 3469 
C 3066 2989 2739 2701 1933 2701 
L 1235 2701 
z
M 1235 474 
L 1235 2240 
L 2054 2240 
C 2880 2240 3334 1978 3334 1395 
C 3334 762 2861 474 2054 474 
L 1235 474 
z
" transform="scale(0.015625)"/>
        <path id="NotoSansCJKsc-Regular-68" d="M 589 0 
L 1178 0 
L 1178 2522 
C 1523 2874 1766 3053 2125 3053 
C 2586 3053 2784 2778 2784 2125 
L 2784 0 
L 3366 0 
L 3366 2202 
C 3366 3085 3034 3565 2304 3565 
C 1830 3565 1472 3302 1152 2982 
L 1178 3699 
L 1178 5094 
L 589 5094 
L 589 0 
z
" transform="scale(0.015625)"/>
        <path id="NotoSansCJKsc-Regular-64" d="M 1773 -83 
C 2189 -83 2560 141 2829 410 
L 2848 410 
L 2899 0 
L 3379 0 
L 3379 5094 
L 2790 5094 
L 2790 3757 
L 2822 3162 
C 2515 3411 2253 3565 1843 3565 
C 1050 3565 339 2861 339 1734 
C 339 576 902 -83 1773 -83 
z
M 1901 410 
C 1293 410 941 902 941 1741 
C 941 2534 1389 3072 1946 3072 
C 2234 3072 2502 2970 2790 2707 
L 2790 883 
C 2502 563 2221 410 1901 410 
z
" transform="scale(0.015625)"/>
        <path id="NotoSansCJKsc-Regular-75" d="M 1606 -83 
C 2080 -83 2426 166 2752 544 
L 2771 544 
L 2816 0 
L 3302 0 
L 3302 3475 
L 2720 3475 
L 2720 1011 
C 2387 602 2138 422 1779 422 
C 1318 422 1126 698 1126 1344 
L 1126 3475 
L 538 3475 
L 538 1274 
C 538 384 870 -83 1606 -83 
z
" transform="scale(0.015625)"/>
       </defs>
       <use xlink:href="#NotoSansCJKsc-Regular-4f"/>
       <use xlink:href="#NotoSansCJKsc-Regular-72" transform="translate(74.199982 0)"/>
       <use xlink:href="#NotoSansCJKsc-Regular-62" transform="translate(112.999969 0)"/>
       <use xlink:href="#NotoSansCJKsc-Regular-69" transform="translate(174.799957 0)"/>
       <use xlink:href="#NotoSansCJKsc-Regular-74" transform="translate(202.299942 0)"/>
       <use xlink:href="#NotoSansCJKsc-Regular-61" transform="translate(239.999939 0)"/>
       <use xlink:href="#NotoSansCJKsc-Regular-6c" transform="translate(296.299927 0)"/>
       <use xlink:href="#NotoSansCJKsc-Regular-20" transform="translate(324.699921 0)"/>
       <use xlink:href="#NotoSansCJKsc-Regular-42" transform="translate(347.099915 0)"/>
       <use xlink:href="#NotoSansCJKsc-Regular-72" transform="translate(412.799911 0)"/>
       <use xlink:href="#NotoSansCJKsc-Regular-69" transform="translate(451.599899 0)"/>
       <use xlink:href="#NotoSansCJKsc-Regular-67" transform="translate(479.099884 0)"/>
       <use xlink:href="#NotoSansCJKsc-Regular-68" transform="translate(535.499878 0)"/>
       <use xlink:href="#NotoSansCJKsc-Regular-74" transform="translate(596.199875 0)"/>
       <use xlink:href="#NotoSansCJKsc-Regular-6e" transform="translate(633.899872 0)"/>
       <use xlink:href="#NotoSansCJKsc-Regular-65" transform="translate(694.899857 0)"/>
       <use xlink:href="#NotoSansCJKsc-Regular-73" transform="translate(750.29985 0)"/>
       <use xlink:href="#NotoSansCJKsc-Regular-73" transform="translate(797.099838 0)"/>
       <use xlink:href="#NotoSansCJKsc-Regular-20" transform="translate(843.899826 0)"/>
       <use xlink:href="#NotoSansCJKsc-Regular-4d" transform="translate(866.29982 0)"/>
       <use xlink:href="#NotoSansCJKsc-Regular-6f" transform="translate(947.499802 0)"/>
       <use xlink:href="#NotoSansCJKsc-Regular-64" transform="translate(1008.099792 0)"/>
       <use xlink:href="#NotoSansCJKsc-Regular-75" transform="translate(1070.099777 0)"/>
       <use xlink:href="#NotoSansCJKsc-Regular-6c" transform="translate(1130.799774 0)"/>
       <use xlink:href="#NotoSansCJKsc-Regular-61" transform="translate(1159.199768 0)"/>
       <use xlink:href="#NotoSansCJKsc-Regular-74" transform="translate(1215.499756 0)"/>
       <use xlink:href="#NotoSansCJKsc-Regular-69" transform="translate(1253.199753 0)"/>
       <use xlink:href="#NotoSansCJKsc-Regular-6f" transform="translate(1280.699738 0)"/>
       <use xlink:href="#NotoSansCJKsc-Regular-6e" transform="translate(1341.299728 0)"/>
      </g>
     </g>
    </g>
    <g id="xtick_6">
     <g id="line2d_6">
      <g>
       <use xlink:href="#me94ff29481" x="352" y="355.54875" style="stroke: #000000; stroke-width: 0.8"/>
      </g>
     </g>
     <g id="text_6">
      <!-- Pulsar Timing -->
      <g transform="translate(331.245864 413.545512) rotate(-45) scale(0.1 -0.1)">
       <defs>
        <path id="NotoSansCJKsc-Regular-50" d="M 646 0 
L 1235 0 
L 1235 1869 
L 2010 1869 
C 3040 1869 3738 2323 3738 3315 
C 3738 4339 3034 4691 1984 4691 
L 646 4691 
L 646 0 
z
M 1235 2349 
L 1235 4211 
L 1907 4211 
C 2733 4211 3149 4000 3149 3315 
C 3149 2643 2758 2349 1933 2349 
L 1235 2349 
z
" transform="scale(0.015625)"/>
       </defs>
       <use xlink:href="#NotoSansCJKsc-Regular-50"/>
       <use xlink:href="#NotoSansCJKsc-Regular-75" transform="translate(63.299988 0)"/>
       <use xlink:href="#NotoSansCJKsc-Regular-6c" transform="translate(123.999985 0)"/>
       <use xlink:href="#NotoSansCJKsc-Regular-73" transform="translate(152.399979 0)"/>
       <use xlink:href="#NotoSansCJKsc-Regular-61" transform="translate(199.199966 0)"/>
       <use xlink:href="#NotoSansCJKsc-Regular-72" transform="translate(255.499954 0)"/>
       <use xlink:href="#NotoSansCJKsc-Regular-20" transform="translate(294.299942 0)"/>
       <use xlink:href="#NotoSansCJKsc-Regular-54" transform="translate(316.699936 0)"/>
       <use xlink:href="#NotoSansCJKsc-Regular-69" transform="translate(376.59993 0)"/>
       <use xlink:href="#NotoSansCJKsc-Regular-6d" transform="translate(404.099915 0)"/>
       <use xlink:href="#NotoSansCJKsc-Regular-69" transform="translate(496.699905 0)"/>
       <use xlink:href="#NotoSansCJKsc-Regular-6e" transform="translate(524.19989 0)"/>
       <use xlink:href="#NotoSansCJKsc-Regular-67" transform="translate(585.199875 0)"/>
      </g>
     </g>
    </g>
    <g id="xtick_7">
     <g id="line2d_7">
      <g>
       <use xlink:href="#me94ff29481" x="407.8" y="355.54875" style="stroke: #000000; stroke-width: 0.8"/>
      </g>
     </g>
     <g id="text_7">
      <!-- Pulsation Timing Variations -->
      <g transform="translate(364.404636 458.827967) rotate(-45) scale(0.1 -0.1)">
       <use xlink:href="#NotoSansCJKsc-Regular-50"/>
       <use xlink:href="#NotoSansCJKsc-Regular-75" transform="translate(63.299988 0)"/>
       <use xlink:href="#NotoSansCJKsc-Regular-6c" transform="translate(123.999985 0)"/>
       <use xlink:href="#NotoSansCJKsc-Regular-73" transform="translate(152.399979 0)"/>
       <use xlink:href="#NotoSansCJKsc-Regular-61" transform="translate(199.199966 0)"/>
       <use xlink:href="#NotoSansCJKsc-Regular-74" transform="translate(255.499954 0)"/>
       <use xlink:href="#NotoSansCJKsc-Regular-69" transform="translate(293.199951 0)"/>
       <use xlink:href="#NotoSansCJKsc-Regular-6f" transform="translate(320.699936 0)"/>
       <use xlink:href="#NotoSansCJKsc-Regular-6e" transform="translate(381.299927 0)"/>
       <use xlink:href="#NotoSansCJKsc-Regular-20" transform="translate(442.299911 0)"/>
       <use xlink:href="#NotoSansCJKsc-Regular-54" transform="translate(464.699905 0)"/>
       <use xlink:href="#NotoSansCJKsc-Regular-69" transform="translate(524.599899 0)"/>
       <use xlink:href="#NotoSansCJKsc-Regular-6d" transform="translate(552.099884 0)"/>
       <use xlink:href="#NotoSansCJKsc-Regular-69" transform="translate(644.699875 0)"/>
       <use xlink:href="#NotoSansCJKsc-Regular-6e" transform="translate(672.19986 0)"/>
       <use xlink:href="#NotoSansCJKsc-Regular-67" transform="translate(733.199844 0)"/>
       <use xlink:href="#NotoSansCJKsc-Regular-20" transform="translate(789.599838 0)"/>
       <use xlink:href="#NotoSansCJKsc-Regular-56" transform="translate(811.999832 0)"/>
       <use xlink:href="#NotoSansCJKsc-Regular-61" transform="translate(869.499817 0)"/>
       <use xlink:href="#NotoSansCJKsc-Regular-72" transform="translate(925.799805 0)"/>
       <use xlink:href="#NotoSansCJKsc-Regular-69" transform="translate(964.599792 0)"/>
       <use xlink:href="#NotoSansCJKsc-Regular-61" transform="translate(992.099777 0)"/>
       <use xlink:href="#NotoSansCJKsc-Regular-74" transform="translate(1048.399765 0)"/>
       <use xlink:href="#NotoSansCJKsc-Regular-69" transform="translate(1086.099762 0)"/>
       <use xlink:href="#NotoSansCJKsc-Regular-6f" transform="translate(1113.599747 0)"/>
       <use xlink:href="#NotoSansCJKsc-Regular-6e" transform="translate(1174.199738 0)"/>
       <use xlink:href="#NotoSansCJKsc-Regular-73" transform="translate(1235.199722 0)"/>
      </g>
     </g>
    </g>
    <g id="xtick_8">
     <g id="line2d_8">
      <g>
       <use xlink:href="#me94ff29481" x="463.6" y="355.54875" style="stroke: #000000; stroke-width: 0.8"/>
      </g>
     </g>
     <g id="text_8">
      <!-- Radial Velocity -->
      <g transform="translate(441.311221 416.727493) rotate(-45) scale(0.1 -0.1)">
       <defs>
        <path id="NotoSansCJKsc-Regular-52" d="M 1235 2464 
L 1235 4211 
L 2022 4211 
C 2758 4211 3162 3994 3162 3379 
C 3162 2765 2758 2464 2022 2464 
L 1235 2464 
z
M 3219 0 
L 3885 0 
L 2694 2054 
C 3328 2208 3750 2643 3750 3379 
C 3750 4352 3066 4691 2112 4691 
L 646 4691 
L 646 0 
L 1235 0 
L 1235 1990 
L 2080 1990 
L 3219 0 
z
" transform="scale(0.015625)"/>
       </defs>
       <use xlink:href="#NotoSansCJKsc-Regular-52"/>
       <use xlink:href="#NotoSansCJKsc-Regular-61" transform="translate(63.499985 0)"/>
       <use xlink:href="#NotoSansCJKsc-Regular-64" transform="translate(119.799973 0)"/>
       <use xlink:href="#NotoSansCJKsc-Regular-69" transform="translate(181.799957 0)"/>
       <use xlink:href="#NotoSansCJKsc-Regular-61" transform="translate(209.299942 0)"/>
       <use xlink:href="#NotoSansCJKsc-Regular-6c" transform="translate(265.59993 0)"/>
       <use xlink:href="#NotoSansCJKsc-Regular-20" transform="translate(293.999924 0)"/>
       <use xlink:href="#NotoSansCJKsc-Regular-56" transform="translate(316.399918 0)"/>
       <use xlink:href="#NotoSansCJKsc-Regular-65" transform="translate(373.899902 0)"/>
       <use xlink:href="#NotoSansCJKsc-Regular-6c" transform="translate(429.299896 0)"/>
       <use xlink:href="#NotoSansCJKsc-Regular-6f" transform="translate(457.69989 0)"/>
       <use xlink:href="#NotoSansCJKsc-Regular-63" transform="translate(518.299881 0)"/>
       <use xlink:href="#NotoSansCJKsc-Regular-69" transform="translate(569.299866 0)"/>
       <use xlink:href="#NotoSansCJKsc-Regular-74" transform="translate(596.79985 0)"/>
       <use xlink:href="#NotoSansCJKsc-Regular-79" transform="translate(634.499847 0)"/>
      </g>
     </g>
    </g>
    <g id="xtick_9">
     <g id="line2d_9">
      <g>
       <use xlink:href="#me94ff29481" x="519.4" y="355.54875" style="stroke: #000000; stroke-width: 0.8"/>
      </g>
     </g>
     <g id="text_9">
      <!-- Transit -->
      <g transform="translate(509.807655 391.36998) rotate(-45) scale(0.1 -0.1)">
       <use xlink:href="#NotoSansCJKsc-Regular-54"/>
       <use xlink:href="#NotoSansCJKsc-Regular-72" transform="translate(59.899994 0)"/>
       <use xlink:href="#NotoSansCJKsc-Regular-61" transform="translate(98.699982 0)"/>
       <use xlink:href="#NotoSansCJKsc-Regular-6e" transform="translate(154.999969 0)"/>
       <use xlink:href="#NotoSansCJKsc-Regular-73" transform="translate(215.999954 0)"/>
       <use xlink:href="#NotoSansCJKsc-Regular-69" transform="translate(262.799942 0)"/>
       <use xlink:href="#NotoSansCJKsc-Regular-74" transform="translate(290.299927 0)"/>
      </g>
     </g>
    </g>
    <g id="xtick_10">
     <g id="line2d_10">
      <g>
       <use xlink:href="#me94ff29481" x="575.2" y="355.54875" style="stroke: #000000; stroke-width: 0.8"/>
      </g>
     </g>
     <g id="text_10">
      <!-- Transit Timing Variations -->
      <g transform="translate(535.771615 450.597907) rotate(-45) scale(0.1 -0.1)">
       <use xlink:href="#NotoSansCJKsc-Regular-54"/>
       <use xlink:href="#NotoSansCJKsc-Regular-72" transform="translate(59.899994 0)"/>
       <use xlink:href="#NotoSansCJKsc-Regular-61" transform="translate(98.699982 0)"/>
       <use xlink:href="#NotoSansCJKsc-Regular-6e" transform="translate(154.999969 0)"/>
       <use xlink:href="#NotoSansCJKsc-Regular-73" transform="translate(215.999954 0)"/>
       <use xlink:href="#NotoSansCJKsc-Regular-69" transform="translate(262.799942 0)"/>
       <use xlink:href="#NotoSansCJKsc-Regular-74" transform="translate(290.299927 0)"/>
       <use xlink:href="#NotoSansCJKsc-Regular-20" transform="translate(327.999924 0)"/>
       <use xlink:href="#NotoSansCJKsc-Regular-54" transform="translate(350.399918 0)"/>
       <use xlink:href="#NotoSansCJKsc-Regular-69" transform="translate(410.299911 0)"/>
       <use xlink:href="#NotoSansCJKsc-Regular-6d" transform="translate(437.799896 0)"/>
       <use xlink:href="#NotoSansCJKsc-Regular-69" transform="translate(530.399887 0)"/>
       <use xlink:href="#NotoSansCJKsc-Regular-6e" transform="translate(557.899872 0)"/>
       <use xlink:href="#NotoSansCJKsc-Regular-67" transform="translate(618.899857 0)"/>
       <use xlink:href="#NotoSansCJKsc-Regular-20" transform="translate(675.29985 0)"/>
       <use xlink:href="#NotoSansCJKsc-Regular-56" transform="translate(697.699844 0)"/>
       <use xlink:href="#NotoSansCJKsc-Regular-61" transform="translate(755.199829 0)"/>
       <use xlink:href="#NotoSansCJKsc-Regular-72" transform="translate(811.499817 0)"/>
       <use xlink:href="#NotoSansCJKsc-Regular-69" transform="translate(850.299805 0)"/>
       <use xlink:href="#NotoSansCJKsc-Regular-61" transform="translate(877.799789 0)"/>
       <use xlink:href="#NotoSansCJKsc-Regular-74" transform="translate(934.099777 0)"/>
       <use xlink:href="#NotoSansCJKsc-Regular-69" transform="translate(971.799774 0)"/>
       <use xlink:href="#NotoSansCJKsc-Regular-6f" transform="translate(999.299759 0)"/>
       <use xlink:href="#NotoSansCJKsc-Regular-6e" transform="translate(1059.89975 0)"/>
       <use xlink:href="#NotoSansCJKsc-Regular-73" transform="translate(1120.899734 0)"/>
      </g>
     </g>
    </g>
    <g id="text_11">
     <!-- Method -->
     <g transform="translate(306.219531 481.063593) scale(0.1 -0.1)">
      <use xlink:href="#NotoSansCJKsc-Regular-4d"/>
      <use xlink:href="#NotoSansCJKsc-Regular-65" transform="translate(81.199982 0)"/>
      <use xlink:href="#NotoSansCJKsc-Regular-74" transform="translate(136.599976 0)"/>
      <use xlink:href="#NotoSansCJKsc-Regular-68" transform="translate(174.299973 0)"/>
      <use xlink:href="#NotoSansCJKsc-Regular-6f" transform="translate(234.999969 0)"/>
      <use xlink:href="#NotoSansCJKsc-Regular-64" transform="translate(295.59996 0)"/>
     </g>
    </g>
   </g>
   <g id="matplotlib.axis_2">
    <g id="ytick_1">
     <g id="line2d_11">
      <defs>
       <path id="mf2dd956176" d="M 0 0 
L -3.5 0 
" style="stroke: #000000; stroke-width: 0.8"/>
      </defs>
      <g>
       <use xlink:href="#mf2dd956176" x="45.1" y="355.54875" style="stroke: #000000; stroke-width: 0.8"/>
      </g>
     </g>
     <g id="text_12">
      <!-- 0 -->
      <g transform="translate(32.55 359.528437) scale(0.1 -0.1)">
       <defs>
        <path id="NotoSansCJKsc-Regular-30" d="M 1779 -83 
C 2669 -83 3238 723 3238 2362 
C 3238 3987 2669 4774 1779 4774 
C 883 4774 320 3987 320 2362 
C 320 723 883 -83 1779 -83 
z
M 1779 390 
C 1248 390 883 986 883 2362 
C 883 3731 1248 4314 1779 4314 
C 2310 4314 2675 3731 2675 2362 
C 2675 986 2310 390 1779 390 
z
" transform="scale(0.015625)"/>
       </defs>
       <use xlink:href="#NotoSansCJKsc-Regular-30"/>
      </g>
     </g>
    </g>
    <g id="ytick_2">
     <g id="line2d_12">
      <g>
       <use xlink:href="#mf2dd956176" x="45.1" y="298.261227" style="stroke: #000000; stroke-width: 0.8"/>
      </g>
     </g>
     <g id="text_13">
      <!-- 100 -->
      <g transform="translate(21.45 302.240915) scale(0.1 -0.1)">
       <defs>
        <path id="NotoSansCJKsc-Regular-31" d="M 563 0 
L 3136 0 
L 3136 486 
L 2195 486 
L 2195 4691 
L 1747 4691 
C 1491 4544 1190 4435 774 4358 
L 774 3987 
L 1613 3987 
L 1613 486 
L 563 486 
L 563 0 
z
" transform="scale(0.015625)"/>
       </defs>
       <use xlink:href="#NotoSansCJKsc-Regular-31"/>
       <use xlink:href="#NotoSansCJKsc-Regular-30" transform="translate(55.499985 0)"/>
       <use xlink:href="#NotoSansCJKsc-Regular-30" transform="translate(110.999969 0)"/>
      </g>
     </g>
    </g>
    <g id="ytick_3">
     <g id="line2d_13">
      <g>
       <use xlink:href="#mf2dd956176" x="45.1" y="240.973705" style="stroke: #000000; stroke-width: 0.8"/>
      </g>
     </g>
     <g id="text_14">
      <!-- 200 -->
      <g transform="translate(21.45 244.953392) scale(0.1 -0.1)">
       <defs>
        <path id="NotoSansCJKsc-Regular-32" d="M 282 0 
L 3232 0 
L 3232 506 
L 1933 506 
C 1696 506 1408 480 1165 461 
C 2266 1504 3008 2458 3008 3398 
C 3008 4230 2477 4774 1638 4774 
C 1043 4774 634 4506 256 4090 
L 595 3757 
C 858 4070 1184 4301 1568 4301 
C 2150 4301 2432 3910 2432 3373 
C 2432 2566 1754 1632 282 346 
L 282 0 
z
" transform="scale(0.015625)"/>
       </defs>
       <use xlink:href="#NotoSansCJKsc-Regular-32"/>
       <use xlink:href="#NotoSansCJKsc-Regular-30" transform="translate(55.499985 0)"/>
       <use xlink:href="#NotoSansCJKsc-Regular-30" transform="translate(110.999969 0)"/>
      </g>
     </g>
    </g>
    <g id="ytick_4">
     <g id="line2d_14">
      <g>
       <use xlink:href="#mf2dd956176" x="45.1" y="183.686182" style="stroke: #000000; stroke-width: 0.8"/>
      </g>
     </g>
     <g id="text_15">
      <!-- 300 -->
      <g transform="translate(21.45 187.66587) scale(0.1 -0.1)">
       <defs>
        <path id="NotoSansCJKsc-Regular-33" d="M 1683 -83 
C 2522 -83 3194 416 3194 1254 
C 3194 1901 2752 2310 2202 2445 
L 2202 2477 
C 2701 2650 3034 3034 3034 3603 
C 3034 4346 2458 4774 1664 4774 
C 1126 4774 710 4538 358 4218 
L 672 3846 
C 941 4115 1267 4301 1645 4301 
C 2138 4301 2438 4006 2438 3558 
C 2438 3053 2112 2662 1139 2662 
L 1139 2214 
C 2227 2214 2598 1843 2598 1274 
C 2598 736 2208 403 1645 403 
C 1114 403 762 659 486 941 
L 186 563 
C 493 224 954 -83 1683 -83 
z
" transform="scale(0.015625)"/>
       </defs>
       <use xlink:href="#NotoSansCJKsc-Regular-33"/>
       <use xlink:href="#NotoSansCJKsc-Regular-30" transform="translate(55.499985 0)"/>
       <use xlink:href="#NotoSansCJKsc-Regular-30" transform="translate(110.999969 0)"/>
      </g>
     </g>
    </g>
    <g id="ytick_5">
     <g id="line2d_15">
      <g>
       <use xlink:href="#mf2dd956176" x="45.1" y="126.39866" style="stroke: #000000; stroke-width: 0.8"/>
      </g>
     </g>
     <g id="text_16">
      <!-- 400 -->
      <g transform="translate(21.45 130.378347) scale(0.1 -0.1)">
       <defs>
        <path id="NotoSansCJKsc-Regular-34" d="M 2176 0 
L 2726 0 
L 2726 1293 
L 3354 1293 
L 3354 1760 
L 2726 1760 
L 2726 4691 
L 2080 4691 
L 128 1677 
L 128 1293 
L 2176 1293 
L 2176 0 
z
M 2176 1760 
L 736 1760 
L 1805 3360 
C 1939 3590 2067 3827 2182 4051 
L 2208 4051 
C 2195 3814 2176 3430 2176 3200 
L 2176 1760 
z
" transform="scale(0.015625)"/>
       </defs>
       <use xlink:href="#NotoSansCJKsc-Regular-34"/>
       <use xlink:href="#NotoSansCJKsc-Regular-30" transform="translate(55.499985 0)"/>
       <use xlink:href="#NotoSansCJKsc-Regular-30" transform="translate(110.999969 0)"/>
      </g>
     </g>
    </g>
    <g id="ytick_6">
     <g id="line2d_16">
      <g>
       <use xlink:href="#mf2dd956176" x="45.1" y="69.111137" style="stroke: #000000; stroke-width: 0.8"/>
      </g>
     </g>
     <g id="text_17">
      <!-- 500 -->
      <g transform="translate(21.45 73.090824) scale(0.1 -0.1)">
       <defs>
        <path id="NotoSansCJKsc-Regular-35" d="M 1677 -83 
C 2464 -83 3213 499 3213 1523 
C 3213 2560 2573 3021 1798 3021 
C 1517 3021 1306 2950 1094 2835 
L 1216 4192 
L 2982 4192 
L 2982 4691 
L 704 4691 
L 550 2502 
L 864 2304 
C 1133 2483 1331 2579 1645 2579 
C 2234 2579 2618 2182 2618 1510 
C 2618 826 2176 403 1619 403 
C 1075 403 730 653 467 922 
L 173 538 
C 493 224 941 -83 1677 -83 
z
" transform="scale(0.015625)"/>
       </defs>
       <use xlink:href="#NotoSansCJKsc-Regular-35"/>
       <use xlink:href="#NotoSansCJKsc-Regular-30" transform="translate(55.499985 0)"/>
       <use xlink:href="#NotoSansCJKsc-Regular-30" transform="translate(110.999969 0)"/>
      </g>
     </g>
    </g>
    <g id="text_18">
     <!-- Number of Planets -->
     <g transform="translate(15.159375 232.649062) rotate(-90) scale(0.1 -0.1)">
      <defs>
       <path id="NotoSansCJKsc-Regular-4e" d="M 646 0 
L 1203 0 
L 1203 2464 
C 1203 2957 1158 3456 1133 3930 
L 1158 3930 
L 1664 2963 
L 3373 0 
L 3981 0 
L 3981 4691 
L 3418 4691 
L 3418 2253 
C 3418 1766 3462 1235 3501 768 
L 3469 768 
L 2963 1734 
L 1248 4691 
L 646 4691 
L 646 0 
z
" transform="scale(0.015625)"/>
       <path id="NotoSansCJKsc-Regular-66" d="M 211 3002 
L 685 3002 
L 685 0 
L 1267 0 
L 1267 3002 
L 2003 3002 
L 2003 3475 
L 1267 3475 
L 1267 4026 
C 1267 4474 1427 4710 1760 4710 
C 1882 4710 2022 4678 2150 4614 
L 2278 5069 
C 2118 5133 1914 5178 1696 5178 
C 1005 5178 685 4736 685 4032 
L 685 3475 
L 211 3443 
L 211 3002 
z
" transform="scale(0.015625)"/>
      </defs>
      <use xlink:href="#NotoSansCJKsc-Regular-4e"/>
      <use xlink:href="#NotoSansCJKsc-Regular-75" transform="translate(72.299988 0)"/>
      <use xlink:href="#NotoSansCJKsc-Regular-6d" transform="translate(132.999985 0)"/>
      <use xlink:href="#NotoSansCJKsc-Regular-62" transform="translate(225.599976 0)"/>
      <use xlink:href="#NotoSansCJKsc-Regular-65" transform="translate(287.399963 0)"/>
      <use xlink:href="#NotoSansCJKsc-Regular-72" transform="translate(342.799957 0)"/>
      <use xlink:href="#NotoSansCJKsc-Regular-20" transform="translate(381.599945 0)"/>
      <use xlink:href="#NotoSansCJKsc-Regular-6f" transform="translate(403.999939 0)"/>
      <use xlink:href="#NotoSansCJKsc-Regular-66" transform="translate(464.59993 0)"/>
      <use xlink:href="#NotoSansCJKsc-Regular-20" transform="translate(497.099915 0)"/>
      <use xlink:href="#NotoSansCJKsc-Regular-50" transform="translate(519.499908 0)"/>
      <use xlink:href="#NotoSansCJKsc-Regular-6c" transform="translate(582.799896 0)"/>
      <use xlink:href="#NotoSansCJKsc-Regular-61" transform="translate(611.19989 0)"/>
      <use xlink:href="#NotoSansCJKsc-Regular-6e" transform="translate(667.499878 0)"/>
      <use xlink:href="#NotoSansCJKsc-Regular-65" transform="translate(728.499863 0)"/>
      <use xlink:href="#NotoSansCJKsc-Regular-74" transform="translate(783.899857 0)"/>
      <use xlink:href="#NotoSansCJKsc-Regular-73" transform="translate(821.599854 0)"/>
     </g>
    </g>
   </g>
   <g id="line2d_17">
    <path clip-path="url(#p8e56057d71)" style="fill: none; stroke: #424242; stroke-width: 2.25; stroke-linecap: square"/>
   </g>
   <g id="line2d_18">
    <path clip-path="url(#p8e56057d71)" style="fill: none; stroke: #424242; stroke-width: 2.25; stroke-linecap: square"/>
   </g>
   <g id="line2d_19">
    <path clip-path="url(#p8e56057d71)" style="fill: none; stroke: #424242; stroke-width: 2.25; stroke-linecap: square"/>
   </g>
   <g id="line2d_20">
    <path clip-path="url(#p8e56057d71)" style="fill: none; stroke: #424242; stroke-width: 2.25; stroke-linecap: square"/>
   </g>
   <g id="line2d_21">
    <path clip-path="url(#p8e56057d71)" style="fill: none; stroke: #424242; stroke-width: 2.25; stroke-linecap: square"/>
   </g>
   <g id="line2d_22">
    <path clip-path="url(#p8e56057d71)" style="fill: none; stroke: #424242; stroke-width: 2.25; stroke-linecap: square"/>
   </g>
   <g id="line2d_23">
    <path clip-path="url(#p8e56057d71)" style="fill: none; stroke: #424242; stroke-width: 2.25; stroke-linecap: square"/>
   </g>
   <g id="line2d_24">
    <path clip-path="url(#p8e56057d71)" style="fill: none; stroke: #424242; stroke-width: 2.25; stroke-linecap: square"/>
   </g>
   <g id="line2d_25">
    <path clip-path="url(#p8e56057d71)" style="fill: none; stroke: #424242; stroke-width: 2.25; stroke-linecap: square"/>
   </g>
   <g id="line2d_26">
    <path clip-path="url(#p8e56057d71)" style="fill: none; stroke: #424242; stroke-width: 2.25; stroke-linecap: square"/>
   </g>
   <g id="patch_13">
    <path d="M 45.1 355.54875 
L 45.1 22.90875 
" style="fill: none; stroke: #000000; stroke-width: 0.8; stroke-linejoin: miter; stroke-linecap: square"/>
   </g>
   <g id="patch_14">
    <path d="M 603.1 355.54875 
L 603.1 22.90875 
" style="fill: none; stroke: #000000; stroke-width: 0.8; stroke-linejoin: miter; stroke-linecap: square"/>
   </g>
   <g id="patch_15">
    <path d="M 45.1 355.54875 
L 603.1 355.54875 
" style="fill: none; stroke: #000000; stroke-width: 0.8; stroke-linejoin: miter; stroke-linecap: square"/>
   </g>
   <g id="patch_16">
    <path d="M 45.1 22.90875 
L 603.1 22.90875 
" style="fill: none; stroke: #000000; stroke-width: 0.8; stroke-linejoin: miter; stroke-linecap: square"/>
   </g>
   <g id="text_19">
    <!-- Number of Planets by Method -->
    <g transform="translate(241.016875 16.90875) scale(0.12 -0.12)">
     <use xlink:href="#NotoSansCJKsc-Regular-4e"/>
     <use xlink:href="#NotoSansCJKsc-Regular-75" transform="translate(72.299988 0)"/>
     <use xlink:href="#NotoSansCJKsc-Regular-6d" transform="translate(132.999985 0)"/>
     <use xlink:href="#NotoSansCJKsc-Regular-62" transform="translate(225.599976 0)"/>
     <use xlink:href="#NotoSansCJKsc-Regular-65" transform="translate(287.399963 0)"/>
     <use xlink:href="#NotoSansCJKsc-Regular-72" transform="translate(342.799957 0)"/>
     <use xlink:href="#NotoSansCJKsc-Regular-20" transform="translate(381.599945 0)"/>
     <use xlink:href="#NotoSansCJKsc-Regular-6f" transform="translate(403.999939 0)"/>
     <use xlink:href="#NotoSansCJKsc-Regular-66" transform="translate(464.59993 0)"/>
     <use xlink:href="#NotoSansCJKsc-Regular-20" transform="translate(497.099915 0)"/>
     <use xlink:href="#NotoSansCJKsc-Regular-50" transform="translate(519.499908 0)"/>
     <use xlink:href="#NotoSansCJKsc-Regular-6c" transform="translate(582.799896 0)"/>
     <use xlink:href="#NotoSansCJKsc-Regular-61" transform="translate(611.19989 0)"/>
     <use xlink:href="#NotoSansCJKsc-Regular-6e" transform="translate(667.499878 0)"/>
     <use xlink:href="#NotoSansCJKsc-Regular-65" transform="translate(728.499863 0)"/>
     <use xlink:href="#NotoSansCJKsc-Regular-74" transform="translate(783.899857 0)"/>
     <use xlink:href="#NotoSansCJKsc-Regular-73" transform="translate(821.599854 0)"/>
     <use xlink:href="#NotoSansCJKsc-Regular-20" transform="translate(868.399841 0)"/>
     <use xlink:href="#NotoSansCJKsc-Regular-62" transform="translate(890.799835 0)"/>
     <use xlink:href="#NotoSansCJKsc-Regular-79" transform="translate(952.599823 0)"/>
     <use xlink:href="#NotoSansCJKsc-Regular-20" transform="translate(1004.699814 0)"/>
     <use xlink:href="#NotoSansCJKsc-Regular-4d" transform="translate(1027.099808 0)"/>
     <use xlink:href="#NotoSansCJKsc-Regular-65" transform="translate(1108.299789 0)"/>
     <use xlink:href="#NotoSansCJKsc-Regular-74" transform="translate(1163.699783 0)"/>
     <use xlink:href="#NotoSansCJKsc-Regular-68" transform="translate(1201.39978 0)"/>
     <use xlink:href="#NotoSansCJKsc-Regular-6f" transform="translate(1262.099777 0)"/>
     <use xlink:href="#NotoSansCJKsc-Regular-64" transform="translate(1322.699768 0)"/>
    </g>
   </g>
  </g>
 </g>
 <defs>
  <clipPath id="p8e56057d71">
   <rect x="45.1" y="22.90875" width="558" height="332.64"/>
  </clipPath>
 </defs>
</svg>
