<?xml version="1.0" encoding="utf-8" standalone="no"?>
<!DOCTYPE svg PUBLIC "-//W3C//DTD SVG 1.1//EN"
  "http://www.w3.org/Graphics/SVG/1.1/DTD/svg11.dtd">
<svg xmlns:xlink="http://www.w3.org/1999/xlink" width="721.792415pt" height="394.09125pt" viewBox="0 0 721.792415 394.09125" xmlns="http://www.w3.org/2000/svg" version="1.1">
 <metadata>
  <rdf:RDF xmlns:dc="http://purl.org/dc/elements/1.1/" xmlns:cc="http://creativecommons.org/ns#" xmlns:rdf="http://www.w3.org/1999/02/22-rdf-syntax-ns#">
   <cc:Work>
    <dc:type rdf:resource="http://purl.org/dc/dcmitype/StillImage"/>
    <dc:date>2026-09-19T11:24:44.170912</dc:date>
    <dc:format>image/svg+xml</dc:format>
    <dc:creator>
     <cc:Agent>
      <dc:title>Matplotlib v3.10.8, https://matplotlib.org/</dc:title>
     </cc:Agent>
    </dc:creator>
   </cc:Work>
  </rdf:RDF>
 </metadata>
 <defs>
  <style type="text/css">*{stroke-linejoin: round; stroke-linecap: butt}</style>
 </defs>
 <g id="figure_1">
  <g id="patch_1">
   <path d="M 0 394.09125 
L 721.792415 394.09125 
L 721.792415 0 
L 0 0 
z
" style="fill: #ffffff"/>
  </g>
  <g id="axes_1">
   <g id="patch_2">
    <path d="M 39.979687 355.39125 
L 709.579687 355.39125 
L 709.579687 22.75125 
L 39.979687 22.75125 
z
" style="fill: #ffffff"/>
   </g>
   <g id="FillBetweenPolyCollection_1"/>
   <g id="FillBetweenPolyCollection_2"/>
   <g id="matplotlib.axis_1">
    <g id="xtick_1">
     <g id="line2d_1">
      <path d="M 94.765142 355.39125 
L 94.765142 22.75125 
" clip-path="url(#p4848a88979)" style="fill: none; stroke: #b0b0b0; stroke-width: 0.8; stroke-linecap: square"/>
     </g>
     <g id="line2d_2">
      <defs>
       <path id="m654821b6ea" d="M 0 0 
L 0 3.5 
" style="stroke: #000000; stroke-width: 0.8"/>
      </defs>
      <g>
       <use xlink:href="#m654821b6ea" x="94.765142" y="355.39125" style="stroke: #000000; stroke-width: 0.8"/>
      </g>
     </g>
     <g id="text_1">
      <!-- 1990 -->
      <g transform="translate(83.665142 370.350625) scale(0.1 -0.1)">
       <defs>
        <path id="NotoSansCJKsc-Regular-31" d="M 563 0 
L 3136 0 
L 3136 486 
L 2195 486 
L 2195 4691 
L 1747 4691 
C 1491 4544 1190 4435 774 4358 
L 774 3987 
L 1613 3987 
L 1613 486 
L 563 486 
L 563 0 
z
" transform="scale(0.015625)"/>
        <path id="NotoSansCJKsc-Regular-39" d="M 1504 -83 
C 2381 -83 3206 646 3206 2547 
C 3206 4038 2528 4774 1626 4774 
C 896 4774 282 4166 282 3251 
C 282 2285 794 1779 1574 1779 
C 1965 1779 2368 2003 2656 2349 
C 2611 896 2086 403 1485 403 
C 1178 403 896 538 691 762 
L 371 397 
C 634 122 992 -83 1504 -83 
z
M 2650 2842 
C 2336 2394 1984 2214 1670 2214 
C 1114 2214 832 2624 832 3251 
C 832 3898 1178 4320 1632 4320 
C 2227 4320 2586 3808 2650 2842 
z
" transform="scale(0.015625)"/>
        <path id="NotoSansCJKsc-Regular-30" d="M 1779 -83 
C 2669 -83 3238 723 3238 2362 
C 3238 3987 2669 4774 1779 4774 
C 883 4774 320 3987 320 2362 
C 320 723 883 -83 1779 -83 
z
M 1779 390 
C 1248 390 883 986 883 2362 
C 883 3731 1248 4314 1779 4314 
C 2310 4314 2675 3731 2675 2362 
C 2675 986 2310 390 1779 390 
z
" transform="scale(0.015625)"/>
       </defs>
       <use xlink:href="#NotoSansCJKsc-Regular-31"/>
       <use xlink:href="#NotoSansCJKsc-Regular-39" transform="translate(55.499985 0)"/>
       <use xlink:href="#NotoSansCJKsc-Regular-39" transform="translate(110.999969 0)"/>
       <use xlink:href="#NotoSansCJKsc-Regular-30" transform="translate(166.499954 0)"/>
      </g>
     </g>
    </g>
    <g id="xtick_2">
     <g id="line2d_3">
      <path d="M 216.510597 355.39125 
L 216.510597 22.75125 
" clip-path="url(#p4848a88979)" style="fill: none; stroke: #b0b0b0; stroke-width: 0.8; stroke-linecap: square"/>
     </g>
     <g id="line2d_4">
      <g>
       <use xlink:href="#m654821b6ea" x="216.510597" y="355.39125" style="stroke: #000000; stroke-width: 0.8"/>
      </g>
     </g>
     <g id="text_2">
      <!-- 1995 -->
      <g transform="translate(205.410597 370.350625) scale(0.1 -0.1)">
       <defs>
        <path id="NotoSansCJKsc-Regular-35" d="M 1677 -83 
C 2464 -83 3213 499 3213 1523 
C 3213 2560 2573 3021 1798 3021 
C 1517 3021 1306 2950 1094 2835 
L 1216 4192 
L 2982 4192 
L 2982 4691 
L 704 4691 
L 550 2502 
L 864 2304 
C 1133 2483 1331 2579 1645 2579 
C 2234 2579 2618 2182 2618 1510 
C 2618 826 2176 403 1619 403 
C 1075 403 730 653 467 922 
L 173 538 
C 493 224 941 -83 1677 -83 
z
" transform="scale(0.015625)"/>
       </defs>
       <use xlink:href="#NotoSansCJKsc-Regular-31"/>
       <use xlink:href="#NotoSansCJKsc-Regular-39" transform="translate(55.499985 0)"/>
       <use xlink:href="#NotoSansCJKsc-Regular-39" transform="translate(110.999969 0)"/>
       <use xlink:href="#NotoSansCJKsc-Regular-35" transform="translate(166.499954 0)"/>
      </g>
     </g>
    </g>
    <g id="xtick_3">
     <g id="line2d_5">
      <path d="M 338.256051 355.39125 
L 338.256051 22.75125 
" clip-path="url(#p4848a88979)" style="fill: none; stroke: #b0b0b0; stroke-width: 0.8; stroke-linecap: square"/>
     </g>
     <g id="line2d_6">
      <g>
       <use xlink:href="#m654821b6ea" x="338.256051" y="355.39125" style="stroke: #000000; stroke-width: 0.8"/>
      </g>
     </g>
     <g id="text_3">
      <!-- 2000 -->
      <g transform="translate(327.156051 370.350625) scale(0.1 -0.1)">
       <defs>
        <path id="NotoSansCJKsc-Regular-32" d="M 282 0 
L 3232 0 
L 3232 506 
L 1933 506 
C 1696 506 1408 480 1165 461 
C 2266 1504 3008 2458 3008 3398 
C 3008 4230 2477 4774 1638 4774 
C 1043 4774 634 4506 256 4090 
L 595 3757 
C 858 4070 1184 4301 1568 4301 
C 2150 4301 2432 3910 2432 3373 
C 2432 2566 1754 1632 282 346 
L 282 0 
z
" transform="scale(0.015625)"/>
       </defs>
       <use xlink:href="#NotoSansCJKsc-Regular-32"/>
       <use xlink:href="#NotoSansCJKsc-Regular-30" transform="translate(55.499985 0)"/>
       <use xlink:href="#NotoSansCJKsc-Regular-30" transform="translate(110.999969 0)"/>
       <use xlink:href="#NotoSansCJKsc-Regular-30" transform="translate(166.499954 0)"/>
      </g>
     </g>
    </g>
    <g id="xtick_4">
     <g id="line2d_7">
      <path d="M 460.001506 355.39125 
L 460.001506 22.75125 
" clip-path="url(#p4848a88979)" style="fill: none; stroke: #b0b0b0; stroke-width: 0.8; stroke-linecap: square"/>
     </g>
     <g id="line2d_8">
      <g>
       <use xlink:href="#m654821b6ea" x="460.001506" y="355.39125" style="stroke: #000000; stroke-width: 0.8"/>
      </g>
     </g>
     <g id="text_4">
      <!-- 2005 -->
      <g transform="translate(448.901506 370.350625) scale(0.1 -0.1)">
       <use xlink:href="#NotoSansCJKsc-Regular-32"/>
       <use xlink:href="#NotoSansCJKsc-Regular-30" transform="translate(55.499985 0)"/>
       <use xlink:href="#NotoSansCJKsc-Regular-30" transform="translate(110.999969 0)"/>
       <use xlink:href="#NotoSansCJKsc-Regular-35" transform="translate(166.499954 0)"/>
      </g>
     </g>
    </g>
    <g id="xtick_5">
     <g id="line2d_9">
      <path d="M 581.74696 355.39125 
L 581.74696 22.75125 
" clip-path="url(#p4848a88979)" style="fill: none; stroke: #b0b0b0; stroke-width: 0.8; stroke-linecap: square"/>
     </g>
     <g id="line2d_10">
      <g>
       <use xlink:href="#m654821b6ea" x="581.74696" y="355.39125" style="stroke: #000000; stroke-width: 0.8"/>
      </g>
     </g>
     <g id="text_5">
      <!-- 2010 -->
      <g transform="translate(570.64696 370.350625) scale(0.1 -0.1)">
       <use xlink:href="#NotoSansCJKsc-Regular-32"/>
       <use xlink:href="#NotoSansCJKsc-Regular-30" transform="translate(55.499985 0)"/>
       <use xlink:href="#NotoSansCJKsc-Regular-31" transform="translate(110.999969 0)"/>
       <use xlink:href="#NotoSansCJKsc-Regular-30" transform="translate(166.499954 0)"/>
      </g>
     </g>
    </g>
    <g id="xtick_6">
     <g id="line2d_11">
      <path d="M 703.492415 355.39125 
L 703.492415 22.75125 
" clip-path="url(#p4848a88979)" style="fill: none; stroke: #b0b0b0; stroke-width: 0.8; stroke-linecap: square"/>
     </g>
     <g id="line2d_12">
      <g>
       <use xlink:href="#m654821b6ea" x="703.492415" y="355.39125" style="stroke: #000000; stroke-width: 0.8"/>
      </g>
     </g>
     <g id="text_6">
      <!-- 2015 -->
      <g transform="translate(692.392415 370.350625) scale(0.1 -0.1)">
       <use xlink:href="#NotoSansCJKsc-Regular-32"/>
       <use xlink:href="#NotoSansCJKsc-Regular-30" transform="translate(55.499985 0)"/>
       <use xlink:href="#NotoSansCJKsc-Regular-31" transform="translate(110.999969 0)"/>
       <use xlink:href="#NotoSansCJKsc-Regular-35" transform="translate(166.499954 0)"/>
      </g>
     </g>
    </g>
    <g id="text_7">
     <!-- Year -->
     <g transform="translate(364.6 384.600625) scale(0.1 -0.1)">
      <defs>
       <path id="NotoSansCJKsc-Regular-59" d="M 1402 0 
L 1990 0 
L 1990 1818 
L 3405 4691 
L 2790 4691 
L 2189 3366 
C 2042 3021 1882 2688 1715 2336 
L 1690 2336 
C 1523 2688 1382 3021 1229 3366 
L 621 4691 
L -6 4691 
L 1402 1818 
L 1402 0 
z
" transform="scale(0.015625)"/>
       <path id="NotoSansCJKsc-Regular-65" d="M 1997 -83 
C 2464 -83 2835 70 3136 269 
L 2931 659 
C 2669 486 2400 384 2061 384 
C 1402 384 947 858 909 1600 
L 3251 1600 
C 3264 1690 3277 1805 3277 1933 
C 3277 2925 2778 3565 1888 3565 
C 1094 3565 333 2867 333 1734 
C 333 589 1069 -83 1997 -83 
z
M 902 2016 
C 973 2707 1408 3098 1901 3098 
C 2445 3098 2765 2720 2765 2016 
L 902 2016 
z
" transform="scale(0.015625)"/>
       <path id="NotoSansCJKsc-Regular-61" d="M 1389 -83 
C 1818 -83 2208 141 2541 416 
L 2560 416 
L 2611 0 
L 3091 0 
L 3091 2138 
C 3091 3002 2739 3565 1888 3565 
C 1325 3565 838 3315 525 3110 
L 749 2707 
C 1024 2893 1389 3078 1792 3078 
C 2362 3078 2509 2650 2509 2202 
C 1030 2035 378 1658 378 902 
C 378 275 806 -83 1389 -83 
z
M 1555 390 
C 1210 390 941 544 941 941 
C 941 1389 1338 1677 2509 1811 
L 2509 845 
C 2170 544 1888 390 1555 390 
z
" transform="scale(0.015625)"/>
       <path id="NotoSansCJKsc-Regular-72" d="M 589 0 
L 1178 0 
L 1178 2234 
C 1408 2822 1760 3040 2048 3040 
C 2195 3040 2272 3021 2387 2982 
L 2496 3488 
C 2387 3546 2278 3565 2125 3565 
C 1741 3565 1382 3283 1139 2842 
L 1126 2842 
L 1069 3475 
L 589 3475 
L 589 0 
z
" transform="scale(0.015625)"/>
      </defs>
      <use xlink:href="#NotoSansCJKsc-Regular-59"/>
      <use xlink:href="#NotoSansCJKsc-Regular-65" transform="translate(53.099991 0)"/>
      <use xlink:href="#NotoSansCJKsc-Regular-61" transform="translate(108.499985 0)"/>
      <use xlink:href="#NotoSansCJKsc-Regular-72" transform="translate(164.799973 0)"/>
     </g>
    </g>
   </g>
   <g id="matplotlib.axis_2">
    <g id="ytick_1">
     <g id="line2d_13">
      <path d="M 39.979687 353.006154 
L 709.579687 353.006154 
" clip-path="url(#p4848a88979)" style="fill: none; stroke: #b0b0b0; stroke-width: 0.8; stroke-linecap: square"/>
     </g>
     <g id="line2d_14">
      <defs>
       <path id="mc61996ceee" d="M 0 0 
L -3.5 0 
" style="stroke: #000000; stroke-width: 0.8"/>
      </defs>
      <g>
       <use xlink:href="#mc61996ceee" x="39.979687" y="353.006154" style="stroke: #000000; stroke-width: 0.8"/>
      </g>
     </g>
     <g id="text_8">
      <!-- 0 -->
      <g transform="translate(27.429687 356.985841) scale(0.1 -0.1)">
       <use xlink:href="#NotoSansCJKsc-Regular-30"/>
      </g>
     </g>
    </g>
    <g id="ytick_2">
     <g id="line2d_15">
      <path d="M 39.979687 299.044698 
L 709.579687 299.044698 
" clip-path="url(#p4848a88979)" style="fill: none; stroke: #b0b0b0; stroke-width: 0.8; stroke-linecap: square"/>
     </g>
     <g id="line2d_16">
      <g>
       <use xlink:href="#mc61996ceee" x="39.979687" y="299.044698" style="stroke: #000000; stroke-width: 0.8"/>
      </g>
     </g>
     <g id="text_9">
      <!-- 2 -->
      <g transform="translate(27.429687 303.024385) scale(0.1 -0.1)">
       <use xlink:href="#NotoSansCJKsc-Regular-32"/>
      </g>
     </g>
    </g>
    <g id="ytick_3">
     <g id="line2d_17">
      <path d="M 39.979687 245.083241 
L 709.579687 245.083241 
" clip-path="url(#p4848a88979)" style="fill: none; stroke: #b0b0b0; stroke-width: 0.8; stroke-linecap: square"/>
     </g>
     <g id="line2d_18">
      <g>
       <use xlink:href="#mc61996ceee" x="39.979687" y="245.083241" style="stroke: #000000; stroke-width: 0.8"/>
      </g>
     </g>
     <g id="text_10">
      <!-- 4 -->
      <g transform="translate(27.429687 249.062929) scale(0.1 -0.1)">
       <defs>
        <path id="NotoSansCJKsc-Regular-34" d="M 2176 0 
L 2726 0 
L 2726 1293 
L 3354 1293 
L 3354 1760 
L 2726 1760 
L 2726 4691 
L 2080 4691 
L 128 1677 
L 128 1293 
L 2176 1293 
L 2176 0 
z
M 2176 1760 
L 736 1760 
L 1805 3360 
C 1939 3590 2067 3827 2182 4051 
L 2208 4051 
C 2195 3814 2176 3430 2176 3200 
L 2176 1760 
z
" transform="scale(0.015625)"/>
       </defs>
       <use xlink:href="#NotoSansCJKsc-Regular-34"/>
      </g>
     </g>
    </g>
    <g id="ytick_4">
     <g id="line2d_19">
      <path d="M 39.979687 191.121785 
L 709.579687 191.121785 
" clip-path="url(#p4848a88979)" style="fill: none; stroke: #b0b0b0; stroke-width: 0.8; stroke-linecap: square"/>
     </g>
     <g id="line2d_20">
      <g>
       <use xlink:href="#mc61996ceee" x="39.979687" y="191.121785" style="stroke: #000000; stroke-width: 0.8"/>
      </g>
     </g>
     <g id="text_11">
      <!-- 6 -->
      <g transform="translate(27.429687 195.101473) scale(0.1 -0.1)">
       <defs>
        <path id="NotoSansCJKsc-Regular-36" d="M 1926 -83 
C 2656 -83 3277 531 3277 1440 
C 3277 2426 2765 2912 1971 2912 
C 1606 2912 1197 2701 909 2349 
C 934 3802 1466 4294 2118 4294 
C 2400 4294 2682 4154 2861 3936 
L 3194 4294 
C 2931 4576 2579 4774 2093 4774 
C 1184 4774 358 4077 358 2240 
C 358 691 1030 -83 1926 -83 
z
M 922 1882 
C 1229 2317 1587 2477 1875 2477 
C 2445 2477 2720 2074 2720 1440 
C 2720 800 2374 378 1926 378 
C 1338 378 986 909 922 1882 
z
" transform="scale(0.015625)"/>
       </defs>
       <use xlink:href="#NotoSansCJKsc-Regular-36"/>
      </g>
     </g>
    </g>
    <g id="ytick_5">
     <g id="line2d_21">
      <path d="M 39.979687 137.160329 
L 709.579687 137.160329 
" clip-path="url(#p4848a88979)" style="fill: none; stroke: #b0b0b0; stroke-width: 0.8; stroke-linecap: square"/>
     </g>
     <g id="line2d_22">
      <g>
       <use xlink:href="#mc61996ceee" x="39.979687" y="137.160329" style="stroke: #000000; stroke-width: 0.8"/>
      </g>
     </g>
     <g id="text_12">
      <!-- 8 -->
      <g transform="translate(27.429687 141.140017) scale(0.1 -0.1)">
       <defs>
        <path id="NotoSansCJKsc-Regular-38" d="M 1792 -83 
C 2669 -83 3258 448 3258 1126 
C 3258 1773 2880 2125 2470 2362 
L 2470 2394 
C 2746 2611 3091 3034 3091 3526 
C 3091 4250 2605 4762 1805 4762 
C 1075 4762 518 4282 518 3571 
C 518 3078 813 2726 1152 2490 
L 1152 2464 
C 723 2234 294 1792 294 1165 
C 294 442 922 -83 1792 -83 
z
M 2112 2547 
C 1555 2765 1050 3014 1050 3571 
C 1050 4026 1363 4326 1798 4326 
C 2298 4326 2592 3962 2592 3494 
C 2592 3149 2426 2829 2112 2547 
z
M 1798 352 
C 1235 352 813 717 813 1216 
C 813 1664 1082 2035 1459 2278 
C 2125 2010 2701 1779 2701 1146 
C 2701 678 2342 352 1798 352 
z
" transform="scale(0.015625)"/>
       </defs>
       <use xlink:href="#NotoSansCJKsc-Regular-38"/>
      </g>
     </g>
    </g>
    <g id="ytick_6">
     <g id="line2d_23">
      <path d="M 39.979687 83.198873 
L 709.579687 83.198873 
" clip-path="url(#p4848a88979)" style="fill: none; stroke: #b0b0b0; stroke-width: 0.8; stroke-linecap: square"/>
     </g>
     <g id="line2d_24">
      <g>
       <use xlink:href="#mc61996ceee" x="39.979687" y="83.198873" style="stroke: #000000; stroke-width: 0.8"/>
      </g>
     </g>
     <g id="text_13">
      <!-- 10 -->
      <g transform="translate(21.879687 87.178561) scale(0.1 -0.1)">
       <use xlink:href="#NotoSansCJKsc-Regular-31"/>
       <use xlink:href="#NotoSansCJKsc-Regular-30" transform="translate(55.499985 0)"/>
      </g>
     </g>
    </g>
    <g id="ytick_7">
     <g id="line2d_25">
      <path d="M 39.979687 29.237417 
L 709.579687 29.237417 
" clip-path="url(#p4848a88979)" style="fill: none; stroke: #b0b0b0; stroke-width: 0.8; stroke-linecap: square"/>
     </g>
     <g id="line2d_26">
      <g>
       <use xlink:href="#mc61996ceee" x="39.979687" y="29.237417" style="stroke: #000000; stroke-width: 0.8"/>
      </g>
     </g>
     <g id="text_14">
      <!-- 12 -->
      <g transform="translate(21.879687 33.217105) scale(0.1 -0.1)">
       <use xlink:href="#NotoSansCJKsc-Regular-31"/>
       <use xlink:href="#NotoSansCJKsc-Regular-32" transform="translate(55.499985 0)"/>
      </g>
     </g>
    </g>
    <g id="text_15">
     <!-- Average Mass (Jupiter Masses) -->
     <g transform="translate(15.379687 259.572031) rotate(-90) scale(0.1 -0.1)">
      <defs>
       <path id="NotoSansCJKsc-Regular-41" d="M 26 0 
L 621 0 
L 1075 1434 
L 2790 1434 
L 3238 0 
L 3866 0 
L 2272 4691 
L 1613 4691 
L 26 0 
z
M 1222 1901 
L 1453 2624 
C 1619 3155 1773 3661 1920 4211 
L 1946 4211 
C 2099 3667 2246 3155 2419 2624 
L 2643 1901 
L 1222 1901 
z
" transform="scale(0.015625)"/>
       <path id="NotoSansCJKsc-Regular-76" d="M 1338 0 
L 2022 0 
L 3251 3475 
L 2675 3475 
L 2016 1498 
C 1914 1158 1798 806 1696 474 
L 1664 474 
C 1562 806 1453 1158 1344 1498 
L 691 3475 
L 83 3475 
L 1338 0 
z
" transform="scale(0.015625)"/>
       <path id="NotoSansCJKsc-Regular-67" d="M 1760 -1600 
C 2835 -1600 3520 -1043 3520 -397 
C 3520 179 3110 429 2310 429 
L 1626 429 
C 1158 429 1018 589 1018 806 
C 1018 998 1114 1114 1242 1222 
C 1395 1146 1587 1101 1754 1101 
C 2470 1101 3027 1568 3027 2310 
C 3027 2611 2912 2867 2746 3027 
L 3456 3027 
L 3456 3475 
L 2246 3475 
C 2125 3526 1952 3565 1754 3565 
C 1056 3565 454 3085 454 2323 
C 454 1907 678 1568 909 1389 
L 909 1363 
C 723 1235 525 1005 525 717 
C 525 442 659 256 838 147 
L 838 115 
C 512 -83 326 -371 326 -672 
C 326 -1267 915 -1600 1760 -1600 
z
M 1754 1498 
C 1357 1498 1018 1818 1018 2323 
C 1018 2835 1350 3136 1754 3136 
C 2170 3136 2496 2835 2496 2323 
C 2496 1818 2157 1498 1754 1498 
z
M 1843 -1197 
C 1210 -1197 838 -960 838 -589 
C 838 -390 941 -179 1190 0 
C 1344 -38 1510 -51 1638 -51 
L 2240 -51 
C 2701 -51 2944 -166 2944 -493 
C 2944 -851 2515 -1197 1843 -1197 
z
" transform="scale(0.015625)"/>
       <path id="NotoSansCJKsc-Regular-20" transform="scale(0.015625)"/>
       <path id="NotoSansCJKsc-Regular-4d" d="M 646 0 
L 1178 0 
L 1178 2598 
C 1178 3002 1139 3571 1101 3981 
L 1126 3981 
L 1504 2912 
L 2394 474 
L 2790 474 
L 3674 2912 
L 4051 3981 
L 4077 3981 
C 4045 3571 4000 3002 4000 2598 
L 4000 0 
L 4550 0 
L 4550 4691 
L 3840 4691 
L 2944 2182 
C 2835 1862 2739 1530 2618 1203 
L 2592 1203 
C 2477 1530 2374 1862 2253 2182 
L 1357 4691 
L 646 4691 
L 646 0 
z
" transform="scale(0.015625)"/>
       <path id="NotoSansCJKsc-Regular-73" d="M 1498 -83 
C 2317 -83 2758 384 2758 947 
C 2758 1606 2208 1811 1702 2003 
C 1312 2150 954 2278 954 2605 
C 954 2880 1158 3110 1600 3110 
C 1907 3110 2150 2976 2387 2803 
L 2669 3168 
C 2406 3386 2022 3565 1594 3565 
C 832 3565 397 3130 397 2579 
C 397 1984 922 1754 1408 1574 
C 1792 1434 2202 1267 2202 915 
C 2202 614 1978 371 1517 371 
C 1101 371 794 538 486 787 
L 205 397 
C 531 122 1005 -83 1498 -83 
z
" transform="scale(0.015625)"/>
       <path id="NotoSansCJKsc-Regular-28" d="M 1530 -1254 
L 1888 -1094 
C 1338 -186 1075 902 1075 1990 
C 1075 3072 1338 4154 1888 5069 
L 1530 5235 
C 941 4275 589 3245 589 1990 
C 589 730 941 -301 1530 -1254 
z
" transform="scale(0.015625)"/>
       <path id="NotoSansCJKsc-Regular-4a" d="M 1517 -83 
C 2432 -83 2810 563 2810 1376 
L 2810 4691 
L 2214 4691 
L 2214 1434 
C 2214 723 1965 435 1459 435 
C 1120 435 858 589 646 966 
L 224 659 
C 499 173 922 -83 1517 -83 
z
" transform="scale(0.015625)"/>
       <path id="NotoSansCJKsc-Regular-75" d="M 1606 -83 
C 2080 -83 2426 166 2752 544 
L 2771 544 
L 2816 0 
L 3302 0 
L 3302 3475 
L 2720 3475 
L 2720 1011 
C 2387 602 2138 422 1779 422 
C 1318 422 1126 698 1126 1344 
L 1126 3475 
L 538 3475 
L 538 1274 
C 538 384 870 -83 1606 -83 
z
" transform="scale(0.015625)"/>
       <path id="NotoSansCJKsc-Regular-70" d="M 589 -1466 
L 1178 -1466 
L 1178 -288 
L 1158 320 
C 1472 58 1805 -83 2118 -83 
C 2912 -83 3629 602 3629 1792 
C 3629 2867 3142 3565 2246 3565 
C 1843 3565 1453 3334 1139 3072 
L 1126 3072 
L 1069 3475 
L 589 3475 
L 589 -1466 
z
M 2022 410 
C 1792 410 1485 499 1178 768 
L 1178 2598 
C 1510 2906 1811 3072 2099 3072 
C 2765 3072 3021 2560 3021 1786 
C 3021 928 2598 410 2022 410 
z
" transform="scale(0.015625)"/>
       <path id="NotoSansCJKsc-Regular-69" d="M 589 0 
L 1178 0 
L 1178 3475 
L 589 3475 
L 589 0 
z
M 883 4192 
C 1114 4192 1274 4346 1274 4582 
C 1274 4806 1114 4960 883 4960 
C 653 4960 499 4806 499 4582 
C 499 4346 653 4192 883 4192 
z
" transform="scale(0.015625)"/>
       <path id="NotoSansCJKsc-Regular-74" d="M 1677 -83 
C 1894 -83 2125 -19 2323 45 
L 2208 486 
C 2093 435 1939 390 1811 390 
C 1408 390 1274 634 1274 1056 
L 1274 3002 
L 2221 3002 
L 2221 3475 
L 1274 3475 
L 1274 4454 
L 787 4454 
L 723 3475 
L 173 3443 
L 173 3002 
L 691 3002 
L 691 1075 
C 691 378 941 -83 1677 -83 
z
" transform="scale(0.015625)"/>
       <path id="NotoSansCJKsc-Regular-29" d="M 634 -1254 
C 1222 -301 1574 730 1574 1990 
C 1574 3245 1222 4275 634 5235 
L 269 5069 
C 819 4154 1094 3072 1094 1990 
C 1094 902 819 -186 269 -1094 
L 634 -1254 
z
" transform="scale(0.015625)"/>
      </defs>
      <use xlink:href="#NotoSansCJKsc-Regular-41"/>
      <use xlink:href="#NotoSansCJKsc-Regular-76" transform="translate(60.799988 0)"/>
      <use xlink:href="#NotoSansCJKsc-Regular-65" transform="translate(112.899979 0)"/>
      <use xlink:href="#NotoSansCJKsc-Regular-72" transform="translate(168.299973 0)"/>
      <use xlink:href="#NotoSansCJKsc-Regular-61" transform="translate(207.09996 0)"/>
      <use xlink:href="#NotoSansCJKsc-Regular-67" transform="translate(263.399948 0)"/>
      <use xlink:href="#NotoSansCJKsc-Regular-65" transform="translate(319.799942 0)"/>
      <use xlink:href="#NotoSansCJKsc-Regular-20" transform="translate(375.199936 0)"/>
      <use xlink:href="#NotoSansCJKsc-Regular-4d" transform="translate(397.59993 0)"/>
      <use xlink:href="#NotoSansCJKsc-Regular-61" transform="translate(478.799911 0)"/>
      <use xlink:href="#NotoSansCJKsc-Regular-73" transform="translate(535.099899 0)"/>
      <use xlink:href="#NotoSansCJKsc-Regular-73" transform="translate(581.899887 0)"/>
      <use xlink:href="#NotoSansCJKsc-Regular-20" transform="translate(628.699875 0)"/>
      <use xlink:href="#NotoSansCJKsc-Regular-28" transform="translate(651.099869 0)"/>
      <use xlink:href="#NotoSansCJKsc-Regular-4a" transform="translate(684.899857 0)"/>
      <use xlink:href="#NotoSansCJKsc-Regular-75" transform="translate(738.399841 0)"/>
      <use xlink:href="#NotoSansCJKsc-Regular-70" transform="translate(799.099838 0)"/>
      <use xlink:href="#NotoSansCJKsc-Regular-69" transform="translate(861.099823 0)"/>
      <use xlink:href="#NotoSansCJKsc-Regular-74" transform="translate(888.599808 0)"/>
      <use xlink:href="#NotoSansCJKsc-Regular-65" transform="translate(926.299805 0)"/>
      <use xlink:href="#NotoSansCJKsc-Regular-72" transform="translate(981.699799 0)"/>
      <use xlink:href="#NotoSansCJKsc-Regular-20" transform="translate(1020.499786 0)"/>
      <use xlink:href="#NotoSansCJKsc-Regular-4d" transform="translate(1042.89978 0)"/>
      <use xlink:href="#NotoSansCJKsc-Regular-61" transform="translate(1124.099762 0)"/>
      <use xlink:href="#NotoSansCJKsc-Regular-73" transform="translate(1180.39975 0)"/>
      <use xlink:href="#NotoSansCJKsc-Regular-73" transform="translate(1227.199738 0)"/>
      <use xlink:href="#NotoSansCJKsc-Regular-65" transform="translate(1273.999725 0)"/>
      <use xlink:href="#NotoSansCJKsc-Regular-73" transform="translate(1329.399719 0)"/>
      <use xlink:href="#NotoSansCJKsc-Regular-29" transform="translate(1376.199707 0)"/>
     </g>
    </g>
   </g>
   <g id="line2d_27">
    <path d="M 70.416051 37.87125 
L 216.510597 340.27125 
L 240.859688 299.600501 
L 265.208778 324.946196 
L 289.557869 280.5057 
L 313.90696 265.679173 
L 338.256051 254.984783 
L 362.605142 260.437728 
L 386.954233 246.775194 
L 411.303324 254.230935 
L 435.652415 313.76898 
L 460.001506 298.939552 
L 484.350597 304.446239 
L 508.699687 277.52307 
L 533.048778 260.614992 
L 557.397869 267.564355 
L 581.74696 318.211544 
L 606.096051 320.294539 
L 630.445142 254.929682 
L 654.794233 297.062578 
L 679.143324 311.72564 
" clip-path="url(#p4848a88979)" style="fill: none; stroke: #1f77b4; stroke-width: 1.5; stroke-linecap: square"/>
    <defs>
     <path id="m7ed14c18b9" d="M 0 3 
C 0.795609 3 1.55874 2.683901 2.12132 2.12132 
C 2.683901 1.55874 3 0.795609 3 0 
C 3 -0.795609 2.683901 -1.55874 2.12132 -2.12132 
C 1.55874 -2.683901 0.795609 -3 0 -3 
C -0.795609 -3 -1.55874 -2.683901 -2.12132 -2.12132 
C -2.683901 -1.55874 -3 -0.795609 -3 0 
C -3 0.795609 -2.683901 1.55874 -2.12132 2.12132 
C -1.55874 2.683901 -0.795609 3 0 3 
z
" style="stroke: #ffffff; stroke-width: 0.75"/>
    </defs>
    <g clip-path="url(#p4848a88979)">
     <use xlink:href="#m7ed14c18b9" x="70.416051" y="37.87125" style="fill: #1f77b4; stroke: #ffffff; stroke-width: 0.75"/>
     <use xlink:href="#m7ed14c18b9" x="216.510597" y="340.27125" style="fill: #1f77b4; stroke: #ffffff; stroke-width: 0.75"/>
     <use xlink:href="#m7ed14c18b9" x="240.859688" y="299.600501" style="fill: #1f77b4; stroke: #ffffff; stroke-width: 0.75"/>
     <use xlink:href="#m7ed14c18b9" x="265.208778" y="324.946196" style="fill: #1f77b4; stroke: #ffffff; stroke-width: 0.75"/>
     <use xlink:href="#m7ed14c18b9" x="289.557869" y="280.5057" style="fill: #1f77b4; stroke: #ffffff; stroke-width: 0.75"/>
     <use xlink:href="#m7ed14c18b9" x="313.90696" y="265.679173" style="fill: #1f77b4; stroke: #ffffff; stroke-width: 0.75"/>
     <use xlink:href="#m7ed14c18b9" x="338.256051" y="254.984783" style="fill: #1f77b4; stroke: #ffffff; stroke-width: 0.75"/>
     <use xlink:href="#m7ed14c18b9" x="362.605142" y="260.437728" style="fill: #1f77b4; stroke: #ffffff; stroke-width: 0.75"/>
     <use xlink:href="#m7ed14c18b9" x="386.954233" y="246.775194" style="fill: #1f77b4; stroke: #ffffff; stroke-width: 0.75"/>
     <use xlink:href="#m7ed14c18b9" x="411.303324" y="254.230935" style="fill: #1f77b4; stroke: #ffffff; stroke-width: 0.75"/>
     <use xlink:href="#m7ed14c18b9" x="435.652415" y="313.76898" style="fill: #1f77b4; stroke: #ffffff; stroke-width: 0.75"/>
     <use xlink:href="#m7ed14c18b9" x="460.001506" y="298.939552" style="fill: #1f77b4; stroke: #ffffff; stroke-width: 0.75"/>
     <use xlink:href="#m7ed14c18b9" x="484.350597" y="304.446239" style="fill: #1f77b4; stroke: #ffffff; stroke-width: 0.75"/>
     <use xlink:href="#m7ed14c18b9" x="508.699687" y="277.52307" style="fill: #1f77b4; stroke: #ffffff; stroke-width: 0.75"/>
     <use xlink:href="#m7ed14c18b9" x="533.048778" y="260.614992" style="fill: #1f77b4; stroke: #ffffff; stroke-width: 0.75"/>
     <use xlink:href="#m7ed14c18b9" x="557.397869" y="267.564355" style="fill: #1f77b4; stroke: #ffffff; stroke-width: 0.75"/>
     <use xlink:href="#m7ed14c18b9" x="581.74696" y="318.211544" style="fill: #1f77b4; stroke: #ffffff; stroke-width: 0.75"/>
     <use xlink:href="#m7ed14c18b9" x="606.096051" y="320.294539" style="fill: #1f77b4; stroke: #ffffff; stroke-width: 0.75"/>
     <use xlink:href="#m7ed14c18b9" x="630.445142" y="254.929682" style="fill: #1f77b4; stroke: #ffffff; stroke-width: 0.75"/>
     <use xlink:href="#m7ed14c18b9" x="654.794233" y="297.062578" style="fill: #1f77b4; stroke: #ffffff; stroke-width: 0.75"/>
     <use xlink:href="#m7ed14c18b9" x="679.143324" y="311.72564" style="fill: #1f77b4; stroke: #ffffff; stroke-width: 0.75"/>
    </g>
   </g>
   <g id="line2d_28">
    <path d="M 654.794233 313.344483 
" clip-path="url(#p4848a88979)" style="fill: none; stroke: #ff7f0e; stroke-width: 1.5; stroke-linecap: square"/>
    <defs>
     <path id="md5c5242edc" d="M 0 3 
C 0.795609 3 1.55874 2.683901 2.12132 2.12132 
C 2.683901 1.55874 3 0.795609 3 0 
C 3 -0.795609 2.683901 -1.55874 2.12132 -2.12132 
C 1.55874 -2.683901 0.795609 -3 0 -3 
C -0.795609 -3 -1.55874 -2.683901 -2.12132 -2.12132 
C -2.683901 -1.55874 -3 -0.795609 -3 0 
C -3 0.795609 -2.683901 1.55874 -2.12132 2.12132 
C -1.55874 2.683901 -0.795609 3 0 3 
z
" style="stroke: #ffffff; stroke-width: 0.75"/>
    </defs>
    <g clip-path="url(#p4848a88979)">
     <use xlink:href="#md5c5242edc" x="654.794233" y="313.344483" style="fill: #ff7f0e; stroke: #ffffff; stroke-width: 0.75"/>
    </g>
   </g>
   <g id="line2d_29"/>
   <g id="line2d_30"/>
   <g id="patch_3">
    <path d="M 39.979687 355.39125 
L 39.979687 22.75125 
" style="fill: none; stroke: #000000; stroke-width: 0.8; stroke-linejoin: miter; stroke-linecap: square"/>
   </g>
   <g id="patch_4">
    <path d="M 709.579687 355.39125 
L 709.579687 22.75125 
" style="fill: none; stroke: #000000; stroke-width: 0.8; stroke-linejoin: miter; stroke-linecap: square"/>
   </g>
   <g id="patch_5">
    <path d="M 39.979687 355.39125 
L 709.579688 355.39125 
" style="fill: none; stroke: #000000; stroke-width: 0.8; stroke-linejoin: miter; stroke-linecap: square"/>
   </g>
   <g id="patch_6">
    <path d="M 39.979687 22.75125 
L 709.579688 22.75125 
" style="fill: none; stroke: #000000; stroke-width: 0.8; stroke-linejoin: miter; stroke-linecap: square"/>
   </g>
   <g id="text_16">
    <!-- Average Planet Mass by Year and Method -->
    <g transform="translate(260.945625 16.75125) scale(0.12 -0.12)">
     <defs>
      <path id="NotoSansCJKsc-Regular-50" d="M 646 0 
L 1235 0 
L 1235 1869 
L 2010 1869 
C 3040 1869 3738 2323 3738 3315 
C 3738 4339 3034 4691 1984 4691 
L 646 4691 
L 646 0 
z
M 1235 2349 
L 1235 4211 
L 1907 4211 
C 2733 4211 3149 4000 3149 3315 
C 3149 2643 2758 2349 1933 2349 
L 1235 2349 
z
" transform="scale(0.015625)"/>
      <path id="NotoSansCJKsc-Regular-6c" d="M 1203 -83 
C 1363 -83 1459 -58 1542 -32 
L 1459 416 
C 1395 403 1370 403 1338 403 
C 1248 403 1178 474 1178 653 
L 1178 5094 
L 589 5094 
L 589 691 
C 589 198 768 -83 1203 -83 
z
" transform="scale(0.015625)"/>
      <path id="NotoSansCJKsc-Regular-6e" d="M 589 0 
L 1178 0 
L 1178 2522 
C 1523 2874 1766 3053 2125 3053 
C 2586 3053 2784 2778 2784 2125 
L 2784 0 
L 3366 0 
L 3366 2202 
C 3366 3085 3034 3565 2304 3565 
C 1830 3565 1466 3302 1139 2970 
L 1126 2970 
L 1069 3475 
L 589 3475 
L 589 0 
z
" transform="scale(0.015625)"/>
      <path id="NotoSansCJKsc-Regular-62" d="M 2118 -83 
C 2912 -83 3629 602 3629 1792 
C 3629 2867 3142 3565 2246 3565 
C 1856 3565 1472 3347 1152 3078 
L 1178 3699 
L 1178 5094 
L 589 5094 
L 589 0 
L 1056 0 
L 1107 358 
L 1133 358 
C 1434 83 1798 -83 2118 -83 
z
M 2022 410 
C 1792 410 1478 499 1178 768 
L 1178 2598 
C 1504 2906 1811 3072 2099 3072 
C 2765 3072 3021 2560 3021 1786 
C 3021 928 2598 410 2022 410 
z
" transform="scale(0.015625)"/>
      <path id="NotoSansCJKsc-Regular-79" d="M 646 -1498 
C 1338 -1498 1702 -973 1946 -294 
L 3251 3475 
L 2682 3475 
L 2054 1549 
C 1965 1235 1862 883 1773 563 
L 1741 563 
C 1619 890 1504 1242 1395 1549 
L 691 3475 
L 83 3475 
L 1478 -6 
L 1402 -269 
C 1254 -698 1011 -1018 621 -1018 
C 525 -1018 422 -986 352 -960 
L 237 -1427 
C 346 -1472 486 -1498 646 -1498 
z
" transform="scale(0.015625)"/>
      <path id="NotoSansCJKsc-Regular-64" d="M 1773 -83 
C 2189 -83 2560 141 2829 410 
L 2848 410 
L 2899 0 
L 3379 0 
L 3379 5094 
L 2790 5094 
L 2790 3757 
L 2822 3162 
C 2515 3411 2253 3565 1843 3565 
C 1050 3565 339 2861 339 1734 
C 339 576 902 -83 1773 -83 
z
M 1901 410 
C 1293 410 941 902 941 1741 
C 941 2534 1389 3072 1946 3072 
C 2234 3072 2502 2970 2790 2707 
L 2790 883 
C 2502 563 2221 410 1901 410 
z
" transform="scale(0.015625)"/>
      <path id="NotoSansCJKsc-Regular-68" d="M 589 0 
L 1178 0 
L 1178 2522 
C 1523 2874 1766 3053 2125 3053 
C 2586 3053 2784 2778 2784 2125 
L 2784 0 
L 3366 0 
L 3366 2202 
C 3366 3085 3034 3565 2304 3565 
C 1830 3565 1472 3302 1152 2982 
L 1178 3699 
L 1178 5094 
L 589 5094 
L 589 0 
z
" transform="scale(0.015625)"/>
      <path id="NotoSansCJKsc-Regular-6f" d="M 1939 -83 
C 2790 -83 3546 582 3546 1734 
C 3546 2893 2790 3565 1939 3565 
C 1088 3565 333 2893 333 1734 
C 333 582 1088 -83 1939 -83 
z
M 1939 403 
C 1338 403 934 934 934 1734 
C 934 2534 1338 3072 1939 3072 
C 2541 3072 2950 2534 2950 1734 
C 2950 934 2541 403 1939 403 
z
" transform="scale(0.015625)"/>
     </defs>
     <use xlink:href="#NotoSansCJKsc-Regular-41"/>
     <use xlink:href="#NotoSansCJKsc-Regular-76" transform="translate(60.799988 0)"/>
     <use xlink:href="#NotoSansCJKsc-Regular-65" transform="translate(112.899979 0)"/>
     <use xlink:href="#NotoSansCJKsc-Regular-72" transform="translate(168.299973 0)"/>
     <use xlink:href="#NotoSansCJKsc-Regular-61" transform="translate(207.09996 0)"/>
     <use xlink:href="#NotoSansCJKsc-Regular-67" transform="translate(263.399948 0)"/>
     <use xlink:href="#NotoSansCJKsc-Regular-65" transform="translate(319.799942 0)"/>
     <use xlink:href="#NotoSansCJKsc-Regular-20" transform="translate(375.199936 0)"/>
     <use xlink:href="#NotoSansCJKsc-Regular-50" transform="translate(397.59993 0)"/>
     <use xlink:href="#NotoSansCJKsc-Regular-6c" transform="translate(460.899918 0)"/>
     <use xlink:href="#NotoSansCJKsc-Regular-61" transform="translate(489.299911 0)"/>
     <use xlink:href="#NotoSansCJKsc-Regular-6e" transform="translate(545.599899 0)"/>
     <use xlink:href="#NotoSansCJKsc-Regular-65" transform="translate(606.599884 0)"/>
     <use xlink:href="#NotoSansCJKsc-Regular-74" transform="translate(661.999878 0)"/>
     <use xlink:href="#NotoSansCJKsc-Regular-20" transform="translate(699.699875 0)"/>
     <use xlink:href="#NotoSansCJKsc-Regular-4d" transform="translate(722.099869 0)"/>
     <use xlink:href="#NotoSansCJKsc-Regular-61" transform="translate(803.29985 0)"/>
     <use xlink:href="#NotoSansCJKsc-Regular-73" transform="translate(859.599838 0)"/>
     <use xlink:href="#NotoSansCJKsc-Regular-73" transform="translate(906.399826 0)"/>
     <use xlink:href="#NotoSansCJKsc-Regular-20" transform="translate(953.199814 0)"/>
     <use xlink:href="#NotoSansCJKsc-Regular-62" transform="translate(975.599808 0)"/>
     <use xlink:href="#NotoSansCJKsc-Regular-79" transform="translate(1037.399796 0)"/>
     <use xlink:href="#NotoSansCJKsc-Regular-20" transform="translate(1089.499786 0)"/>
     <use xlink:href="#NotoSansCJKsc-Regular-59" transform="translate(1111.89978 0)"/>
     <use xlink:href="#NotoSansCJKsc-Regular-65" transform="translate(1164.999771 0)"/>
     <use xlink:href="#NotoSansCJKsc-Regular-61" transform="translate(1220.399765 0)"/>
     <use xlink:href="#NotoSansCJKsc-Regular-72" transform="translate(1276.699753 0)"/>
     <use xlink:href="#NotoSansCJKsc-Regular-20" transform="translate(1315.499741 0)"/>
     <use xlink:href="#NotoSansCJKsc-Regular-61" transform="translate(1337.899734 0)"/>
     <use xlink:href="#NotoSansCJKsc-Regular-6e" transform="translate(1394.199722 0)"/>
     <use xlink:href="#NotoSansCJKsc-Regular-64" transform="translate(1455.199707 0)"/>
     <use xlink:href="#NotoSansCJKsc-Regular-20" transform="translate(1517.199692 0)"/>
     <use xlink:href="#NotoSansCJKsc-Regular-4d" transform="translate(1539.599686 0)"/>
     <use xlink:href="#NotoSansCJKsc-Regular-65" transform="translate(1620.799667 0)"/>
     <use xlink:href="#NotoSansCJKsc-Regular-74" transform="translate(1676.199661 0)"/>
     <use xlink:href="#NotoSansCJKsc-Regular-68" transform="translate(1713.899658 0)"/>
     <use xlink:href="#NotoSansCJKsc-Regular-6f" transform="translate(1774.599655 0)"/>
     <use xlink:href="#NotoSansCJKsc-Regular-64" transform="translate(1835.199646 0)"/>
    </g>
   </g>
   <g id="legend_1">
    <g id="patch_7">
     <path d="M 601.91875 76.60125 
L 702.579687 76.60125 
Q 704.579687 76.60125 704.579687 74.60125 
L 704.579687 29.75125 
Q 704.579687 27.75125 702.579687 27.75125 
L 601.91875 27.75125 
Q 599.91875 27.75125 599.91875 29.75125 
L 599.91875 74.60125 
Q 599.91875 76.60125 601.91875 76.60125 
z
" style="fill: #ffffff; opacity: 0.8; stroke: #cccccc; stroke-linejoin: miter"/>
    </g>
    <g id="text_17">
     <!-- Discovery Method -->
     <g transform="translate(610.594531 39.710625) scale(0.1 -0.1)">
      <defs>
       <path id="NotoSansCJKsc-Regular-44" d="M 646 0 
L 1843 0 
C 3258 0 4026 877 4026 2362 
C 4026 3859 3258 4691 1818 4691 
L 646 4691 
L 646 0 
z
M 1235 486 
L 1235 4211 
L 1766 4211 
C 2874 4211 3418 3552 3418 2362 
C 3418 1178 2874 486 1766 486 
L 1235 486 
z
" transform="scale(0.015625)"/>
       <path id="NotoSansCJKsc-Regular-63" d="M 1958 -83 
C 2374 -83 2771 83 3085 352 
L 2829 749 
C 2611 557 2330 403 2010 403 
C 1370 403 934 934 934 1734 
C 934 2534 1395 3072 2029 3072 
C 2298 3072 2522 2950 2720 2771 
L 3014 3155 
C 2771 3373 2458 3565 2003 3565 
C 1107 3565 333 2893 333 1734 
C 333 582 1037 -83 1958 -83 
z
" transform="scale(0.015625)"/>
      </defs>
      <use xlink:href="#NotoSansCJKsc-Regular-44"/>
      <use xlink:href="#NotoSansCJKsc-Regular-69" transform="translate(68.799988 0)"/>
      <use xlink:href="#NotoSansCJKsc-Regular-73" transform="translate(96.299973 0)"/>
      <use xlink:href="#NotoSansCJKsc-Regular-63" transform="translate(143.09996 0)"/>
      <use xlink:href="#NotoSansCJKsc-Regular-6f" transform="translate(194.099945 0)"/>
      <use xlink:href="#NotoSansCJKsc-Regular-76" transform="translate(254.699936 0)"/>
      <use xlink:href="#NotoSansCJKsc-Regular-65" transform="translate(306.799927 0)"/>
      <use xlink:href="#NotoSansCJKsc-Regular-72" transform="translate(362.199921 0)"/>
      <use xlink:href="#NotoSansCJKsc-Regular-79" transform="translate(400.999908 0)"/>
      <use xlink:href="#NotoSansCJKsc-Regular-20" transform="translate(453.099899 0)"/>
      <use xlink:href="#NotoSansCJKsc-Regular-4d" transform="translate(475.499893 0)"/>
      <use xlink:href="#NotoSansCJKsc-Regular-65" transform="translate(556.699875 0)"/>
      <use xlink:href="#NotoSansCJKsc-Regular-74" transform="translate(612.099869 0)"/>
      <use xlink:href="#NotoSansCJKsc-Regular-68" transform="translate(649.799866 0)"/>
      <use xlink:href="#NotoSansCJKsc-Regular-6f" transform="translate(710.499863 0)"/>
      <use xlink:href="#NotoSansCJKsc-Regular-64" transform="translate(771.099854 0)"/>
     </g>
    </g>
    <g id="line2d_31">
     <path d="M 603.91875 51.510625 
L 613.91875 51.510625 
L 623.91875 51.510625 
" style="fill: none; stroke: #1f77b4; stroke-width: 1.5; stroke-linecap: square"/>
     <g>
      <use xlink:href="#m7ed14c18b9" x="613.91875" y="51.510625" style="fill: #1f77b4; stroke: #ffffff; stroke-width: 0.75"/>
     </g>
    </g>
    <g id="text_18">
     <!-- Radial Velocity -->
     <g transform="translate(631.91875 55.010625) scale(0.1 -0.1)">
      <defs>
       <path id="NotoSansCJKsc-Regular-52" d="M 1235 2464 
L 1235 4211 
L 2022 4211 
C 2758 4211 3162 3994 3162 3379 
C 3162 2765 2758 2464 2022 2464 
L 1235 2464 
z
M 3219 0 
L 3885 0 
L 2694 2054 
C 3328 2208 3750 2643 3750 3379 
C 3750 4352 3066 4691 2112 4691 
L 646 4691 
L 646 0 
L 1235 0 
L 1235 1990 
L 2080 1990 
L 3219 0 
z
" transform="scale(0.015625)"/>
       <path id="NotoSansCJKsc-Regular-56" d="M 1504 0 
L 2189 0 
L 3680 4691 
L 3078 4691 
L 2323 2150 
C 2163 1600 2048 1152 1869 602 
L 1843 602 
C 1670 1152 1549 1600 1389 2150 
L 627 4691 
L 6 4691 
L 1504 0 
z
" transform="scale(0.015625)"/>
      </defs>
      <use xlink:href="#NotoSansCJKsc-Regular-52"/>
      <use xlink:href="#NotoSansCJKsc-Regular-61" transform="translate(63.499985 0)"/>
      <use xlink:href="#NotoSansCJKsc-Regular-64" transform="translate(119.799973 0)"/>
      <use xlink:href="#NotoSansCJKsc-Regular-69" transform="translate(181.799957 0)"/>
      <use xlink:href="#NotoSansCJKsc-Regular-61" transform="translate(209.299942 0)"/>
      <use xlink:href="#NotoSansCJKsc-Regular-6c" transform="translate(265.59993 0)"/>
      <use xlink:href="#NotoSansCJKsc-Regular-20" transform="translate(293.999924 0)"/>
      <use xlink:href="#NotoSansCJKsc-Regular-56" transform="translate(316.399918 0)"/>
      <use xlink:href="#NotoSansCJKsc-Regular-65" transform="translate(373.899902 0)"/>
      <use xlink:href="#NotoSansCJKsc-Regular-6c" transform="translate(429.299896 0)"/>
      <use xlink:href="#NotoSansCJKsc-Regular-6f" transform="translate(457.69989 0)"/>
      <use xlink:href="#NotoSansCJKsc-Regular-63" transform="translate(518.299881 0)"/>
      <use xlink:href="#NotoSansCJKsc-Regular-69" transform="translate(569.299866 0)"/>
      <use xlink:href="#NotoSansCJKsc-Regular-74" transform="translate(596.79985 0)"/>
      <use xlink:href="#NotoSansCJKsc-Regular-79" transform="translate(634.499847 0)"/>
     </g>
    </g>
    <g id="line2d_32">
     <path d="M 603.91875 66.810625 
L 613.91875 66.810625 
L 623.91875 66.810625 
" style="fill: none; stroke: #ff7f0e; stroke-width: 1.5; stroke-linecap: square"/>
     <g>
      <use xlink:href="#md5c5242edc" x="613.91875" y="66.810625" style="fill: #ff7f0e; stroke: #ffffff; stroke-width: 0.75"/>
     </g>
    </g>
    <g id="text_19">
     <!-- Transit -->
     <g transform="translate(631.91875 70.310625) scale(0.1 -0.1)">
      <defs>
       <path id="NotoSansCJKsc-Regular-54" d="M 1619 0 
L 2214 0 
L 2214 4192 
L 3635 4192 
L 3635 4691 
L 198 4691 
L 198 4192 
L 1619 4192 
L 1619 0 
z
" transform="scale(0.015625)"/>
      </defs>
      <use xlink:href="#NotoSansCJKsc-Regular-54"/>
      <use xlink:href="#NotoSansCJKsc-Regular-72" transform="translate(59.899994 0)"/>
      <use xlink:href="#NotoSansCJKsc-Regular-61" transform="translate(98.699982 0)"/>
      <use xlink:href="#NotoSansCJKsc-Regular-6e" transform="translate(154.999969 0)"/>
      <use xlink:href="#NotoSansCJKsc-Regular-73" transform="translate(215.999954 0)"/>
      <use xlink:href="#NotoSansCJKsc-Regular-69" transform="translate(262.799942 0)"/>
      <use xlink:href="#NotoSansCJKsc-Regular-74" transform="translate(290.299927 0)"/>
     </g>
    </g>
   </g>
  </g>
 </g>
 <defs>
  <clipPath id="p4848a88979">
   <rect x="39.979687" y="22.75125" width="669.6" height="332.64"/>
  </clipPath>
 </defs>
</svg>
