<?xml version="1.0" encoding="utf-8" standalone="no"?>
<!DOCTYPE svg PUBLIC "-//W3C//DTD SVG 1.1//EN"
  "http://www.w3.org/Graphics/SVG/1.1/DTD/svg11.dtd">
<svg xmlns:xlink="http://www.w3.org/1999/xlink" width="613.079687pt" height="394.09125pt" viewBox="0 0 613.079687 394.09125" xmlns="http://www.w3.org/2000/svg" version="1.1">
 <metadata>
  <rdf:RDF xmlns:dc="http://purl.org/dc/elements/1.1/" xmlns:cc="http://creativecommons.org/ns#" xmlns:rdf="http://www.w3.org/1999/02/22-rdf-syntax-ns#">
   <cc:Work>
    <dc:type rdf:resource="http://purl.org/dc/dcmitype/StillImage"/>
    <dc:date>2026-09-19T11:24:55.317093</dc:date>
    <dc:format>image/svg+xml</dc:format>
    <dc:creator>
     <cc:Agent>
      <dc:title>Matplotlib v3.10.8, https://matplotlib.org/</dc:title>
     </cc:Agent>
    </dc:creator>
   </cc:Work>
  </rdf:RDF>
 </metadata>
 <defs>
  <style type="text/css">*{stroke-linejoin: round; stroke-linecap: butt}</style>
 </defs>
 <g id="figure_1">
  <g id="patch_1">
   <path d="M 0 394.09125 
L 613.079687 394.09125 
L 613.079687 0 
L 0 0 
z
" style="fill: #ffffff"/>
  </g>
  <g id="axes_1">
   <g id="patch_2">
    <path d="M 47.879687 355.39125 
L 605.879688 355.39125 
L 605.879688 22.75125 
L 47.879687 22.75125 
z
" style="fill: #ffffff"/>
   </g>
   <g id="PathCollection_1">
    <defs>
     <path id="mb123432d37" d="M 0 3 
C 0.795609 3 1.55874 2.683901 2.12132 2.12132 
C 2.683901 1.55874 3 0.795609 3 0 
C 3 -0.795609 2.683901 -1.55874 2.12132 -2.12132 
C 1.55874 -2.683901 0.795609 -3 0 -3 
C -0.795609 -3 -1.55874 -2.683901 -2.12132 -2.12132 
C -2.683901 -1.55874 -3 -0.795609 -3 0 
C -3 0.795609 -2.683901 1.55874 -2.12132 2.12132 
C -1.55874 2.683901 -0.795609 3 0 3 
z
" style="stroke: #1f77b4; stroke-opacity: 0.7"/>
    </defs>
    <g clip-path="url(#p475d5400ef)">
     <use xlink:href="#mb123432d37" x="129.60696" y="309.673569" style="fill: #1f77b4; fill-opacity: 0.7; stroke: #1f77b4; stroke-opacity: 0.7"/>
     <use xlink:href="#mb123432d37" x="495.970597" y="300.141689" style="fill: #1f77b4; fill-opacity: 0.7; stroke: #1f77b4; stroke-opacity: 0.7"/>
     <use xlink:href="#mb123432d37" x="411.425142" y="299.765026" style="fill: #1f77b4; fill-opacity: 0.7; stroke: #1f77b4; stroke-opacity: 0.7"/>
     <use xlink:href="#mb123432d37" x="298.697869" y="158.785055" style="fill: #1f77b4; fill-opacity: 0.7; stroke: #1f77b4; stroke-opacity: 0.7"/>
     <use xlink:href="#mb123432d37" x="214.152415" y="261.738201" style="fill: #1f77b4; fill-opacity: 0.7; stroke: #1f77b4; stroke-opacity: 0.7"/>
     <use xlink:href="#mb123432d37" x="355.061506" y="302.206432" style="fill: #1f77b4; fill-opacity: 0.7; stroke: #1f77b4; stroke-opacity: 0.7"/>
     <use xlink:href="#mb123432d37" x="355.061506" y="188.960289" style="fill: #1f77b4; fill-opacity: 0.7; stroke: #1f77b4; stroke-opacity: 0.7"/>
     <use xlink:href="#mb123432d37" x="129.60696" y="310.001924" style="fill: #1f77b4; fill-opacity: 0.7; stroke: #1f77b4; stroke-opacity: 0.7"/>
     <use xlink:href="#mb123432d37" x="355.061506" y="261.928165" style="fill: #1f77b4; fill-opacity: 0.7; stroke: #1f77b4; stroke-opacity: 0.7"/>
     <use xlink:href="#mb123432d37" x="157.788778" y="297.051635" style="fill: #1f77b4; fill-opacity: 0.7; stroke: #1f77b4; stroke-opacity: 0.7"/>
     <use xlink:href="#mb123432d37" x="129.60696" y="305.040109" style="fill: #1f77b4; fill-opacity: 0.7; stroke: #1f77b4; stroke-opacity: 0.7"/>
     <use xlink:href="#mb123432d37" x="467.788778" y="185.281447" style="fill: #1f77b4; fill-opacity: 0.7; stroke: #1f77b4; stroke-opacity: 0.7"/>
     <use xlink:href="#mb123432d37" x="298.697869" y="231.752931" style="fill: #1f77b4; fill-opacity: 0.7; stroke: #1f77b4; stroke-opacity: 0.7"/>
     <use xlink:href="#mb123432d37" x="101.425142" y="307.720169" style="fill: #1f77b4; fill-opacity: 0.7; stroke: #1f77b4; stroke-opacity: 0.7"/>
     <use xlink:href="#mb123432d37" x="129.60696" y="171.691316" style="fill: #1f77b4; fill-opacity: 0.7; stroke: #1f77b4; stroke-opacity: 0.7"/>
     <use xlink:href="#mb123432d37" x="411.425142" y="206.183726" style="fill: #1f77b4; fill-opacity: 0.7; stroke: #1f77b4; stroke-opacity: 0.7"/>
     <use xlink:href="#mb123432d37" x="129.60696" y="310.171574" style="fill: #1f77b4; fill-opacity: 0.7; stroke: #1f77b4; stroke-opacity: 0.7"/>
     <use xlink:href="#mb123432d37" x="355.061506" y="295.858227" style="fill: #1f77b4; fill-opacity: 0.7; stroke: #1f77b4; stroke-opacity: 0.7"/>
     <use xlink:href="#mb123432d37" x="185.970597" y="54.289022" style="fill: #1f77b4; fill-opacity: 0.7; stroke: #1f77b4; stroke-opacity: 0.7"/>
     <use xlink:href="#mb123432d37" x="129.60696" y="302.851072" style="fill: #1f77b4; fill-opacity: 0.7; stroke: #1f77b4; stroke-opacity: 0.7"/>
     <use xlink:href="#mb123432d37" x="129.60696" y="309.750185" style="fill: #1f77b4; fill-opacity: 0.7; stroke: #1f77b4; stroke-opacity: 0.7"/>
     <use xlink:href="#mb123432d37" x="157.788778" y="295.227438" style="fill: #1f77b4; fill-opacity: 0.7; stroke: #1f77b4; stroke-opacity: 0.7"/>
     <use xlink:href="#mb123432d37" x="383.243324" y="171.121153" style="fill: #1f77b4; fill-opacity: 0.7; stroke: #1f77b4; stroke-opacity: 0.7"/>
     <use xlink:href="#mb123432d37" x="270.516051" y="305.777332" style="fill: #1f77b4; fill-opacity: 0.7; stroke: #1f77b4; stroke-opacity: 0.7"/>
     <use xlink:href="#mb123432d37" x="73.243324" y="305.219511" style="fill: #1f77b4; fill-opacity: 0.7; stroke: #1f77b4; stroke-opacity: 0.7"/>
     <use xlink:href="#mb123432d37" x="411.425142" y="319.831192" style="fill: #1f77b4; fill-opacity: 0.7; stroke: #1f77b4; stroke-opacity: 0.7"/>
     <use xlink:href="#mb123432d37" x="270.516051" y="305.102379" style="fill: #1f77b4; fill-opacity: 0.7; stroke: #1f77b4; stroke-opacity: 0.7"/>
     <use xlink:href="#mb123432d37" x="157.788778" y="304.166003" style="fill: #1f77b4; fill-opacity: 0.7; stroke: #1f77b4; stroke-opacity: 0.7"/>
     <use xlink:href="#mb123432d37" x="439.60696" y="275.358781" style="fill: #1f77b4; fill-opacity: 0.7; stroke: #1f77b4; stroke-opacity: 0.7"/>
     <use xlink:href="#mb123432d37" x="157.788778" y="222.441982" style="fill: #1f77b4; fill-opacity: 0.7; stroke: #1f77b4; stroke-opacity: 0.7"/>
     <use xlink:href="#mb123432d37" x="185.970597" y="241.269203" style="fill: #1f77b4; fill-opacity: 0.7; stroke: #1f77b4; stroke-opacity: 0.7"/>
     <use xlink:href="#mb123432d37" x="157.788778" y="311.900598" style="fill: #1f77b4; fill-opacity: 0.7; stroke: #1f77b4; stroke-opacity: 0.7"/>
     <use xlink:href="#mb123432d37" x="129.60696" y="309.640733" style="fill: #1f77b4; fill-opacity: 0.7; stroke: #1f77b4; stroke-opacity: 0.7"/>
     <use xlink:href="#mb123432d37" x="129.60696" y="262.90116" style="fill: #1f77b4; fill-opacity: 0.7; stroke: #1f77b4; stroke-opacity: 0.7"/>
     <use xlink:href="#mb123432d37" x="467.788778" y="320.272017" style="fill: #1f77b4; fill-opacity: 0.7; stroke: #1f77b4; stroke-opacity: 0.7"/>
     <use xlink:href="#mb123432d37" x="185.970597" y="37.87125" style="fill: #1f77b4; fill-opacity: 0.7; stroke: #1f77b4; stroke-opacity: 0.7"/>
     <use xlink:href="#mb123432d37" x="439.60696" y="332.291965" style="fill: #1f77b4; fill-opacity: 0.7; stroke: #1f77b4; stroke-opacity: 0.7"/>
     <use xlink:href="#mb123432d37" x="129.60696" y="310.116849" style="fill: #1f77b4; fill-opacity: 0.7; stroke: #1f77b4; stroke-opacity: 0.7"/>
     <use xlink:href="#mb123432d37" x="157.788778" y="278.992086" style="fill: #1f77b4; fill-opacity: 0.7; stroke: #1f77b4; stroke-opacity: 0.7"/>
     <use xlink:href="#mb123432d37" x="157.788778" y="311.82763" style="fill: #1f77b4; fill-opacity: 0.7; stroke: #1f77b4; stroke-opacity: 0.7"/>
     <use xlink:href="#mb123432d37" x="383.243324" y="258.865023" style="fill: #1f77b4; fill-opacity: 0.7; stroke: #1f77b4; stroke-opacity: 0.7"/>
     <use xlink:href="#mb123432d37" x="157.788778" y="296.413166" style="fill: #1f77b4; fill-opacity: 0.7; stroke: #1f77b4; stroke-opacity: 0.7"/>
     <use xlink:href="#mb123432d37" x="524.152415" y="325.090914" style="fill: #1f77b4; fill-opacity: 0.7; stroke: #1f77b4; stroke-opacity: 0.7"/>
     <use xlink:href="#mb123432d37" x="129.60696" y="272.022145" style="fill: #1f77b4; fill-opacity: 0.7; stroke: #1f77b4; stroke-opacity: 0.7"/>
     <use xlink:href="#mb123432d37" x="270.516051" y="192.859544" style="fill: #1f77b4; fill-opacity: 0.7; stroke: #1f77b4; stroke-opacity: 0.7"/>
     <use xlink:href="#mb123432d37" x="214.152415" y="246.779787" style="fill: #1f77b4; fill-opacity: 0.7; stroke: #1f77b4; stroke-opacity: 0.7"/>
     <use xlink:href="#mb123432d37" x="129.60696" y="270.197948" style="fill: #1f77b4; fill-opacity: 0.7; stroke: #1f77b4; stroke-opacity: 0.7"/>
     <use xlink:href="#mb123432d37" x="185.970597" y="259.693592" style="fill: #1f77b4; fill-opacity: 0.7; stroke: #1f77b4; stroke-opacity: 0.7"/>
     <use xlink:href="#mb123432d37" x="185.970597" y="314.71137" style="fill: #1f77b4; fill-opacity: 0.7; stroke: #1f77b4; stroke-opacity: 0.7"/>
     <use xlink:href="#mb123432d37" x="214.152415" y="260.643683" style="fill: #1f77b4; fill-opacity: 0.7; stroke: #1f77b4; stroke-opacity: 0.7"/>
     <use xlink:href="#mb123432d37" x="129.60696" y="309.850516" style="fill: #1f77b4; fill-opacity: 0.7; stroke: #1f77b4; stroke-opacity: 0.7"/>
     <use xlink:href="#mb123432d37" x="101.425142" y="127.325339" style="fill: #1f77b4; fill-opacity: 0.7; stroke: #1f77b4; stroke-opacity: 0.7"/>
     <use xlink:href="#mb123432d37" x="270.516051" y="305.230072" style="fill: #1f77b4; fill-opacity: 0.7; stroke: #1f77b4; stroke-opacity: 0.7"/>
     <use xlink:href="#mb123432d37" x="157.788778" y="311.517516" style="fill: #1f77b4; fill-opacity: 0.7; stroke: #1f77b4; stroke-opacity: 0.7"/>
     <use xlink:href="#mb123432d37" x="383.243324" y="267.621168" style="fill: #1f77b4; fill-opacity: 0.7; stroke: #1f77b4; stroke-opacity: 0.7"/>
     <use xlink:href="#mb123432d37" x="185.970597" y="299.643503" style="fill: #1f77b4; fill-opacity: 0.7; stroke: #1f77b4; stroke-opacity: 0.7"/>
     <use xlink:href="#mb123432d37" x="214.152415" y="316.099268" style="fill: #1f77b4; fill-opacity: 0.7; stroke: #1f77b4; stroke-opacity: 0.7"/>
     <use xlink:href="#mb123432d37" x="185.970597" y="276.841042" style="fill: #1f77b4; fill-opacity: 0.7; stroke: #1f77b4; stroke-opacity: 0.7"/>
     <use xlink:href="#mb123432d37" x="101.425142" y="294.604194" style="fill: #1f77b4; fill-opacity: 0.7; stroke: #1f77b4; stroke-opacity: 0.7"/>
     <use xlink:href="#mb123432d37" x="129.60696" y="309.576886" style="fill: #1f77b4; fill-opacity: 0.7; stroke: #1f77b4; stroke-opacity: 0.7"/>
     <use xlink:href="#mb123432d37" x="383.243324" y="69.330966" style="fill: #1f77b4; fill-opacity: 0.7; stroke: #1f77b4; stroke-opacity: 0.7"/>
     <use xlink:href="#mb123432d37" x="157.788778" y="293.421483" style="fill: #1f77b4; fill-opacity: 0.7; stroke: #1f77b4; stroke-opacity: 0.7"/>
     <use xlink:href="#mb123432d37" x="495.970597" y="319.215491" style="fill: #1f77b4; fill-opacity: 0.7; stroke: #1f77b4; stroke-opacity: 0.7"/>
     <use xlink:href="#mb123432d37" x="157.788778" y="302.159386" style="fill: #1f77b4; fill-opacity: 0.7; stroke: #1f77b4; stroke-opacity: 0.7"/>
     <use xlink:href="#mb123432d37" x="157.788778" y="306.17262" style="fill: #1f77b4; fill-opacity: 0.7; stroke: #1f77b4; stroke-opacity: 0.7"/>
     <use xlink:href="#mb123432d37" x="411.425142" y="286.813228" style="fill: #1f77b4; fill-opacity: 0.7; stroke: #1f77b4; stroke-opacity: 0.7"/>
     <use xlink:href="#mb123432d37" x="157.788778" y="310.003433" style="fill: #1f77b4; fill-opacity: 0.7; stroke: #1f77b4; stroke-opacity: 0.7"/>
     <use xlink:href="#mb123432d37" x="101.425142" y="307.26412" style="fill: #1f77b4; fill-opacity: 0.7; stroke: #1f77b4; stroke-opacity: 0.7"/>
     <use xlink:href="#mb123432d37" x="101.425142" y="105.434976" style="fill: #1f77b4; fill-opacity: 0.7; stroke: #1f77b4; stroke-opacity: 0.7"/>
     <use xlink:href="#mb123432d37" x="129.60696" y="285.886041" style="fill: #1f77b4; fill-opacity: 0.7; stroke: #1f77b4; stroke-opacity: 0.7"/>
     <use xlink:href="#mb123432d37" x="129.60696" y="300.716762" style="fill: #1f77b4; fill-opacity: 0.7; stroke: #1f77b4; stroke-opacity: 0.7"/>
     <use xlink:href="#mb123432d37" x="73.243324" y="211.930082" style="fill: #1f77b4; fill-opacity: 0.7; stroke: #1f77b4; stroke-opacity: 0.7"/>
     <use xlink:href="#mb123432d37" x="73.243324" y="276.324232" style="fill: #1f77b4; fill-opacity: 0.7; stroke: #1f77b4; stroke-opacity: 0.7"/>
     <use xlink:href="#mb123432d37" x="101.425142" y="307.665443" style="fill: #1f77b4; fill-opacity: 0.7; stroke: #1f77b4; stroke-opacity: 0.7"/>
     <use xlink:href="#mb123432d37" x="185.970597" y="150.971457" style="fill: #1f77b4; fill-opacity: 0.7; stroke: #1f77b4; stroke-opacity: 0.7"/>
     <use xlink:href="#mb123432d37" x="129.60696" y="309.812208" style="fill: #1f77b4; fill-opacity: 0.7; stroke: #1f77b4; stroke-opacity: 0.7"/>
     <use xlink:href="#mb123432d37" x="467.788778" y="331.582037" style="fill: #1f77b4; fill-opacity: 0.7; stroke: #1f77b4; stroke-opacity: 0.7"/>
     <use xlink:href="#mb123432d37" x="157.788778" y="312.338405" style="fill: #1f77b4; fill-opacity: 0.7; stroke: #1f77b4; stroke-opacity: 0.7"/>
     <use xlink:href="#mb123432d37" x="411.425142" y="311.622306" style="fill: #1f77b4; fill-opacity: 0.7; stroke: #1f77b4; stroke-opacity: 0.7"/>
     <use xlink:href="#mb123432d37" x="495.970597" y="316.296776" style="fill: #1f77b4; fill-opacity: 0.7; stroke: #1f77b4; stroke-opacity: 0.7"/>
     <use xlink:href="#mb123432d37" x="73.243324" y="223.422522" style="fill: #1f77b4; fill-opacity: 0.7; stroke: #1f77b4; stroke-opacity: 0.7"/>
     <use xlink:href="#mb123432d37" x="298.697869" y="254.008133" style="fill: #1f77b4; fill-opacity: 0.7; stroke: #1f77b4; stroke-opacity: 0.7"/>
     <use xlink:href="#mb123432d37" x="73.243324" y="289.732079" style="fill: #1f77b4; fill-opacity: 0.7; stroke: #1f77b4; stroke-opacity: 0.7"/>
     <use xlink:href="#mb123432d37" x="129.60696" y="213.647844" style="fill: #1f77b4; fill-opacity: 0.7; stroke: #1f77b4; stroke-opacity: 0.7"/>
     <use xlink:href="#mb123432d37" x="157.788778" y="298.693412" style="fill: #1f77b4; fill-opacity: 0.7; stroke: #1f77b4; stroke-opacity: 0.7"/>
     <use xlink:href="#mb123432d37" x="298.697869" y="313.440467" style="fill: #1f77b4; fill-opacity: 0.7; stroke: #1f77b4; stroke-opacity: 0.7"/>
     <use xlink:href="#mb123432d37" x="129.60696" y="309.633436" style="fill: #1f77b4; fill-opacity: 0.7; stroke: #1f77b4; stroke-opacity: 0.7"/>
     <use xlink:href="#mb123432d37" x="129.60696" y="309.360172" style="fill: #1f77b4; fill-opacity: 0.7; stroke: #1f77b4; stroke-opacity: 0.7"/>
     <use xlink:href="#mb123432d37" x="439.60696" y="294.877687" style="fill: #1f77b4; fill-opacity: 0.7; stroke: #1f77b4; stroke-opacity: 0.7"/>
     <use xlink:href="#mb123432d37" x="129.60696" y="293.912508" style="fill: #1f77b4; fill-opacity: 0.7; stroke: #1f77b4; stroke-opacity: 0.7"/>
     <use xlink:href="#mb123432d37" x="383.243324" y="277.289412" style="fill: #1f77b4; fill-opacity: 0.7; stroke: #1f77b4; stroke-opacity: 0.7"/>
     <use xlink:href="#mb123432d37" x="129.60696" y="253.780176" style="fill: #1f77b4; fill-opacity: 0.7; stroke: #1f77b4; stroke-opacity: 0.7"/>
     <use xlink:href="#mb123432d37" x="298.697869" y="324.403891" style="fill: #1f77b4; fill-opacity: 0.7; stroke: #1f77b4; stroke-opacity: 0.7"/>
     <use xlink:href="#mb123432d37" x="129.60696" y="295.919124" style="fill: #1f77b4; fill-opacity: 0.7; stroke: #1f77b4; stroke-opacity: 0.7"/>
     <use xlink:href="#mb123432d37" x="580.516051" y="340.27125" style="fill: #1f77b4; fill-opacity: 0.7; stroke: #1f77b4; stroke-opacity: 0.7"/>
     <use xlink:href="#mb123432d37" x="383.243324" y="328.42165" style="fill: #1f77b4; fill-opacity: 0.7; stroke: #1f77b4; stroke-opacity: 0.7"/>
     <use xlink:href="#mb123432d37" x="270.516051" y="284.069389" style="fill: #1f77b4; fill-opacity: 0.7; stroke: #1f77b4; stroke-opacity: 0.7"/>
     <use xlink:href="#mb123432d37" x="242.334233" y="316.830456" style="fill: #1f77b4; fill-opacity: 0.7; stroke: #1f77b4; stroke-opacity: 0.7"/>
     <use xlink:href="#mb123432d37" x="355.061506" y="307.350667" style="fill: #1f77b4; fill-opacity: 0.7; stroke: #1f77b4; stroke-opacity: 0.7"/>
     <use xlink:href="#mb123432d37" x="185.970597" y="285.962027" style="fill: #1f77b4; fill-opacity: 0.7; stroke: #1f77b4; stroke-opacity: 0.7"/>
    </g>
   </g>
   <g id="matplotlib.axis_1">
    <g id="xtick_1">
     <g id="line2d_1">
      <path d="M 122.748302 355.39125 
L 122.748302 22.75125 
" clip-path="url(#p475d5400ef)" style="fill: none; stroke: #b0b0b0; stroke-width: 0.8; stroke-linecap: square"/>
     </g>
     <g id="line2d_2">
      <defs>
       <path id="m349cd716d5" d="M 0 0 
L 0 3.5 
" style="stroke: #000000; stroke-width: 0.8"/>
      </defs>
      <g>
       <use xlink:href="#m349cd716d5" x="122.748302" y="355.39125" style="stroke: #000000; stroke-width: 0.8"/>
      </g>
     </g>
     <g id="text_1">
      <!-- 2.0 -->
      <g transform="translate(115.808458 370.350625) scale(0.1 -0.1)">
       <defs>
        <path id="NotoSansCJKsc-Regular-32" d="M 282 0 
L 3232 0 
L 3232 506 
L 1933 506 
C 1696 506 1408 480 1165 461 
C 2266 1504 3008 2458 3008 3398 
C 3008 4230 2477 4774 1638 4774 
C 1043 4774 634 4506 256 4090 
L 595 3757 
C 858 4070 1184 4301 1568 4301 
C 2150 4301 2432 3910 2432 3373 
C 2432 2566 1754 1632 282 346 
L 282 0 
z
" transform="scale(0.015625)"/>
        <path id="NotoSansCJKsc-Regular-2e" d="M 890 -83 
C 1120 -83 1312 96 1312 358 
C 1312 627 1120 806 890 806 
C 653 806 467 627 467 358 
C 467 96 653 -83 890 -83 
z
" transform="scale(0.015625)"/>
        <path id="NotoSansCJKsc-Regular-30" d="M 1779 -83 
C 2669 -83 3238 723 3238 2362 
C 3238 3987 2669 4774 1779 4774 
C 883 4774 320 3987 320 2362 
C 320 723 883 -83 1779 -83 
z
M 1779 390 
C 1248 390 883 986 883 2362 
C 883 3731 1248 4314 1779 4314 
C 2310 4314 2675 3731 2675 2362 
C 2675 986 2310 390 1779 390 
z
" transform="scale(0.015625)"/>
       </defs>
       <use xlink:href="#NotoSansCJKsc-Regular-32"/>
       <use xlink:href="#NotoSansCJKsc-Regular-2e" transform="translate(55.499985 0)"/>
       <use xlink:href="#NotoSansCJKsc-Regular-30" transform="translate(83.299973 0)"/>
      </g>
     </g>
    </g>
    <g id="xtick_2">
     <g id="line2d_3">
      <path d="M 229.430765 355.39125 
L 229.430765 22.75125 
" clip-path="url(#p475d5400ef)" style="fill: none; stroke: #b0b0b0; stroke-width: 0.8; stroke-linecap: square"/>
     </g>
     <g id="line2d_4">
      <g>
       <use xlink:href="#m349cd716d5" x="229.430765" y="355.39125" style="stroke: #000000; stroke-width: 0.8"/>
      </g>
     </g>
     <g id="text_2">
      <!-- 2.5 -->
      <g transform="translate(222.490921 370.350625) scale(0.1 -0.1)">
       <defs>
        <path id="NotoSansCJKsc-Regular-35" d="M 1677 -83 
C 2464 -83 3213 499 3213 1523 
C 3213 2560 2573 3021 1798 3021 
C 1517 3021 1306 2950 1094 2835 
L 1216 4192 
L 2982 4192 
L 2982 4691 
L 704 4691 
L 550 2502 
L 864 2304 
C 1133 2483 1331 2579 1645 2579 
C 2234 2579 2618 2182 2618 1510 
C 2618 826 2176 403 1619 403 
C 1075 403 730 653 467 922 
L 173 538 
C 493 224 941 -83 1677 -83 
z
" transform="scale(0.015625)"/>
       </defs>
       <use xlink:href="#NotoSansCJKsc-Regular-32"/>
       <use xlink:href="#NotoSansCJKsc-Regular-2e" transform="translate(55.499985 0)"/>
       <use xlink:href="#NotoSansCJKsc-Regular-35" transform="translate(83.299973 0)"/>
      </g>
     </g>
    </g>
    <g id="xtick_3">
     <g id="line2d_5">
      <path d="M 336.113228 355.39125 
L 336.113228 22.75125 
" clip-path="url(#p475d5400ef)" style="fill: none; stroke: #b0b0b0; stroke-width: 0.8; stroke-linecap: square"/>
     </g>
     <g id="line2d_6">
      <g>
       <use xlink:href="#m349cd716d5" x="336.113228" y="355.39125" style="stroke: #000000; stroke-width: 0.8"/>
      </g>
     </g>
     <g id="text_3">
      <!-- 3.0 -->
      <g transform="translate(329.173384 370.350625) scale(0.1 -0.1)">
       <defs>
        <path id="NotoSansCJKsc-Regular-33" d="M 1683 -83 
C 2522 -83 3194 416 3194 1254 
C 3194 1901 2752 2310 2202 2445 
L 2202 2477 
C 2701 2650 3034 3034 3034 3603 
C 3034 4346 2458 4774 1664 4774 
C 1126 4774 710 4538 358 4218 
L 672 3846 
C 941 4115 1267 4301 1645 4301 
C 2138 4301 2438 4006 2438 3558 
C 2438 3053 2112 2662 1139 2662 
L 1139 2214 
C 2227 2214 2598 1843 2598 1274 
C 2598 736 2208 403 1645 403 
C 1114 403 762 659 486 941 
L 186 563 
C 493 224 954 -83 1683 -83 
z
" transform="scale(0.015625)"/>
       </defs>
       <use xlink:href="#NotoSansCJKsc-Regular-33"/>
       <use xlink:href="#NotoSansCJKsc-Regular-2e" transform="translate(55.499985 0)"/>
       <use xlink:href="#NotoSansCJKsc-Regular-30" transform="translate(83.299973 0)"/>
      </g>
     </g>
    </g>
    <g id="xtick_4">
     <g id="line2d_7">
      <path d="M 442.795691 355.39125 
L 442.795691 22.75125 
" clip-path="url(#p475d5400ef)" style="fill: none; stroke: #b0b0b0; stroke-width: 0.8; stroke-linecap: square"/>
     </g>
     <g id="line2d_8">
      <g>
       <use xlink:href="#m349cd716d5" x="442.795691" y="355.39125" style="stroke: #000000; stroke-width: 0.8"/>
      </g>
     </g>
     <g id="text_4">
      <!-- 3.5 -->
      <g transform="translate(435.855847 370.350625) scale(0.1 -0.1)">
       <use xlink:href="#NotoSansCJKsc-Regular-33"/>
       <use xlink:href="#NotoSansCJKsc-Regular-2e" transform="translate(55.499985 0)"/>
       <use xlink:href="#NotoSansCJKsc-Regular-35" transform="translate(83.299973 0)"/>
      </g>
     </g>
    </g>
    <g id="xtick_5">
     <g id="line2d_9">
      <path d="M 549.478154 355.39125 
L 549.478154 22.75125 
" clip-path="url(#p475d5400ef)" style="fill: none; stroke: #b0b0b0; stroke-width: 0.8; stroke-linecap: square"/>
     </g>
     <g id="line2d_10">
      <g>
       <use xlink:href="#m349cd716d5" x="549.478154" y="355.39125" style="stroke: #000000; stroke-width: 0.8"/>
      </g>
     </g>
     <g id="text_5">
      <!-- 4.0 -->
      <g transform="translate(542.53831 370.350625) scale(0.1 -0.1)">
       <defs>
        <path id="NotoSansCJKsc-Regular-34" d="M 2176 0 
L 2726 0 
L 2726 1293 
L 3354 1293 
L 3354 1760 
L 2726 1760 
L 2726 4691 
L 2080 4691 
L 128 1677 
L 128 1293 
L 2176 1293 
L 2176 0 
z
M 2176 1760 
L 736 1760 
L 1805 3360 
C 1939 3590 2067 3827 2182 4051 
L 2208 4051 
C 2195 3814 2176 3430 2176 3200 
L 2176 1760 
z
" transform="scale(0.015625)"/>
       </defs>
       <use xlink:href="#NotoSansCJKsc-Regular-34"/>
       <use xlink:href="#NotoSansCJKsc-Regular-2e" transform="translate(55.499985 0)"/>
       <use xlink:href="#NotoSansCJKsc-Regular-30" transform="translate(83.299973 0)"/>
      </g>
     </g>
    </g>
    <g id="text_6">
     <!-- Predicted Values (Mass) -->
     <g transform="translate(271.79375 384.600625) scale(0.1 -0.1)">
      <defs>
       <path id="NotoSansCJKsc-Regular-50" d="M 646 0 
L 1235 0 
L 1235 1869 
L 2010 1869 
C 3040 1869 3738 2323 3738 3315 
C 3738 4339 3034 4691 1984 4691 
L 646 4691 
L 646 0 
z
M 1235 2349 
L 1235 4211 
L 1907 4211 
C 2733 4211 3149 4000 3149 3315 
C 3149 2643 2758 2349 1933 2349 
L 1235 2349 
z
" transform="scale(0.015625)"/>
       <path id="NotoSansCJKsc-Regular-72" d="M 589 0 
L 1178 0 
L 1178 2234 
C 1408 2822 1760 3040 2048 3040 
C 2195 3040 2272 3021 2387 2982 
L 2496 3488 
C 2387 3546 2278 3565 2125 3565 
C 1741 3565 1382 3283 1139 2842 
L 1126 2842 
L 1069 3475 
L 589 3475 
L 589 0 
z
" transform="scale(0.015625)"/>
       <path id="NotoSansCJKsc-Regular-65" d="M 1997 -83 
C 2464 -83 2835 70 3136 269 
L 2931 659 
C 2669 486 2400 384 2061 384 
C 1402 384 947 858 909 1600 
L 3251 1600 
C 3264 1690 3277 1805 3277 1933 
C 3277 2925 2778 3565 1888 3565 
C 1094 3565 333 2867 333 1734 
C 333 589 1069 -83 1997 -83 
z
M 902 2016 
C 973 2707 1408 3098 1901 3098 
C 2445 3098 2765 2720 2765 2016 
L 902 2016 
z
" transform="scale(0.015625)"/>
       <path id="NotoSansCJKsc-Regular-64" d="M 1773 -83 
C 2189 -83 2560 141 2829 410 
L 2848 410 
L 2899 0 
L 3379 0 
L 3379 5094 
L 2790 5094 
L 2790 3757 
L 2822 3162 
C 2515 3411 2253 3565 1843 3565 
C 1050 3565 339 2861 339 1734 
C 339 576 902 -83 1773 -83 
z
M 1901 410 
C 1293 410 941 902 941 1741 
C 941 2534 1389 3072 1946 3072 
C 2234 3072 2502 2970 2790 2707 
L 2790 883 
C 2502 563 2221 410 1901 410 
z
" transform="scale(0.015625)"/>
       <path id="NotoSansCJKsc-Regular-69" d="M 589 0 
L 1178 0 
L 1178 3475 
L 589 3475 
L 589 0 
z
M 883 4192 
C 1114 4192 1274 4346 1274 4582 
C 1274 4806 1114 4960 883 4960 
C 653 4960 499 4806 499 4582 
C 499 4346 653 4192 883 4192 
z
" transform="scale(0.015625)"/>
       <path id="NotoSansCJKsc-Regular-63" d="M 1958 -83 
C 2374 -83 2771 83 3085 352 
L 2829 749 
C 2611 557 2330 403 2010 403 
C 1370 403 934 934 934 1734 
C 934 2534 1395 3072 2029 3072 
C 2298 3072 2522 2950 2720 2771 
L 3014 3155 
C 2771 3373 2458 3565 2003 3565 
C 1107 3565 333 2893 333 1734 
C 333 582 1037 -83 1958 -83 
z
" transform="scale(0.015625)"/>
       <path id="NotoSansCJKsc-Regular-74" d="M 1677 -83 
C 1894 -83 2125 -19 2323 45 
L 2208 486 
C 2093 435 1939 390 1811 390 
C 1408 390 1274 634 1274 1056 
L 1274 3002 
L 2221 3002 
L 2221 3475 
L 1274 3475 
L 1274 4454 
L 787 4454 
L 723 3475 
L 173 3443 
L 173 3002 
L 691 3002 
L 691 1075 
C 691 378 941 -83 1677 -83 
z
" transform="scale(0.015625)"/>
       <path id="NotoSansCJKsc-Regular-20" transform="scale(0.015625)"/>
       <path id="NotoSansCJKsc-Regular-56" d="M 1504 0 
L 2189 0 
L 3680 4691 
L 3078 4691 
L 2323 2150 
C 2163 1600 2048 1152 1869 602 
L 1843 602 
C 1670 1152 1549 1600 1389 2150 
L 627 4691 
L 6 4691 
L 1504 0 
z
" transform="scale(0.015625)"/>
       <path id="NotoSansCJKsc-Regular-61" d="M 1389 -83 
C 1818 -83 2208 141 2541 416 
L 2560 416 
L 2611 0 
L 3091 0 
L 3091 2138 
C 3091 3002 2739 3565 1888 3565 
C 1325 3565 838 3315 525 3110 
L 749 2707 
C 1024 2893 1389 3078 1792 3078 
C 2362 3078 2509 2650 2509 2202 
C 1030 2035 378 1658 378 902 
C 378 275 806 -83 1389 -83 
z
M 1555 390 
C 1210 390 941 544 941 941 
C 941 1389 1338 1677 2509 1811 
L 2509 845 
C 2170 544 1888 390 1555 390 
z
" transform="scale(0.015625)"/>
       <path id="NotoSansCJKsc-Regular-6c" d="M 1203 -83 
C 1363 -83 1459 -58 1542 -32 
L 1459 416 
C 1395 403 1370 403 1338 403 
C 1248 403 1178 474 1178 653 
L 1178 5094 
L 589 5094 
L 589 691 
C 589 198 768 -83 1203 -83 
z
" transform="scale(0.015625)"/>
       <path id="NotoSansCJKsc-Regular-75" d="M 1606 -83 
C 2080 -83 2426 166 2752 544 
L 2771 544 
L 2816 0 
L 3302 0 
L 3302 3475 
L 2720 3475 
L 2720 1011 
C 2387 602 2138 422 1779 422 
C 1318 422 1126 698 1126 1344 
L 1126 3475 
L 538 3475 
L 538 1274 
C 538 384 870 -83 1606 -83 
z
" transform="scale(0.015625)"/>
       <path id="NotoSansCJKsc-Regular-73" d="M 1498 -83 
C 2317 -83 2758 384 2758 947 
C 2758 1606 2208 1811 1702 2003 
C 1312 2150 954 2278 954 2605 
C 954 2880 1158 3110 1600 3110 
C 1907 3110 2150 2976 2387 2803 
L 2669 3168 
C 2406 3386 2022 3565 1594 3565 
C 832 3565 397 3130 397 2579 
C 397 1984 922 1754 1408 1574 
C 1792 1434 2202 1267 2202 915 
C 2202 614 1978 371 1517 371 
C 1101 371 794 538 486 787 
L 205 397 
C 531 122 1005 -83 1498 -83 
z
" transform="scale(0.015625)"/>
       <path id="NotoSansCJKsc-Regular-28" d="M 1530 -1254 
L 1888 -1094 
C 1338 -186 1075 902 1075 1990 
C 1075 3072 1338 4154 1888 5069 
L 1530 5235 
C 941 4275 589 3245 589 1990 
C 589 730 941 -301 1530 -1254 
z
" transform="scale(0.015625)"/>
       <path id="NotoSansCJKsc-Regular-4d" d="M 646 0 
L 1178 0 
L 1178 2598 
C 1178 3002 1139 3571 1101 3981 
L 1126 3981 
L 1504 2912 
L 2394 474 
L 2790 474 
L 3674 2912 
L 4051 3981 
L 4077 3981 
C 4045 3571 4000 3002 4000 2598 
L 4000 0 
L 4550 0 
L 4550 4691 
L 3840 4691 
L 2944 2182 
C 2835 1862 2739 1530 2618 1203 
L 2592 1203 
C 2477 1530 2374 1862 2253 2182 
L 1357 4691 
L 646 4691 
L 646 0 
z
" transform="scale(0.015625)"/>
       <path id="NotoSansCJKsc-Regular-29" d="M 634 -1254 
C 1222 -301 1574 730 1574 1990 
C 1574 3245 1222 4275 634 5235 
L 269 5069 
C 819 4154 1094 3072 1094 1990 
C 1094 902 819 -186 269 -1094 
L 634 -1254 
z
" transform="scale(0.015625)"/>
      </defs>
      <use xlink:href="#NotoSansCJKsc-Regular-50"/>
      <use xlink:href="#NotoSansCJKsc-Regular-72" transform="translate(63.299988 0)"/>
      <use xlink:href="#NotoSansCJKsc-Regular-65" transform="translate(102.099976 0)"/>
      <use xlink:href="#NotoSansCJKsc-Regular-64" transform="translate(157.499969 0)"/>
      <use xlink:href="#NotoSansCJKsc-Regular-69" transform="translate(219.499954 0)"/>
      <use xlink:href="#NotoSansCJKsc-Regular-63" transform="translate(246.999939 0)"/>
      <use xlink:href="#NotoSansCJKsc-Regular-74" transform="translate(297.999924 0)"/>
      <use xlink:href="#NotoSansCJKsc-Regular-65" transform="translate(335.699921 0)"/>
      <use xlink:href="#NotoSansCJKsc-Regular-64" transform="translate(391.099915 0)"/>
      <use xlink:href="#NotoSansCJKsc-Regular-20" transform="translate(453.099899 0)"/>
      <use xlink:href="#NotoSansCJKsc-Regular-56" transform="translate(475.499893 0)"/>
      <use xlink:href="#NotoSansCJKsc-Regular-61" transform="translate(532.999878 0)"/>
      <use xlink:href="#NotoSansCJKsc-Regular-6c" transform="translate(589.299866 0)"/>
      <use xlink:href="#NotoSansCJKsc-Regular-75" transform="translate(617.69986 0)"/>
      <use xlink:href="#NotoSansCJKsc-Regular-65" transform="translate(678.399857 0)"/>
      <use xlink:href="#NotoSansCJKsc-Regular-73" transform="translate(733.79985 0)"/>
      <use xlink:href="#NotoSansCJKsc-Regular-20" transform="translate(780.599838 0)"/>
      <use xlink:href="#NotoSansCJKsc-Regular-28" transform="translate(802.999832 0)"/>
      <use xlink:href="#NotoSansCJKsc-Regular-4d" transform="translate(836.79982 0)"/>
      <use xlink:href="#NotoSansCJKsc-Regular-61" transform="translate(917.999802 0)"/>
      <use xlink:href="#NotoSansCJKsc-Regular-73" transform="translate(974.299789 0)"/>
      <use xlink:href="#NotoSansCJKsc-Regular-73" transform="translate(1021.099777 0)"/>
      <use xlink:href="#NotoSansCJKsc-Regular-29" transform="translate(1067.899765 0)"/>
     </g>
    </g>
   </g>
   <g id="matplotlib.axis_2">
    <g id="ytick_1">
     <g id="line2d_11">
      <path d="M 47.879687 318.864872 
L 605.879688 318.864872 
" clip-path="url(#p475d5400ef)" style="fill: none; stroke: #b0b0b0; stroke-width: 0.8; stroke-linecap: square"/>
     </g>
     <g id="line2d_12">
      <defs>
       <path id="me0f8332705" d="M 0 0 
L -3.5 0 
" style="stroke: #000000; stroke-width: 0.8"/>
      </defs>
      <g>
       <use xlink:href="#me0f8332705" x="47.879687" y="318.864872" style="stroke: #000000; stroke-width: 0.8"/>
      </g>
     </g>
     <g id="text_7">
      <!-- -2.5 -->
      <g transform="translate(23.529687 322.84456) scale(0.1 -0.1)">
       <defs>
        <path id="NotoSansCJKsc-Regular-2d" d="M 294 1568 
L 1933 1568 
L 1933 2016 
L 294 2016 
L 294 1568 
z
" transform="scale(0.015625)"/>
       </defs>
       <use xlink:href="#NotoSansCJKsc-Regular-2d"/>
       <use xlink:href="#NotoSansCJKsc-Regular-32" transform="translate(34.699997 0)"/>
       <use xlink:href="#NotoSansCJKsc-Regular-2e" transform="translate(90.199982 0)"/>
       <use xlink:href="#NotoSansCJKsc-Regular-35" transform="translate(117.999969 0)"/>
      </g>
     </g>
    </g>
    <g id="ytick_2">
     <g id="line2d_13">
      <path d="M 47.879687 273.25995 
L 605.879688 273.25995 
" clip-path="url(#p475d5400ef)" style="fill: none; stroke: #b0b0b0; stroke-width: 0.8; stroke-linecap: square"/>
     </g>
     <g id="line2d_14">
      <g>
       <use xlink:href="#me0f8332705" x="47.879687" y="273.25995" style="stroke: #000000; stroke-width: 0.8"/>
      </g>
     </g>
     <g id="text_8">
      <!-- 0.0 -->
      <g transform="translate(27 277.239638) scale(0.1 -0.1)">
       <use xlink:href="#NotoSansCJKsc-Regular-30"/>
       <use xlink:href="#NotoSansCJKsc-Regular-2e" transform="translate(55.499985 0)"/>
       <use xlink:href="#NotoSansCJKsc-Regular-30" transform="translate(83.299973 0)"/>
      </g>
     </g>
    </g>
    <g id="ytick_3">
     <g id="line2d_15">
      <path d="M 47.879687 227.655028 
L 605.879688 227.655028 
" clip-path="url(#p475d5400ef)" style="fill: none; stroke: #b0b0b0; stroke-width: 0.8; stroke-linecap: square"/>
     </g>
     <g id="line2d_16">
      <g>
       <use xlink:href="#me0f8332705" x="47.879687" y="227.655028" style="stroke: #000000; stroke-width: 0.8"/>
      </g>
     </g>
     <g id="text_9">
      <!-- 2.5 -->
      <g transform="translate(27 231.634715) scale(0.1 -0.1)">
       <use xlink:href="#NotoSansCJKsc-Regular-32"/>
       <use xlink:href="#NotoSansCJKsc-Regular-2e" transform="translate(55.499985 0)"/>
       <use xlink:href="#NotoSansCJKsc-Regular-35" transform="translate(83.299973 0)"/>
      </g>
     </g>
    </g>
    <g id="ytick_4">
     <g id="line2d_17">
      <path d="M 47.879687 182.050106 
L 605.879688 182.050106 
" clip-path="url(#p475d5400ef)" style="fill: none; stroke: #b0b0b0; stroke-width: 0.8; stroke-linecap: square"/>
     </g>
     <g id="line2d_18">
      <g>
       <use xlink:href="#me0f8332705" x="47.879687" y="182.050106" style="stroke: #000000; stroke-width: 0.8"/>
      </g>
     </g>
     <g id="text_10">
      <!-- 5.0 -->
      <g transform="translate(27 186.029793) scale(0.1 -0.1)">
       <use xlink:href="#NotoSansCJKsc-Regular-35"/>
       <use xlink:href="#NotoSansCJKsc-Regular-2e" transform="translate(55.499985 0)"/>
       <use xlink:href="#NotoSansCJKsc-Regular-30" transform="translate(83.299973 0)"/>
      </g>
     </g>
    </g>
    <g id="ytick_5">
     <g id="line2d_19">
      <path d="M 47.879687 136.445183 
L 605.879688 136.445183 
" clip-path="url(#p475d5400ef)" style="fill: none; stroke: #b0b0b0; stroke-width: 0.8; stroke-linecap: square"/>
     </g>
     <g id="line2d_20">
      <g>
       <use xlink:href="#me0f8332705" x="47.879687" y="136.445183" style="stroke: #000000; stroke-width: 0.8"/>
      </g>
     </g>
     <g id="text_11">
      <!-- 7.5 -->
      <g transform="translate(27 140.424871) scale(0.1 -0.1)">
       <defs>
        <path id="NotoSansCJKsc-Regular-37" d="M 1267 0 
L 1875 0 
C 1952 1837 2150 2931 3251 4339 
L 3251 4691 
L 314 4691 
L 314 4192 
L 2592 4192 
C 1670 2912 1350 1779 1267 0 
z
" transform="scale(0.015625)"/>
       </defs>
       <use xlink:href="#NotoSansCJKsc-Regular-37"/>
       <use xlink:href="#NotoSansCJKsc-Regular-2e" transform="translate(55.499985 0)"/>
       <use xlink:href="#NotoSansCJKsc-Regular-35" transform="translate(83.299973 0)"/>
      </g>
     </g>
    </g>
    <g id="ytick_6">
     <g id="line2d_21">
      <path d="M 47.879687 90.840261 
L 605.879688 90.840261 
" clip-path="url(#p475d5400ef)" style="fill: none; stroke: #b0b0b0; stroke-width: 0.8; stroke-linecap: square"/>
     </g>
     <g id="line2d_22">
      <g>
       <use xlink:href="#me0f8332705" x="47.879687" y="90.840261" style="stroke: #000000; stroke-width: 0.8"/>
      </g>
     </g>
     <g id="text_12">
      <!-- 10.0 -->
      <g transform="translate(21.45 94.819949) scale(0.1 -0.1)">
       <defs>
        <path id="NotoSansCJKsc-Regular-31" d="M 563 0 
L 3136 0 
L 3136 486 
L 2195 486 
L 2195 4691 
L 1747 4691 
C 1491 4544 1190 4435 774 4358 
L 774 3987 
L 1613 3987 
L 1613 486 
L 563 486 
L 563 0 
z
" transform="scale(0.015625)"/>
       </defs>
       <use xlink:href="#NotoSansCJKsc-Regular-31"/>
       <use xlink:href="#NotoSansCJKsc-Regular-30" transform="translate(55.499985 0)"/>
       <use xlink:href="#NotoSansCJKsc-Regular-2e" transform="translate(110.999969 0)"/>
       <use xlink:href="#NotoSansCJKsc-Regular-30" transform="translate(138.799957 0)"/>
      </g>
     </g>
    </g>
    <g id="ytick_7">
     <g id="line2d_23">
      <path d="M 47.879687 45.235339 
L 605.879688 45.235339 
" clip-path="url(#p475d5400ef)" style="fill: none; stroke: #b0b0b0; stroke-width: 0.8; stroke-linecap: square"/>
     </g>
     <g id="line2d_24">
      <g>
       <use xlink:href="#me0f8332705" x="47.879687" y="45.235339" style="stroke: #000000; stroke-width: 0.8"/>
      </g>
     </g>
     <g id="text_13">
      <!-- 12.5 -->
      <g transform="translate(21.45 49.215026) scale(0.1 -0.1)">
       <use xlink:href="#NotoSansCJKsc-Regular-31"/>
       <use xlink:href="#NotoSansCJKsc-Regular-32" transform="translate(55.499985 0)"/>
       <use xlink:href="#NotoSansCJKsc-Regular-2e" transform="translate(110.999969 0)"/>
       <use xlink:href="#NotoSansCJKsc-Regular-35" transform="translate(138.799957 0)"/>
      </g>
     </g>
    </g>
    <g id="text_14">
     <!-- Residuals -->
     <g transform="translate(15.159375 211.441562) rotate(-90) scale(0.1 -0.1)">
      <defs>
       <path id="NotoSansCJKsc-Regular-52" d="M 1235 2464 
L 1235 4211 
L 2022 4211 
C 2758 4211 3162 3994 3162 3379 
C 3162 2765 2758 2464 2022 2464 
L 1235 2464 
z
M 3219 0 
L 3885 0 
L 2694 2054 
C 3328 2208 3750 2643 3750 3379 
C 3750 4352 3066 4691 2112 4691 
L 646 4691 
L 646 0 
L 1235 0 
L 1235 1990 
L 2080 1990 
L 3219 0 
z
" transform="scale(0.015625)"/>
      </defs>
      <use xlink:href="#NotoSansCJKsc-Regular-52"/>
      <use xlink:href="#NotoSansCJKsc-Regular-65" transform="translate(63.499985 0)"/>
      <use xlink:href="#NotoSansCJKsc-Regular-73" transform="translate(118.899979 0)"/>
      <use xlink:href="#NotoSansCJKsc-Regular-69" transform="translate(165.699966 0)"/>
      <use xlink:href="#NotoSansCJKsc-Regular-64" transform="translate(193.199951 0)"/>
      <use xlink:href="#NotoSansCJKsc-Regular-75" transform="translate(255.199936 0)"/>
      <use xlink:href="#NotoSansCJKsc-Regular-61" transform="translate(315.899933 0)"/>
      <use xlink:href="#NotoSansCJKsc-Regular-6c" transform="translate(372.199921 0)"/>
      <use xlink:href="#NotoSansCJKsc-Regular-73" transform="translate(400.599915 0)"/>
     </g>
    </g>
   </g>
   <g id="line2d_25">
    <path d="M 47.879687 273.25995 
L 605.879688 273.25995 
" clip-path="url(#p475d5400ef)" style="fill: none; stroke-dasharray: 5.55,2.4; stroke-dashoffset: 0; stroke: #ff0000; stroke-width: 1.5"/>
   </g>
   <g id="patch_3">
    <path d="M 47.879687 355.39125 
L 47.879687 22.75125 
" style="fill: none; stroke: #000000; stroke-width: 0.8; stroke-linejoin: miter; stroke-linecap: square"/>
   </g>
   <g id="patch_4">
    <path d="M 605.879688 355.39125 
L 605.879688 22.75125 
" style="fill: none; stroke: #000000; stroke-width: 0.8; stroke-linejoin: miter; stroke-linecap: square"/>
   </g>
   <g id="patch_5">
    <path d="M 47.879688 355.39125 
L 605.879688 355.39125 
" style="fill: none; stroke: #000000; stroke-width: 0.8; stroke-linejoin: miter; stroke-linecap: square"/>
   </g>
   <g id="patch_6">
    <path d="M 47.879688 22.75125 
L 605.879688 22.75125 
" style="fill: none; stroke: #000000; stroke-width: 0.8; stroke-linejoin: miter; stroke-linecap: square"/>
   </g>
   <g id="text_15">
    <!-- Residuals vs Predicted Values -->
    <g transform="translate(244.575625 16.75125) scale(0.12 -0.12)">
     <defs>
      <path id="NotoSansCJKsc-Regular-76" d="M 1338 0 
L 2022 0 
L 3251 3475 
L 2675 3475 
L 2016 1498 
C 1914 1158 1798 806 1696 474 
L 1664 474 
C 1562 806 1453 1158 1344 1498 
L 691 3475 
L 83 3475 
L 1338 0 
z
" transform="scale(0.015625)"/>
     </defs>
     <use xlink:href="#NotoSansCJKsc-Regular-52"/>
     <use xlink:href="#NotoSansCJKsc-Regular-65" transform="translate(63.499985 0)"/>
     <use xlink:href="#NotoSansCJKsc-Regular-73" transform="translate(118.899979 0)"/>
     <use xlink:href="#NotoSansCJKsc-Regular-69" transform="translate(165.699966 0)"/>
     <use xlink:href="#NotoSansCJKsc-Regular-64" transform="translate(193.199951 0)"/>
     <use xlink:href="#NotoSansCJKsc-Regular-75" transform="translate(255.199936 0)"/>
     <use xlink:href="#NotoSansCJKsc-Regular-61" transform="translate(315.899933 0)"/>
     <use xlink:href="#NotoSansCJKsc-Regular-6c" transform="translate(372.199921 0)"/>
     <use xlink:href="#NotoSansCJKsc-Regular-73" transform="translate(400.599915 0)"/>
     <use xlink:href="#NotoSansCJKsc-Regular-20" transform="translate(447.399902 0)"/>
     <use xlink:href="#NotoSansCJKsc-Regular-76" transform="translate(469.799896 0)"/>
     <use xlink:href="#NotoSansCJKsc-Regular-73" transform="translate(521.899887 0)"/>
     <use xlink:href="#NotoSansCJKsc-Regular-20" transform="translate(568.699875 0)"/>
     <use xlink:href="#NotoSansCJKsc-Regular-50" transform="translate(591.099869 0)"/>
     <use xlink:href="#NotoSansCJKsc-Regular-72" transform="translate(654.399857 0)"/>
     <use xlink:href="#NotoSansCJKsc-Regular-65" transform="translate(693.199844 0)"/>
     <use xlink:href="#NotoSansCJKsc-Regular-64" transform="translate(748.599838 0)"/>
     <use xlink:href="#NotoSansCJKsc-Regular-69" transform="translate(810.599823 0)"/>
     <use xlink:href="#NotoSansCJKsc-Regular-63" transform="translate(838.099808 0)"/>
     <use xlink:href="#NotoSansCJKsc-Regular-74" transform="translate(889.099792 0)"/>
     <use xlink:href="#NotoSansCJKsc-Regular-65" transform="translate(926.799789 0)"/>
     <use xlink:href="#NotoSansCJKsc-Regular-64" transform="translate(982.199783 0)"/>
     <use xlink:href="#NotoSansCJKsc-Regular-20" transform="translate(1044.199768 0)"/>
     <use xlink:href="#NotoSansCJKsc-Regular-56" transform="translate(1066.599762 0)"/>
     <use xlink:href="#NotoSansCJKsc-Regular-61" transform="translate(1124.099747 0)"/>
     <use xlink:href="#NotoSansCJKsc-Regular-6c" transform="translate(1180.399734 0)"/>
     <use xlink:href="#NotoSansCJKsc-Regular-75" transform="translate(1208.799728 0)"/>
     <use xlink:href="#NotoSansCJKsc-Regular-65" transform="translate(1269.499725 0)"/>
     <use xlink:href="#NotoSansCJKsc-Regular-73" transform="translate(1324.899719 0)"/>
    </g>
   </g>
  </g>
 </g>
 <defs>
  <clipPath id="p475d5400ef">
   <rect x="47.879687" y="22.75125" width="558" height="332.64"/>
  </clipPath>
 </defs>
</svg>
